*%FSLAX23Y23*%
*%MOIN*%
G01*
%ADD11C,0.000*%
%ADD12C,0.000*%
%ADD13C,0.000*%
%ADD14C,0.001*%
%ADD15C,0.002*%
%ADD16C,0.006*%
%ADD17C,0.007*%
%ADD18C,0.007*%
%ADD19C,0.008*%
%ADD20C,0.010*%
%ADD21C,0.012*%
%ADD22C,0.015*%
%ADD23C,0.015*%
%ADD24C,0.018*%
%ADD25C,0.020*%
%ADD26C,0.022*%
%ADD27C,0.024*%
%ADD28C,0.025*%
%ADD29C,0.028*%
%ADD30C,0.029*%
%ADD31C,0.031*%
%ADD32C,0.031*%
%ADD33C,0.035*%
%ADD34C,0.035*%
%ADD35C,0.039*%
%ADD36C,0.043*%
%ADD37C,0.045*%
%ADD38C,0.047*%
%ADD39C,0.048*%
%ADD40C,0.049*%
%ADD41C,0.050*%
%ADD42C,0.050*%
%ADD43C,0.051*%
%ADD44C,0.051*%
%ADD45C,0.054*%
%ADD46C,0.055*%
%ADD47C,0.055*%
%ADD48C,0.059*%
%ADD49C,0.059*%
%ADD50C,0.062*%
%ADD51C,0.066*%
%ADD52C,0.067*%
%ADD53C,0.070*%
%ADD54C,0.074*%
%ADD55C,0.115*%
%ADD56C,0.135*%
%ADD57C,0.138*%
%ADD58C,0.138*%
%ADD59C,0.158*%
%ADD60C,0.158*%
%ADD61C,0.190*%
%ADD62C,0.194*%
%ADD63C,0.236*%
%ADD64C,0.240*%
%ADD65R,0.011X0.030*%
%ADD66R,0.012X0.030*%
%ADD67R,0.014X0.033*%
%ADD68R,0.014X0.037*%
%ADD69R,0.015X0.034*%
%ADD70R,0.016X0.034*%
%ADD71R,0.018X0.037*%
%ADD72R,0.018X0.041*%
%ADD73R,0.020X0.025*%
%ADD74R,0.021X0.021*%
%ADD75R,0.024X0.029*%
%ADD76R,0.025X0.020*%
%ADD77R,0.029X0.024*%
%ADD78R,0.030X0.011*%
%ADD79R,0.030X0.030*%
%ADD80R,0.030X0.050*%
%ADD81R,0.031X0.031*%
%ADD82R,0.033X0.014*%
%ADD83R,0.034X0.015*%
%ADD84R,0.034X0.034*%
%ADD85R,0.034X0.054*%
%ADD86R,0.035X0.035*%
%ADD87R,0.037X0.014*%
%ADD88R,0.037X0.018*%
%ADD89R,0.039X0.014*%
%ADD90R,0.039X0.041*%
%ADD91R,0.040X0.050*%
%ADD92R,0.040X0.083*%
%ADD93R,0.041X0.018*%
%ADD94R,0.041X0.087*%
%ADD95R,0.043X0.018*%
%ADD96R,0.043X0.045*%
%ADD97R,0.044X0.054*%
%ADD98R,0.044X0.087*%
%ADD99R,0.045X0.091*%
%ADD100R,0.047X0.055*%
%ADD101R,0.048X0.024*%
%ADD102R,0.050X0.023*%
%ADD103R,0.050X0.030*%
%ADD104R,0.050X0.040*%
%ADD105R,0.050X0.060*%
%ADD106R,0.051X0.059*%
%ADD107R,0.052X0.028*%
%ADD108R,0.054X0.027*%
%ADD109R,0.054X0.034*%
%ADD110R,0.054X0.044*%
%ADD111R,0.054X0.064*%
%ADD112R,0.055X0.039*%
%ADD113R,0.057X0.012*%
%ADD114R,0.057X0.067*%
%ADD115R,0.059X0.043*%
%ADD116R,0.060X0.060*%
%ADD117R,0.061X0.024*%
%ADD118R,0.061X0.051*%
%ADD119R,0.061X0.016*%
%ADD120R,0.061X0.071*%
%ADD121R,0.063X0.039*%
%ADD122R,0.064X0.064*%
%ADD123R,0.065X0.028*%
%ADD124R,0.065X0.055*%
%ADD125R,0.067X0.043*%
%ADD126R,0.085X0.030*%
%ADD127R,0.085X0.085*%
%ADD128R,0.089X0.034*%
%ADD129R,0.094X0.030*%
%ADD130R,0.098X0.034*%
%ADD131R,0.104X0.104*%
%ADD132R,0.108X0.108*%
%ADD133R,0.116X0.138*%
%ADD134R,0.120X0.142*%
%ADD135R,0.169X0.169*%
%ADD136R,0.173X0.173*%
D14*
X8671Y8697D02*
X11120D01*
X11119Y7363D02*
X8674D01*
X8483Y8697D02*
X8239D01*
X8245Y7364D02*
X8500D01*
X8557Y8926D02*
X9791D01*
X10001D02*
X11234D01*
X8557Y8582D02*
Y7481D01*
X8352Y8182D02*
Y8698D01*
Y7880D02*
Y7363D01*
X8557Y8776D02*
Y9005D01*
X11234Y9007D02*
Y8783D01*
Y8584D02*
X11234Y7481D01*
X8333Y8641D02*
X8352Y8698D01*
X8371Y8641D01*
X8333Y7420D02*
X8352Y7363D01*
X8371Y7420D01*
X8614Y8907D02*
X8557Y8926D01*
X8614Y8945D01*
X11177Y8907D02*
X11234Y8926D01*
X11177Y8945D01*
X11234Y7480D02*
X11234Y7477D01*
X11234Y7474D01*
X11234Y7471D01*
X11233Y7467D01*
X11233Y7464D01*
X11233Y7461D01*
X11232Y7458D01*
X11231Y7455D01*
X11231Y7451D01*
X11230Y7448D01*
X11229Y7445D01*
X11228Y7442D01*
X11227Y7439D01*
X11226Y7436D01*
X11224Y7433D01*
X11223Y7430D01*
X11221Y7427D01*
X11220Y7424D01*
X11218Y7421D01*
X11217Y7419D01*
X11215Y7416D01*
X11213Y7413D01*
X11211Y7410D01*
X11209Y7408D01*
X11207Y7405D01*
X11205Y7403D01*
X11203Y7400D01*
X11201Y7398D01*
X11198Y7396D01*
X11196Y7393D01*
X11194Y7391D01*
X11191Y7389D01*
X11189Y7387D01*
X11186Y7385D01*
X11183Y7383D01*
X11181Y7382D01*
X11178Y7380D01*
X11175Y7378D01*
X11172Y7377D01*
X11169Y7375D01*
X11166Y7374D01*
X11164Y7372D01*
X11161Y7371D01*
X11157Y7370D01*
X11154Y7369D01*
X11151Y7368D01*
X11148Y7367D01*
X11145Y7366D01*
X11142Y7365D01*
X11139Y7364D01*
X11136Y7364D01*
X11132Y7363D01*
X11129Y7363D01*
X11126Y7363D01*
X11123Y7362D01*
X11119Y7362D01*
X11116Y7362D01*
X11119Y7362D01*
X11123Y7362D01*
X11126Y7363D01*
X11129Y7363D01*
X11132Y7363D01*
X11136Y7364D01*
X11139Y7364D01*
X11142Y7365D01*
X11145Y7366D01*
X11148Y7367D01*
X11151Y7368D01*
X11154Y7369D01*
X11157Y7370D01*
X11161Y7371D01*
X11164Y7372D01*
X11166Y7374D01*
X11169Y7375D01*
X11172Y7377D01*
X11175Y7378D01*
X11178Y7380D01*
X11181Y7382D01*
X11183Y7383D01*
X11186Y7385D01*
X11189Y7387D01*
X11191Y7389D01*
X11194Y7391D01*
X11196Y7393D01*
X11198Y7396D01*
X11201Y7398D01*
X11203Y7400D01*
X11205Y7403D01*
X11207Y7405D01*
X11209Y7408D01*
X11211Y7410D01*
X11213Y7413D01*
X11215Y7416D01*
X11217Y7419D01*
X11218Y7421D01*
X11220Y7424D01*
X11221Y7427D01*
X11223Y7430D01*
X11224Y7433D01*
X11226Y7436D01*
X11227Y7439D01*
X11228Y7442D01*
X11229Y7445D01*
X11230Y7448D01*
X11231Y7451D01*
X11231Y7455D01*
X11232Y7458D01*
X11233Y7461D01*
X11233Y7464D01*
X11233Y7467D01*
X11234Y7471D01*
X11234Y7474D01*
X11234Y7477D01*
X11234Y7480D01*
X8675Y7363D02*
X8672Y7363D01*
X8669Y7363D01*
X8666Y7364D01*
X8662Y7364D01*
X8659Y7364D01*
X8656Y7365D01*
X8653Y7365D01*
X8650Y7366D01*
X8646Y7367D01*
X8643Y7368D01*
X8640Y7369D01*
X8637Y7370D01*
X8634Y7371D01*
X8631Y7372D01*
X8628Y7373D01*
X8625Y7375D01*
X8622Y7376D01*
X8619Y7377D01*
X8616Y7379D01*
X8613Y7381D01*
X8611Y7382D01*
X8608Y7384D01*
X8605Y7386D01*
X8603Y7388D01*
X8600Y7390D01*
X8598Y7392D01*
X8595Y7394D01*
X8593Y7397D01*
X8591Y7399D01*
X8588Y7401D01*
X8586Y7404D01*
X8584Y7406D01*
X8582Y7409D01*
X8580Y7411D01*
X8578Y7414D01*
X8576Y7417D01*
X8575Y7419D01*
X8573Y7422D01*
X8571Y7425D01*
X8570Y7428D01*
X8569Y7431D01*
X8567Y7434D01*
X8566Y7437D01*
X8565Y7440D01*
X8564Y7443D01*
X8563Y7446D01*
X8562Y7449D01*
X8561Y7452D01*
X8560Y7456D01*
X8559Y7459D01*
X8559Y7462D01*
X8558Y7465D01*
X8558Y7468D01*
X8558Y7472D01*
X8557Y7475D01*
X8557Y7478D01*
X8557Y7481D01*
X8557Y7478D01*
X8557Y7475D01*
X8558Y7472D01*
X8558Y7468D01*
X8558Y7465D01*
X8559Y7462D01*
X8559Y7459D01*
X8560Y7456D01*
X8561Y7452D01*
X8562Y7449D01*
X8563Y7446D01*
X8564Y7443D01*
X8565Y7440D01*
X8566Y7437D01*
X8567Y7434D01*
X8569Y7431D01*
X8570Y7428D01*
X8571Y7425D01*
X8573Y7422D01*
X8575Y7419D01*
X8576Y7417D01*
X8578Y7414D01*
X8580Y7411D01*
X8582Y7409D01*
X8584Y7406D01*
X8586Y7404D01*
X8588Y7401D01*
X8591Y7399D01*
X8593Y7397D01*
X8595Y7394D01*
X8598Y7392D01*
X8600Y7390D01*
X8603Y7388D01*
X8605Y7386D01*
X8608Y7384D01*
X8611Y7382D01*
X8613Y7381D01*
X8616Y7379D01*
X8619Y7377D01*
X8622Y7376D01*
X8625Y7375D01*
X8628Y7373D01*
X8631Y7372D01*
X8634Y7371D01*
X8637Y7370D01*
X8640Y7369D01*
X8643Y7368D01*
X8646Y7367D01*
X8650Y7366D01*
X8653Y7365D01*
X8656Y7365D01*
X8659Y7364D01*
X8662Y7364D01*
X8666Y7364D01*
X8669Y7363D01*
X8672Y7363D01*
X8675Y7363D01*
X8557Y8579D02*
X8557Y8583D01*
X8557Y8586D01*
X8558Y8589D01*
X8558Y8592D01*
X8558Y8596D01*
X8559Y8599D01*
X8559Y8602D01*
X8560Y8605D01*
X8561Y8608D01*
X8562Y8611D01*
X8563Y8615D01*
X8564Y8618D01*
X8565Y8621D01*
X8566Y8624D01*
X8567Y8627D01*
X8569Y8630D01*
X8570Y8633D01*
X8571Y8635D01*
X8573Y8638D01*
X8575Y8641D01*
X8576Y8644D01*
X8578Y8647D01*
X8580Y8649D01*
X8582Y8652D01*
X8584Y8654D01*
X8586Y8657D01*
X8588Y8659D01*
X8591Y8662D01*
X8593Y8664D01*
X8595Y8666D01*
X8598Y8668D01*
X8600Y8670D01*
X8603Y8672D01*
X8605Y8674D01*
X8608Y8676D01*
X8611Y8678D01*
X8614Y8680D01*
X8616Y8682D01*
X8619Y8683D01*
X8622Y8685D01*
X8625Y8686D01*
X8628Y8687D01*
X8631Y8689D01*
X8634Y8690D01*
X8637Y8691D01*
X8640Y8692D01*
X8643Y8693D01*
X8646Y8694D01*
X8650Y8695D01*
X8653Y8695D01*
X8656Y8696D01*
X8659Y8696D01*
X8662Y8697D01*
X8666Y8697D01*
X8669Y8697D01*
X8672Y8697D01*
X8675Y8697D01*
X8672Y8697D01*
X8669Y8697D01*
X8666Y8697D01*
X8662Y8697D01*
X8659Y8696D01*
X8656Y8696D01*
X8653Y8695D01*
X8650Y8695D01*
X8646Y8694D01*
X8643Y8693D01*
X8640Y8692D01*
X8637Y8691D01*
X8634Y8690D01*
X8631Y8689D01*
X8628Y8687D01*
X8625Y8686D01*
X8622Y8685D01*
X8619Y8683D01*
X8616Y8682D01*
X8614Y8680D01*
X8611Y8678D01*
X8608Y8676D01*
X8605Y8674D01*
X8603Y8672D01*
X8600Y8670D01*
X8598Y8668D01*
X8595Y8666D01*
X8593Y8664D01*
X8591Y8662D01*
X8588Y8659D01*
X8586Y8657D01*
X8584Y8654D01*
X8582Y8652D01*
X8580Y8649D01*
X8578Y8647D01*
X8576Y8644D01*
X8575Y8641D01*
X8573Y8638D01*
X8571Y8635D01*
X8570Y8633D01*
X8569Y8630D01*
X8567Y8627D01*
X8566Y8624D01*
X8565Y8621D01*
X8564Y8618D01*
X8563Y8615D01*
X8562Y8611D01*
X8561Y8608D01*
X8560Y8605D01*
X8559Y8602D01*
X8559Y8599D01*
X8558Y8596D01*
X8558Y8592D01*
X8558Y8589D01*
X8557Y8586D01*
X8557Y8583D01*
X8557Y8579D01*
X11116Y8697D02*
X11119Y8697D01*
X11123Y8697D01*
X11126Y8697D01*
X11129Y8696D01*
X11132Y8696D01*
X11136Y8696D01*
X11139Y8695D01*
X11142Y8694D01*
X11145Y8694D01*
X11148Y8693D01*
X11151Y8692D01*
X11155Y8691D01*
X11158Y8690D01*
X11161Y8689D01*
X11164Y8687D01*
X11167Y8686D01*
X11170Y8684D01*
X11172Y8683D01*
X11175Y8681D01*
X11178Y8680D01*
X11181Y8678D01*
X11184Y8676D01*
X11186Y8674D01*
X11189Y8672D01*
X11191Y8670D01*
X11194Y8668D01*
X11196Y8666D01*
X11199Y8664D01*
X11201Y8661D01*
X11203Y8659D01*
X11205Y8657D01*
X11207Y8654D01*
X11209Y8652D01*
X11211Y8649D01*
X11213Y8646D01*
X11215Y8644D01*
X11217Y8641D01*
X11219Y8638D01*
X11220Y8635D01*
X11222Y8632D01*
X11223Y8630D01*
X11224Y8627D01*
X11226Y8624D01*
X11227Y8621D01*
X11228Y8617D01*
X11229Y8614D01*
X11230Y8611D01*
X11231Y8608D01*
X11231Y8605D01*
X11232Y8602D01*
X11233Y8599D01*
X11233Y8595D01*
X11234Y8592D01*
X11234Y8589D01*
X11234Y8586D01*
X11234Y8582D01*
X11234Y8579D01*
X11234Y8582D01*
X11234Y8586D01*
X11234Y8589D01*
X11234Y8592D01*
X11233Y8595D01*
X11233Y8599D01*
X11232Y8602D01*
X11231Y8605D01*
X11231Y8608D01*
X11230Y8611D01*
X11229Y8614D01*
X11228Y8617D01*
X11227Y8621D01*
X11226Y8624D01*
X11224Y8627D01*
X11223Y8630D01*
X11222Y8632D01*
X11220Y8635D01*
X11219Y8638D01*
X11217Y8641D01*
X11215Y8644D01*
X11213Y8646D01*
X11211Y8649D01*
X11209Y8652D01*
X11207Y8654D01*
X11205Y8657D01*
X11203Y8659D01*
X11201Y8661D01*
X11199Y8664D01*
X11196Y8666D01*
X11194Y8668D01*
X11191Y8670D01*
X11189Y8672D01*
X11186Y8674D01*
X11184Y8676D01*
X11181Y8678D01*
X11178Y8680D01*
X11175Y8681D01*
X11172Y8683D01*
X11170Y8684D01*
X11167Y8686D01*
X11164Y8687D01*
X11161Y8689D01*
X11158Y8690D01*
X11155Y8691D01*
X11151Y8692D01*
X11148Y8693D01*
X11145Y8694D01*
X11142Y8694D01*
X11139Y8695D01*
X11136Y8696D01*
X11132Y8696D01*
X11129Y8696D01*
X11126Y8697D01*
X11123Y8697D01*
X11119Y8697D01*
X11116Y8697D01*
D15*
X8374Y8163D02*
X8365Y8172D01*
X8374Y8163D02*
Y8147D01*
X8365Y8138D01*
X8357D01*
X8358D01*
X8357D02*
X8358D01*
X8357D02*
X8358D01*
X8357D02*
X8349Y8147D01*
Y8155D01*
Y8147D01*
X8340Y8138D01*
X8332D01*
X8324Y8147D01*
Y8163D01*
X8332Y8172D01*
X8365Y8122D02*
X8374Y8113D01*
Y8097D01*
X8365Y8088D01*
X8357D01*
X8358D01*
X8357D02*
X8358D01*
X8357D02*
X8358D01*
X8357D02*
X8349Y8097D01*
Y8105D01*
Y8097D01*
X8340Y8088D01*
X8332D01*
X8324Y8097D01*
Y8113D01*
X8332Y8122D01*
Y8072D02*
X8324D01*
X8332D02*
Y8063D01*
X8324D01*
Y8072D01*
X8332Y8030D02*
X8324Y8022D01*
Y8005D01*
X8332Y7997D01*
X8365D01*
X8374Y8005D01*
Y8022D01*
X8365Y8030D01*
X8357D01*
X8349Y8022D01*
Y7997D01*
X8357Y7980D02*
X8324D01*
X8357D02*
Y7972D01*
X8349Y7963D01*
X8324D01*
X8349D01*
X8357Y7955D01*
X8349Y7947D01*
X8324D01*
Y7930D02*
X8357D01*
Y7922D01*
X8349Y7913D01*
X8324D01*
X8349D01*
X8357Y7905D01*
X8349Y7897D01*
X8324D01*
X11266Y8699D02*
X11272Y8706D01*
X11286D01*
X11292Y8699D01*
Y8693D01*
X11293D01*
X11292D02*
X11293D01*
X11292D02*
X11293D01*
X11292D02*
X11286Y8686D01*
X11279D01*
X11286D01*
X11292Y8679D01*
Y8673D01*
X11286Y8666D01*
X11272D01*
X11266Y8673D01*
X11306D02*
Y8666D01*
Y8673D02*
X11312D01*
Y8666D01*
X11306D01*
X11339Y8699D02*
X11346Y8706D01*
X11359D01*
X11366Y8699D01*
Y8673D01*
X11359Y8666D01*
X11346D01*
X11339Y8673D01*
Y8699D01*
X11419Y8693D02*
Y8666D01*
Y8693D02*
X11426D01*
X11432Y8686D01*
Y8666D01*
Y8686D01*
X11439Y8693D01*
X11446Y8686D01*
Y8666D01*
X11459D02*
Y8693D01*
X11466D01*
X11472Y8686D01*
Y8666D01*
Y8686D01*
X11479Y8693D01*
X11486Y8686D01*
Y8666D01*
X11539D02*
Y8706D01*
X11559D01*
X11566Y8699D01*
Y8686D01*
X11559Y8679D01*
X11539D01*
X11552D02*
X11566Y8666D01*
X11586Y8693D02*
X11599D01*
X11606Y8686D01*
Y8666D01*
X11586D01*
X11579Y8673D01*
X11586Y8679D01*
X11606D01*
X11646Y8666D02*
Y8706D01*
Y8666D02*
X11626D01*
X11619Y8673D01*
Y8686D01*
X11626Y8693D01*
X11646D01*
X11659Y8666D02*
X11672D01*
X11666D01*
Y8693D01*
X11659D01*
X11666Y8706D02*
X11667D01*
X11692Y8693D02*
Y8673D01*
X11699Y8666D01*
X11719D01*
Y8693D01*
X11732Y8666D02*
X11752D01*
X11759Y8673D01*
X11752Y8679D01*
X11739D01*
X11732Y8686D01*
X11739Y8693D01*
X11759D01*
X11357Y8647D02*
Y8607D01*
X11337Y8627D02*
X11357Y8647D01*
X11363Y8627D02*
X11337D01*
X11417Y8634D02*
Y8594D01*
Y8634D02*
X11437D01*
X11443Y8627D01*
Y8614D01*
X11437Y8607D01*
X11417D01*
X11457D02*
X11470D01*
X11463D01*
Y8647D01*
X11457D01*
X11496Y8634D02*
X11510D01*
X11516Y8627D01*
Y8607D01*
X11496D01*
X11490Y8614D01*
X11496Y8620D01*
X11516D01*
X11536Y8634D02*
X11556D01*
X11536D02*
X11530Y8627D01*
Y8614D01*
X11536Y8607D01*
X11556D01*
X11576D02*
X11590D01*
X11576D02*
X11570Y8614D01*
Y8627D01*
X11576Y8634D01*
X11590D01*
X11596Y8627D01*
Y8620D01*
X11570D01*
X11610Y8607D02*
X11630D01*
X11636Y8614D01*
X11630Y8620D01*
X11616D01*
X11610Y8627D01*
X11616Y8634D01*
X11636D01*
X9834Y8947D02*
X9817Y8939D01*
X9801Y8922D01*
Y8906D01*
X9809Y8897D01*
X9826D01*
X9834Y8906D01*
Y8914D01*
X9826Y8922D01*
X9801D01*
X9851Y8939D02*
X9859Y8947D01*
X9875D01*
X9884Y8939D01*
Y8931D01*
X9875Y8922D01*
X9884Y8914D01*
Y8906D01*
X9875Y8897D01*
X9859D01*
X9851Y8906D01*
Y8914D01*
X9859Y8922D01*
X9851Y8931D01*
Y8939D01*
X9859Y8922D02*
X9875D01*
X9900Y8931D02*
Y8897D01*
Y8931D02*
X9909D01*
X9917Y8922D01*
Y8897D01*
Y8922D01*
X9925Y8931D01*
X9934Y8922D01*
Y8897D01*
X9950D02*
Y8931D01*
X9959D01*
X9967Y8922D01*
Y8897D01*
Y8922D01*
X9975Y8931D01*
X9984Y8922D01*
Y8897D01*
D02*
M02*
