*%FSLAX23Y23*%
*%MOIN*%
G01*
%ADD11C,0.000*%
%ADD12C,0.000*%
%ADD13C,0.000*%
%ADD14C,0.001*%
%ADD15C,0.002*%
%ADD16C,0.006*%
%ADD17C,0.007*%
%ADD18C,0.007*%
%ADD19C,0.008*%
%ADD20C,0.010*%
%ADD21C,0.012*%
%ADD22C,0.015*%
%ADD23C,0.015*%
%ADD24C,0.018*%
%ADD25C,0.020*%
%ADD26C,0.022*%
%ADD27C,0.024*%
%ADD28C,0.025*%
%ADD29C,0.028*%
%ADD30C,0.029*%
%ADD31C,0.031*%
%ADD32C,0.031*%
%ADD33C,0.035*%
%ADD34C,0.035*%
%ADD35C,0.039*%
%ADD36C,0.043*%
%ADD37C,0.045*%
%ADD38C,0.047*%
%ADD39C,0.048*%
%ADD40C,0.049*%
%ADD41C,0.050*%
%ADD42C,0.050*%
%ADD43C,0.051*%
%ADD44C,0.051*%
%ADD45C,0.054*%
%ADD46C,0.055*%
%ADD47C,0.055*%
%ADD48C,0.059*%
%ADD49C,0.059*%
%ADD50C,0.062*%
%ADD51C,0.066*%
%ADD52C,0.067*%
%ADD53C,0.070*%
%ADD54C,0.074*%
%ADD55C,0.115*%
%ADD56C,0.135*%
%ADD57C,0.138*%
%ADD58C,0.138*%
%ADD59C,0.158*%
%ADD60C,0.158*%
%ADD61C,0.190*%
%ADD62C,0.194*%
%ADD63C,0.236*%
%ADD64C,0.240*%
%ADD65R,0.011X0.030*%
%ADD66R,0.012X0.030*%
%ADD67R,0.014X0.033*%
%ADD68R,0.014X0.037*%
%ADD69R,0.015X0.034*%
%ADD70R,0.016X0.034*%
%ADD71R,0.018X0.037*%
%ADD72R,0.018X0.041*%
%ADD73R,0.020X0.025*%
%ADD74R,0.021X0.021*%
%ADD75R,0.024X0.029*%
%ADD76R,0.025X0.020*%
%ADD77R,0.029X0.024*%
%ADD78R,0.030X0.011*%
%ADD79R,0.030X0.030*%
%ADD80R,0.030X0.050*%
%ADD81R,0.031X0.031*%
%ADD82R,0.033X0.014*%
%ADD83R,0.034X0.015*%
%ADD84R,0.034X0.034*%
%ADD85R,0.034X0.054*%
%ADD86R,0.035X0.035*%
%ADD87R,0.037X0.014*%
%ADD88R,0.037X0.018*%
%ADD89R,0.039X0.014*%
%ADD90R,0.039X0.041*%
%ADD91R,0.040X0.050*%
%ADD92R,0.040X0.083*%
%ADD93R,0.041X0.018*%
%ADD94R,0.041X0.087*%
%ADD95R,0.043X0.018*%
%ADD96R,0.043X0.045*%
%ADD97R,0.044X0.054*%
%ADD98R,0.044X0.087*%
%ADD99R,0.045X0.091*%
%ADD100R,0.047X0.055*%
%ADD101R,0.048X0.024*%
%ADD102R,0.050X0.023*%
%ADD103R,0.050X0.030*%
%ADD104R,0.050X0.040*%
%ADD105R,0.050X0.060*%
%ADD106R,0.051X0.059*%
%ADD107R,0.052X0.028*%
%ADD108R,0.054X0.027*%
%ADD109R,0.054X0.034*%
%ADD110R,0.054X0.044*%
%ADD111R,0.054X0.064*%
%ADD112R,0.055X0.039*%
%ADD113R,0.057X0.012*%
%ADD114R,0.057X0.067*%
%ADD115R,0.059X0.043*%
%ADD116R,0.060X0.060*%
%ADD117R,0.061X0.024*%
%ADD118R,0.061X0.051*%
%ADD119R,0.061X0.016*%
%ADD120R,0.061X0.071*%
%ADD121R,0.063X0.039*%
%ADD122R,0.064X0.064*%
%ADD123R,0.065X0.028*%
%ADD124R,0.065X0.055*%
%ADD125R,0.067X0.043*%
%ADD126R,0.085X0.030*%
%ADD127R,0.085X0.085*%
%ADD128R,0.089X0.034*%
%ADD129R,0.094X0.030*%
%ADD130R,0.098X0.034*%
%ADD131R,0.104X0.104*%
%ADD132R,0.108X0.108*%
%ADD133R,0.116X0.138*%
%ADD134R,0.120X0.142*%
%ADD135R,0.169X0.169*%
%ADD136R,0.173X0.173*%
D16*
X10849Y8331D02*
X10861D01*
X10855D01*
Y8366D01*
X10856D01*
X10855D02*
X10849Y8360D01*
X11177Y7654D02*
Y7643D01*
X11183Y7637D01*
X11206D01*
X11212Y7643D01*
Y7654D01*
X11206Y7660D01*
X11183D01*
X11177Y7654D01*
Y7672D02*
X11212D01*
Y7695D02*
X11177Y7672D01*
Y7695D02*
X11212D01*
X11177Y7863D02*
Y7874D01*
Y7863D02*
X11183Y7857D01*
X11206D01*
X11212Y7863D01*
Y7874D01*
X11206Y7880D01*
X11183D01*
X11177Y7874D01*
Y7892D02*
Y7915D01*
Y7892D02*
X11195D01*
Y7904D01*
Y7892D01*
X11212D01*
X11177Y7927D02*
Y7950D01*
Y7927D02*
X11195D01*
Y7939D01*
Y7927D01*
X11212D01*
X8774Y8522D02*
Y8557D01*
X8757Y8539D01*
X8780D01*
X8792Y8551D02*
X8798Y8557D01*
X8809D01*
X8815Y8551D01*
Y8528D01*
X8809Y8522D01*
X8798D01*
X8792Y8528D01*
Y8551D01*
X8768Y8307D02*
X8762Y8301D01*
X8768Y8307D02*
X8779D01*
X8785Y8301D01*
Y8295D01*
X8786D01*
X8785D02*
X8786D01*
X8785D02*
X8786D01*
X8785D02*
X8779Y8289D01*
X8774D01*
X8779D01*
X8785Y8284D01*
Y8278D01*
X8779Y8272D01*
X8768D01*
X8762Y8278D01*
X8797D02*
X8803Y8272D01*
X8814D01*
X8820Y8278D01*
Y8301D01*
X8814Y8307D01*
X8803D01*
X8797Y8301D01*
Y8295D01*
X8803Y8289D01*
X8820D01*
X10852Y8487D02*
X10875D01*
X10852D02*
X10875Y8510D01*
Y8516D01*
X10869Y8522D01*
X10858D01*
X10852Y8516D01*
X10314Y7512D02*
Y7477D01*
X10297Y7494D02*
X10314Y7512D01*
X10320Y7494D02*
X10297D01*
X9904Y7472D02*
X9892D01*
X9898D02*
X9904D01*
X9898D02*
Y7507D01*
X9899D01*
X9898D02*
X9892Y7501D01*
X8967Y8632D02*
Y8677D01*
Y8647D02*
Y8632D01*
Y8647D02*
X8997Y8677D01*
X8974Y8654D01*
X8997Y8632D01*
X9019D02*
X9034D01*
X9019D02*
X9012Y8639D01*
Y8654D01*
X9019Y8662D01*
X9034D01*
X9042Y8654D01*
Y8647D01*
X9012D01*
X9057Y8632D02*
X9072D01*
X9064D01*
Y8677D01*
X9057D01*
X9094Y8632D02*
X9109D01*
X9102D01*
Y8677D01*
X9094D01*
X9132Y8662D02*
Y8639D01*
X9139Y8632D01*
X9162D01*
Y8625D01*
X9154Y8617D01*
X9147D01*
X9162Y8632D02*
Y8662D01*
X9222Y8677D02*
Y8632D01*
X9244D01*
X9252Y8639D01*
Y8669D01*
X9244Y8677D01*
X9222D01*
X9274Y8632D02*
X9289D01*
X9274D02*
X9267Y8639D01*
Y8654D01*
X9274Y8662D01*
X9289D01*
X9297Y8654D01*
Y8647D01*
X9267D01*
X9312Y8632D02*
X9334D01*
X9342Y8639D01*
X9334Y8647D01*
X9319D01*
X9312Y8654D01*
X9319Y8662D01*
X9342D01*
X9357Y8632D02*
X9372D01*
X9364D01*
Y8662D01*
X9357D01*
X9364Y8677D02*
X9365D01*
X9409Y8617D02*
X9417D01*
X9424Y8625D01*
Y8662D01*
X9402D01*
X9394Y8654D01*
Y8639D01*
X9402Y8632D01*
X9424D01*
X9439D02*
Y8662D01*
X9462D01*
X9469Y8654D01*
Y8632D01*
X9484D02*
X9507D01*
X9514Y8639D01*
X9507Y8647D01*
X9492D01*
X9484Y8654D01*
X9492Y8662D01*
X9514D01*
X10802Y8640D02*
Y8617D01*
Y8640D02*
X10796Y8646D01*
X10785D01*
X10779Y8640D01*
Y8617D01*
X10785Y8611D01*
X10796D01*
X10802D02*
X10791Y8623D01*
X10796Y8611D02*
X10802Y8617D01*
X10814Y8640D02*
X10820Y8646D01*
X10831D01*
X10837Y8640D01*
Y8634D01*
X10838D01*
X10837D02*
X10838D01*
X10837D02*
X10838D01*
X10837D02*
X10831Y8628D01*
X10826D01*
X10831D01*
X10837Y8623D01*
Y8617D01*
X10831Y8611D01*
X10820D01*
X10814Y8617D01*
X10744Y8651D02*
Y8686D01*
X10761D01*
X10767Y8680D01*
Y8668D01*
X10761Y8663D01*
X10744D01*
X10756D02*
X10767Y8651D01*
X10779Y8680D02*
X10785Y8686D01*
X10796D01*
X10802Y8680D01*
Y8674D01*
X10803D01*
X10802D02*
X10803D01*
X10802D02*
X10803D01*
X10802D02*
X10796Y8668D01*
X10791D01*
X10796D01*
X10802Y8663D01*
Y8657D01*
X10796Y8651D01*
X10785D01*
X10779Y8657D01*
X10814Y8680D02*
X10820Y8686D01*
X10831D01*
X10837Y8680D01*
Y8674D01*
X10831Y8668D01*
X10837Y8663D01*
Y8657D01*
X10831Y8651D01*
X10820D01*
X10814Y8657D01*
Y8663D01*
X10820Y8668D01*
X10814Y8674D01*
Y8680D01*
X10820Y8668D02*
X10831D01*
X11159Y8591D02*
Y8556D01*
Y8591D02*
X11176D01*
X11182Y8585D01*
Y8573D01*
X11176Y8568D01*
X11159D01*
X11171D02*
X11182Y8556D01*
X11194Y8591D02*
X11217D01*
X11194D02*
Y8573D01*
X11206Y8579D01*
X11211D01*
X11217Y8573D01*
Y8562D01*
X11211Y8556D01*
X11200D01*
X11194Y8562D01*
X11192Y8546D02*
X11169D01*
Y8528D01*
X11181D01*
X11169D01*
Y8511D01*
X11204D02*
X11216D01*
X11210D01*
Y8546D01*
X11211D01*
X11210D02*
X11204Y8540D01*
X10469Y8011D02*
Y7976D01*
Y8011D02*
X10486D01*
X10492Y8005D01*
Y7993D01*
X10486Y7988D01*
X10469D01*
X10481D02*
X10492Y7976D01*
X10521D02*
Y8011D01*
X10504Y7993D01*
X10527D01*
X10251Y7626D02*
X10257Y7620D01*
X10251Y7626D02*
X10240D01*
X10234Y7620D01*
Y7597D01*
X10240Y7591D01*
X10251D01*
X10257Y7597D01*
X10269Y7591D02*
X10281D01*
X10275D01*
Y7626D01*
X10276D01*
X10275D02*
X10269Y7620D01*
X10298D02*
X10304Y7626D01*
X10316D01*
X10321Y7620D01*
Y7597D01*
X10316Y7591D01*
X10304D01*
X10298Y7597D01*
Y7620D01*
X10157Y7597D02*
Y7568D01*
X10163Y7562D01*
X10174D01*
X10180Y7568D01*
Y7597D01*
X10209D02*
Y7562D01*
X10192Y7579D02*
X10209Y7597D01*
X10215Y7579D02*
X10192D01*
X10157Y7437D02*
Y7402D01*
Y7437D02*
X10174D01*
X10180Y7431D01*
Y7419D01*
X10174Y7414D01*
X10157D01*
X10169D02*
X10180Y7402D01*
X10192D02*
X10215D01*
X10192D02*
X10215Y7425D01*
Y7431D01*
X10209Y7437D01*
X10198D01*
X10192Y7431D01*
X10227Y7408D02*
X10233Y7402D01*
X10244D01*
X10250Y7408D01*
Y7431D01*
X10244Y7437D01*
X10233D01*
X10227Y7431D01*
Y7425D01*
X10233Y7419D01*
X10250D01*
X9679Y7411D02*
Y7376D01*
Y7411D02*
X9696D01*
X9702Y7405D01*
Y7393D01*
X9696Y7388D01*
X9679D01*
X9691D02*
X9702Y7376D01*
X9714Y7405D02*
X9720Y7411D01*
X9731D01*
X9737Y7405D01*
Y7399D01*
X9738D01*
X9737D02*
X9738D01*
X9737D02*
X9738D01*
X9737D02*
X9731Y7393D01*
X9726D01*
X9731D01*
X9737Y7388D01*
Y7382D01*
X9731Y7376D01*
X9720D01*
X9714Y7382D01*
X9749Y7405D02*
X9755Y7411D01*
X9766D01*
X9772Y7405D01*
Y7382D01*
X9766Y7376D01*
X9755D01*
X9749Y7382D01*
Y7405D01*
X9772Y7470D02*
X9766Y7476D01*
X9755D01*
X9749Y7470D01*
Y7447D01*
X9755Y7441D01*
X9766D01*
X9772Y7447D01*
X9784Y7441D02*
X9807D01*
X9784D02*
X9807Y7464D01*
Y7470D01*
X9801Y7476D01*
X9790D01*
X9784Y7470D01*
X9819Y7441D02*
X9831D01*
X9825D01*
Y7476D01*
X9826D01*
X9825D02*
X9819Y7470D01*
X9834Y8658D02*
Y8681D01*
Y8658D02*
X9846Y8646D01*
X9857Y8658D01*
Y8681D01*
X9869Y8646D02*
X9892D01*
X9869D02*
X9892Y8669D01*
Y8675D01*
X9886Y8681D01*
X9875D01*
X9869Y8675D01*
X9926Y8681D02*
X9932Y8675D01*
X9926Y8681D02*
X9915D01*
X9909Y8675D01*
Y8652D01*
X9915Y8646D01*
X9926D01*
X9932Y8652D01*
X9944Y8675D02*
X9950Y8681D01*
X9961D01*
X9967Y8675D01*
Y8669D01*
X9968D01*
X9967D02*
X9968D01*
X9967D02*
X9968D01*
X9967D02*
X9961Y8663D01*
X9956D01*
X9961D01*
X9967Y8658D01*
Y8652D01*
X9961Y8646D01*
X9950D01*
X9944Y8652D01*
X9979Y8675D02*
X9985Y8681D01*
X9996D01*
X10002Y8675D01*
Y8652D01*
X9996Y8646D01*
X9985D01*
X9979Y8652D01*
Y8675D01*
X10139Y8681D02*
Y8658D01*
X10151Y8646D01*
X10162Y8658D01*
Y8681D01*
X10174Y8646D02*
X10186D01*
X10180D01*
Y8681D01*
X10181D01*
X10180D02*
X10174Y8675D01*
X10047D02*
X10041Y8681D01*
X10030D01*
X10024Y8675D01*
Y8652D01*
X10030Y8646D01*
X10041D01*
X10047Y8652D01*
X10059Y8646D02*
X10082D01*
X10059D02*
X10082Y8669D01*
Y8675D01*
X10076Y8681D01*
X10065D01*
X10059Y8675D01*
X10094Y8652D02*
X10100Y8646D01*
X10111D01*
X10117Y8652D01*
Y8675D01*
X10111Y8681D01*
X10100D01*
X10094Y8675D01*
Y8669D01*
X10100Y8663D01*
X10117D01*
X8821Y8619D02*
X8810D01*
X8815D01*
Y8590D01*
X8810Y8584D01*
X8804D01*
X8798Y8590D01*
X8833Y8584D02*
X8845D01*
X8839D01*
Y8619D01*
X8840D01*
X8839D02*
X8833Y8613D01*
X11063Y8306D02*
X11074D01*
X11068D02*
X11063D01*
X11068D02*
Y8277D01*
X11063Y8271D01*
X11057D01*
X11051Y8277D01*
X11086Y8271D02*
X11109D01*
X11086D02*
X11109Y8294D01*
Y8300D01*
X11103Y8306D01*
X11092D01*
X11086Y8300D01*
X10948Y7650D02*
X10942Y7644D01*
Y7633D01*
X10948Y7627D01*
X10954D01*
X10960Y7633D01*
Y7644D01*
X10965Y7650D01*
X10971D01*
X10977Y7644D01*
Y7633D01*
X10971Y7627D01*
X10977Y7662D02*
X10942D01*
X10965Y7674D02*
X10977Y7662D01*
X10965Y7674D02*
X10977Y7685D01*
X10942D01*
X10977Y7697D02*
Y7709D01*
Y7703D01*
X10942D01*
X10943D01*
X10942D02*
X10948Y7697D01*
X10717Y7417D02*
Y7382D01*
Y7417D02*
X10734D01*
X10740Y7411D01*
Y7399D01*
X10734Y7394D01*
X10717D01*
X10729D02*
X10740Y7382D01*
X10752D02*
X10764D01*
X10758D01*
Y7417D01*
X10759D01*
X10758D02*
X10752Y7411D01*
X10781D02*
X10787Y7417D01*
X10799D01*
X10804Y7411D01*
Y7388D01*
X10799Y7382D01*
X10787D01*
X10781Y7388D01*
Y7411D01*
X10627Y7592D02*
Y7615D01*
X10621Y7621D01*
X10610D01*
X10604Y7615D01*
Y7592D01*
X10610Y7586D01*
X10621D01*
X10627D02*
X10616Y7598D01*
X10621Y7586D02*
X10627Y7592D01*
X10639Y7586D02*
X10662D01*
X10639D02*
X10662Y7609D01*
Y7615D01*
X10656Y7621D01*
X10645D01*
X10639Y7615D01*
X10822Y7627D02*
Y7598D01*
X10828Y7592D01*
X10839D01*
X10845Y7598D01*
Y7627D01*
X10857Y7598D02*
X10863Y7592D01*
X10874D01*
X10880Y7598D01*
Y7621D01*
X10874Y7627D01*
X10863D01*
X10857Y7621D01*
Y7615D01*
X10863Y7609D01*
X10880D01*
X10949Y7758D02*
X10955Y7764D01*
X10949Y7758D02*
Y7747D01*
X10955Y7741D01*
X10978D01*
X10984Y7747D01*
Y7758D01*
X10978Y7764D01*
X10984Y7776D02*
Y7799D01*
Y7776D02*
X10961Y7799D01*
X10955D01*
X10949Y7793D01*
Y7782D01*
X10955Y7776D01*
X10949Y7811D02*
Y7834D01*
X10955D01*
X10978Y7811D01*
X10984D01*
X10952Y7889D02*
X10958Y7895D01*
X10952Y7889D02*
Y7878D01*
X10958Y7872D01*
X10981D01*
X10987Y7878D01*
Y7889D01*
X10981Y7895D01*
X10987Y7924D02*
X10952D01*
X10970Y7907D01*
Y7930D01*
X10840Y7999D02*
X10834Y7993D01*
Y7982D01*
X10840Y7976D01*
X10863D01*
X10869Y7982D01*
Y7993D01*
X10863Y7999D01*
X10840Y8011D02*
X10834Y8017D01*
Y8028D01*
X10840Y8034D01*
X10846D01*
X10852Y8028D01*
X10857Y8034D01*
X10863D01*
X10869Y8028D01*
Y8017D01*
X10863Y8011D01*
X10857D01*
X10852Y8017D01*
X10846Y8011D01*
X10840D01*
X10852Y8017D02*
Y8028D01*
X10740Y7784D02*
X10734Y7778D01*
Y7767D01*
X10740Y7761D01*
X10763D01*
X10769Y7767D01*
Y7778D01*
X10763Y7784D01*
Y7796D02*
X10769Y7802D01*
Y7813D01*
X10763Y7819D01*
X10740D01*
X10734Y7813D01*
Y7802D01*
X10740Y7796D01*
X10746D01*
X10752Y7802D01*
Y7819D01*
X10814Y8212D02*
Y8241D01*
Y8212D02*
X10820Y8206D01*
X10831D01*
X10837Y8212D01*
Y8241D01*
X10849Y8206D02*
X10861D01*
X10855D01*
Y8241D01*
X10856D01*
X10855D02*
X10849Y8235D01*
X10781Y8016D02*
X10787Y8010D01*
X10781Y8016D02*
X10770D01*
X10764Y8010D01*
Y7987D01*
X10770Y7981D01*
X10781D01*
X10787Y7987D01*
X10799Y8010D02*
X10805Y8016D01*
X10816D01*
X10822Y8010D01*
Y8004D01*
X10823D01*
X10822D02*
X10823D01*
X10822D02*
X10823D01*
X10822D02*
X10816Y7998D01*
X10811D01*
X10816D01*
X10822Y7993D01*
Y7987D01*
X10816Y7981D01*
X10805D01*
X10799Y7987D01*
X10657Y8232D02*
X10622D01*
Y8249D01*
X10628Y8255D01*
X10640D01*
X10645Y8249D01*
Y8232D01*
Y8244D02*
X10657Y8255D01*
Y8267D02*
Y8290D01*
Y8267D02*
X10634Y8290D01*
X10628D01*
X10622Y8284D01*
Y8273D01*
X10628Y8267D01*
Y8302D02*
X10622Y8308D01*
Y8319D01*
X10628Y8325D01*
X10651D01*
X10657Y8319D01*
Y8308D01*
X10651Y8302D01*
X10628D01*
X10582Y8215D02*
Y8192D01*
Y8215D02*
X10576Y8221D01*
X10565D01*
X10559Y8215D01*
Y8192D01*
X10565Y8186D01*
X10576D01*
X10582D02*
X10571Y8198D01*
X10576Y8186D02*
X10582Y8192D01*
X10594Y8186D02*
X10606D01*
X10600D01*
Y8221D01*
X10601D01*
X10600D02*
X10594Y8215D01*
X10525Y8259D02*
X10519Y8253D01*
Y8242D01*
X10525Y8236D01*
X10548D01*
X10554Y8242D01*
Y8253D01*
X10548Y8259D01*
X10554Y8271D02*
Y8294D01*
Y8271D02*
X10531Y8294D01*
X10525D01*
X10519Y8288D01*
Y8277D01*
X10525Y8271D01*
Y8306D02*
X10519Y8312D01*
Y8323D01*
X10525Y8329D01*
X10531D01*
X10537Y8323D01*
X10542Y8329D01*
X10548D01*
X10554Y8323D01*
Y8312D01*
X10548Y8306D01*
X10542D01*
X10537Y8312D01*
X10531Y8306D01*
X10525D01*
X10537Y8312D02*
Y8323D01*
X10324Y8287D02*
X10318Y8281D01*
Y8270D01*
X10324Y8264D01*
X10347D01*
X10353Y8270D01*
Y8281D01*
X10347Y8287D01*
X10353Y8299D02*
Y8322D01*
Y8299D02*
X10330Y8322D01*
X10324D01*
X10318Y8316D01*
Y8305D01*
X10324Y8299D01*
X10257Y8227D02*
X10222D01*
Y8244D01*
X10228Y8250D01*
X10240D01*
X10245Y8244D01*
Y8227D01*
Y8239D02*
X10257Y8250D01*
Y8262D02*
Y8274D01*
Y8268D01*
X10222D01*
X10223D01*
X10222D02*
X10228Y8262D01*
X9798Y7835D02*
Y7800D01*
Y7835D02*
X9815D01*
X9821Y7829D01*
Y7817D01*
X9815Y7812D01*
X9798D01*
X9810D02*
X9821Y7800D01*
X9833D02*
X9856D01*
X9833D02*
X9856Y7823D01*
Y7829D01*
X9850Y7835D01*
X9839D01*
X9833Y7829D01*
X9868Y7835D02*
X9891D01*
X9868D02*
Y7817D01*
X9880Y7823D01*
X9885D01*
X9891Y7817D01*
Y7806D01*
X9885Y7800D01*
X9874D01*
X9868Y7806D01*
X9769Y7761D02*
Y7726D01*
Y7761D02*
X9786D01*
X9792Y7755D01*
Y7743D01*
X9786Y7738D01*
X9769D01*
X9781D02*
X9792Y7726D01*
X9804Y7732D02*
X9810Y7726D01*
X9821D01*
X9827Y7732D01*
Y7755D01*
X9821Y7761D01*
X9810D01*
X9804Y7755D01*
Y7749D01*
X9810Y7743D01*
X9827D01*
X10042Y7672D02*
X10077D01*
X10042D02*
Y7689D01*
X10048Y7695D01*
X10060D01*
X10065Y7689D01*
Y7672D01*
Y7684D02*
X10077Y7695D01*
X10048Y7707D02*
X10042Y7713D01*
Y7724D01*
X10048Y7730D01*
X10054D01*
X10060Y7724D01*
X10065Y7730D01*
X10071D01*
X10077Y7724D01*
Y7713D01*
X10071Y7707D01*
X10065D01*
X10060Y7713D01*
X10054Y7707D01*
X10048D01*
X10060Y7713D02*
Y7724D01*
X10054Y7587D02*
X10060Y7581D01*
X10054Y7587D02*
X10043D01*
X10037Y7581D01*
Y7558D01*
X10043Y7552D01*
X10054D01*
X10060Y7558D01*
X10072Y7552D02*
X10095D01*
X10072D02*
X10095Y7575D01*
Y7581D01*
X10089Y7587D01*
X10078D01*
X10072Y7581D01*
X10124Y7587D02*
Y7552D01*
X10107Y7569D02*
X10124Y7587D01*
X10130Y7569D02*
X10107D01*
X10479Y7407D02*
X10485Y7401D01*
X10479Y7407D02*
X10468D01*
X10462Y7401D01*
Y7378D01*
X10468Y7372D01*
X10479D01*
X10485Y7378D01*
X10497Y7372D02*
X10509D01*
X10503D01*
Y7407D01*
X10504D01*
X10503D02*
X10497Y7401D01*
X10526Y7372D02*
X10538D01*
X10532D01*
Y7407D01*
X10533D01*
X10532D02*
X10526Y7401D01*
X10484Y7636D02*
Y7671D01*
Y7636D02*
X10507D01*
X10519D02*
X10531D01*
X10525D01*
Y7671D01*
X10526D01*
X10525D02*
X10519Y7665D01*
X10417Y8028D02*
Y8057D01*
Y8028D02*
X10423Y8022D01*
X10434D01*
X10440Y8028D01*
Y8057D01*
X10452Y8022D02*
X10475D01*
X10452D02*
X10475Y8045D01*
Y8051D01*
X10469Y8057D01*
X10458D01*
X10452Y8051D01*
X10327Y7937D02*
Y7902D01*
Y7937D02*
X10344D01*
X10350Y7931D01*
Y7919D01*
X10344Y7914D01*
X10327D01*
X10339D02*
X10350Y7902D01*
X10362D02*
X10385D01*
X10362D02*
X10385Y7925D01*
Y7931D01*
X10379Y7937D01*
X10368D01*
X10362Y7931D01*
X10157Y7922D02*
Y7887D01*
Y7922D02*
X10174D01*
X10180Y7916D01*
Y7904D01*
X10174Y7899D01*
X10157D01*
X10169D02*
X10180Y7887D01*
X10192Y7916D02*
X10198Y7922D01*
X10209D01*
X10215Y7916D01*
Y7910D01*
X10216D01*
X10215D02*
X10216D01*
X10215D02*
X10216D01*
X10215D02*
X10209Y7904D01*
X10204D01*
X10209D01*
X10215Y7899D01*
Y7893D01*
X10209Y7887D01*
X10198D01*
X10192Y7893D01*
X9744Y8096D02*
Y8131D01*
X9761D01*
X9767Y8125D01*
Y8113D01*
X9761Y8108D01*
X9744D01*
X9756D02*
X9767Y8096D01*
X9779D02*
X9791D01*
X9785D01*
Y8131D01*
X9786D01*
X9785D02*
X9779Y8125D01*
X9808Y8102D02*
X9814Y8096D01*
X9826D01*
X9831Y8102D01*
Y8125D01*
X9826Y8131D01*
X9814D01*
X9808Y8125D01*
Y8119D01*
X9814Y8113D01*
X9831D01*
X9744Y8161D02*
Y8196D01*
X9761D01*
X9767Y8190D01*
Y8178D01*
X9761Y8173D01*
X9744D01*
X9756D02*
X9767Y8161D01*
X9779D02*
X9791D01*
X9785D01*
Y8196D01*
X9786D01*
X9785D02*
X9779Y8190D01*
X9808D02*
X9814Y8196D01*
X9826D01*
X9831Y8190D01*
Y8184D01*
X9826Y8178D01*
X9831Y8173D01*
Y8167D01*
X9826Y8161D01*
X9814D01*
X9808Y8167D01*
Y8173D01*
X9814Y8178D01*
X9808Y8184D01*
Y8190D01*
X9814Y8178D02*
X9826D01*
X9639Y8161D02*
Y8196D01*
X9656D01*
X9662Y8190D01*
Y8178D01*
X9656Y8173D01*
X9639D01*
X9651D02*
X9662Y8161D01*
X9674D02*
X9686D01*
X9680D01*
Y8196D01*
X9681D01*
X9680D02*
X9674Y8190D01*
X9703Y8196D02*
X9726D01*
Y8190D01*
X9703Y8167D01*
Y8161D01*
X9657Y8125D02*
X9651Y8131D01*
X9640D01*
X9634Y8125D01*
Y8102D01*
X9640Y8096D01*
X9651D01*
X9657Y8102D01*
X9669Y8096D02*
X9692D01*
X9669D02*
X9692Y8119D01*
Y8125D01*
X9686Y8131D01*
X9675D01*
X9669Y8125D01*
X9704Y8096D02*
X9727D01*
X9704D02*
X9727Y8119D01*
Y8125D01*
X9721Y8131D01*
X9710D01*
X9704Y8125D01*
X9792Y7972D02*
Y7943D01*
X9798Y7937D01*
X9809D01*
X9815Y7943D01*
Y7972D01*
X9827D02*
X9850D01*
Y7966D01*
X9827Y7943D01*
Y7937D01*
X9585Y8124D02*
X9579Y8118D01*
Y8107D01*
X9585Y8101D01*
X9608D01*
X9614Y8107D01*
Y8118D01*
X9608Y8124D01*
X9614Y8136D02*
Y8159D01*
Y8136D02*
X9591Y8159D01*
X9585D01*
X9579Y8153D01*
Y8142D01*
X9585Y8136D01*
Y8183D02*
X9579Y8194D01*
X9585Y8183D02*
X9597Y8171D01*
X9608D01*
X9614Y8177D01*
Y8188D01*
X9608Y8194D01*
X9602D01*
X9597Y8188D01*
Y8171D01*
X9597Y7692D02*
Y7657D01*
Y7692D02*
X9614D01*
X9620Y7686D01*
Y7674D01*
X9614Y7669D01*
X9597D01*
X9609D02*
X9620Y7657D01*
X9632D02*
X9655D01*
X9632D02*
X9655Y7680D01*
Y7686D01*
X9649Y7692D01*
X9638D01*
X9632Y7686D01*
X9667Y7657D02*
X9679D01*
X9673D01*
Y7692D01*
X9674D01*
X9673D02*
X9667Y7686D01*
X9097Y7437D02*
Y7408D01*
X9103Y7402D01*
X9114D01*
X9120Y7408D01*
Y7437D01*
X9132Y7431D02*
X9138Y7437D01*
X9149D01*
X9155Y7431D01*
Y7425D01*
X9149Y7419D01*
X9155Y7414D01*
Y7408D01*
X9149Y7402D01*
X9138D01*
X9132Y7408D01*
Y7414D01*
X9138Y7419D01*
X9132Y7425D01*
Y7431D01*
X9138Y7419D02*
X9149D01*
X8859Y7611D02*
Y7646D01*
X8876D01*
X8882Y7640D01*
Y7628D01*
X8876Y7623D01*
X8859D01*
X8871D02*
X8882Y7611D01*
X8894D02*
X8917D01*
X8894D02*
X8917Y7634D01*
Y7640D01*
X8911Y7646D01*
X8900D01*
X8894Y7640D01*
X8929D02*
X8935Y7646D01*
X8946D01*
X8952Y7640D01*
Y7634D01*
X8953D01*
X8952D02*
X8953D01*
X8952D02*
X8953D01*
X8952D02*
X8946Y7628D01*
X8941D01*
X8946D01*
X8952Y7623D01*
Y7617D01*
X8946Y7611D01*
X8935D01*
X8929Y7617D01*
X9224Y7571D02*
X9259D01*
X9224D02*
Y7588D01*
X9230Y7594D01*
X9242D01*
X9247Y7588D01*
Y7571D01*
Y7583D02*
X9259Y7594D01*
Y7606D02*
Y7629D01*
Y7606D02*
X9236Y7629D01*
X9230D01*
X9224Y7623D01*
Y7612D01*
X9230Y7606D01*
X9259Y7641D02*
Y7664D01*
Y7641D02*
X9236Y7664D01*
X9230D01*
X9224Y7658D01*
Y7647D01*
X9230Y7641D01*
X9235Y7906D02*
X9229Y7912D01*
X9218D01*
X9212Y7906D01*
Y7883D01*
X9218Y7877D01*
X9229D01*
X9235Y7883D01*
X9247Y7877D02*
X9259D01*
X9253D01*
Y7912D01*
X9254D01*
X9253D02*
X9247Y7906D01*
X9276Y7912D02*
X9299D01*
Y7906D01*
X9276Y7883D01*
Y7877D01*
X9355Y7784D02*
X9361Y7778D01*
X9355Y7784D02*
X9343D01*
X9337Y7778D01*
Y7755D01*
X9343Y7749D01*
X9355D01*
X9361Y7755D01*
X9372Y7749D02*
X9384D01*
X9378D01*
Y7784D01*
X9379D01*
X9378D02*
X9372Y7778D01*
X9413D02*
X9425Y7784D01*
X9413Y7778D02*
X9402Y7767D01*
Y7755D01*
X9407Y7749D01*
X9419D01*
X9425Y7755D01*
Y7761D01*
X9419Y7767D01*
X9402D01*
X9397Y8085D02*
X9391Y8091D01*
X9380D01*
X9374Y8085D01*
Y8062D01*
X9380Y8056D01*
X9391D01*
X9397Y8062D01*
X9409Y8056D02*
X9432D01*
X9409D02*
X9432Y8079D01*
Y8085D01*
X9426Y8091D01*
X9415D01*
X9409Y8085D01*
X9444Y8091D02*
X9467D01*
X9444D02*
Y8073D01*
X9456Y8079D01*
X9461D01*
X9467Y8073D01*
Y8062D01*
X9461Y8056D01*
X9450D01*
X9444Y8062D01*
X9101Y8081D02*
Y8116D01*
X9118D01*
X9124Y8110D01*
Y8098D01*
X9118Y8093D01*
X9101D01*
X9113D02*
X9124Y8081D01*
X9136D02*
X9148D01*
X9142D01*
Y8116D01*
X9143D01*
X9142D02*
X9136Y8110D01*
X9165Y8081D02*
X9177D01*
X9171D01*
Y8116D01*
X9172D01*
X9171D02*
X9165Y8110D01*
X8871Y8016D02*
Y7981D01*
Y8016D02*
X8888D01*
X8894Y8010D01*
Y7998D01*
X8888Y7993D01*
X8871D01*
X8883D02*
X8894Y7981D01*
X8906D02*
X8918D01*
X8912D01*
Y8016D01*
X8913D01*
X8912D02*
X8906Y8010D01*
X8935D02*
X8941Y8016D01*
X8953D01*
X8958Y8010D01*
Y8004D01*
X8959D01*
X8958D02*
X8959D01*
X8958D02*
X8959D01*
X8958D02*
X8953Y7998D01*
X8947D01*
X8953D01*
X8958Y7993D01*
Y7987D01*
X8953Y7981D01*
X8941D01*
X8935Y7987D01*
X8684Y8250D02*
X8678Y8256D01*
X8667D01*
X8661Y8250D01*
Y8227D01*
X8667Y8221D01*
X8678D01*
X8684Y8227D01*
X8696Y8221D02*
X8708D01*
X8702D01*
Y8256D01*
X8703D01*
X8702D02*
X8696Y8250D01*
X8686Y7996D02*
Y7961D01*
Y7996D02*
X8703D01*
X8709Y7990D01*
Y7978D01*
X8703Y7973D01*
X8686D01*
X8698D02*
X8709Y7961D01*
X8721D02*
X8733D01*
X8727D01*
Y7996D01*
X8728D01*
X8727D02*
X8721Y7990D01*
X8750Y7961D02*
X8773D01*
X8750D02*
X8773Y7984D01*
Y7990D01*
X8768Y7996D01*
X8756D01*
X8750Y7990D01*
X8884Y7436D02*
Y7407D01*
X8890Y7401D01*
X8901D01*
X8907Y7407D01*
Y7436D01*
X8919Y7401D02*
X8931D01*
X8925D01*
Y7436D01*
X8926D01*
X8925D02*
X8919Y7430D01*
X8948Y7401D02*
X8971D01*
X8948D02*
X8971Y7424D01*
Y7430D01*
X8966Y7436D01*
X8954D01*
X8948Y7430D01*
D19*
X10849Y8681D02*
X10974D01*
X10934Y7791D02*
X10909D01*
X9879Y7736D02*
X9839D01*
X9859Y7391D02*
X9789D01*
X10359Y8211D02*
Y8251D01*
X10494Y8216D02*
X10509Y8231D01*
X10974Y8681D02*
X10979Y8676D01*
D20*
X10254Y7659D02*
Y7651D01*
Y7659D02*
X10262D01*
Y7651D01*
X10254D01*
X10771Y8031D02*
Y8040D01*
X10780D01*
Y8031D01*
X10771D01*
X10959Y7996D02*
X10992D01*
X10976Y8013D02*
Y7979D01*
X10837Y8285D02*
Y8530D01*
X8837D02*
Y8285D01*
X10817D02*
X10837D01*
Y8530D02*
X10817D01*
X8857D02*
X8837D01*
Y8285D02*
X8857D01*
X10884Y8026D02*
X11178Y8026D01*
X10884Y8026D02*
Y8258D01*
X11177D01*
X11178Y7842D02*
Y7730D01*
X11217Y7731D02*
Y7842D01*
X11209D02*
Y7730D01*
X11202D02*
Y7841D01*
X11195D02*
Y7732D01*
X11187D02*
Y7842D01*
X11170D02*
Y7730D01*
X11162Y7727D02*
Y7842D01*
X11154Y7845D02*
Y7727D01*
X11227D02*
Y7845D01*
X11139Y7916D02*
Y7963D01*
Y7653D02*
Y7609D01*
X11002Y7915D02*
Y7963D01*
Y7653D02*
Y7609D01*
X11209Y7842D02*
X11217D01*
X11209Y7730D02*
X11202D01*
Y7841D02*
X11195D01*
Y7732D02*
X11187D01*
Y7842D02*
X11178D01*
Y7730D02*
X11170D01*
Y7842D02*
X11162D01*
Y7727D02*
X11154D01*
Y7845D02*
X11227D01*
Y7727D02*
X11154D01*
X11139Y7963D02*
X11002D01*
Y7609D02*
X11139D01*
X10844Y8088D02*
Y8159D01*
X10766D02*
Y8088D01*
X10706Y7732D02*
Y7682D01*
X10411D02*
Y7732D01*
X10706Y7897D02*
Y7952D01*
X10411D02*
Y7897D01*
Y7682D02*
X10706D01*
Y7952D02*
X10411D01*
X10021Y8064D02*
X10021Y8061D01*
X10020Y8058D01*
X10019Y8055D01*
X10018Y8052D01*
X10016Y8049D01*
X10014Y8047D01*
X10011Y8045D01*
X10008Y8043D01*
X10006Y8041D01*
X10002Y8040D01*
X9999Y8040D01*
X9996Y8039D01*
X9993Y8040D01*
X9989Y8040D01*
X9986Y8041D01*
X9983Y8043D01*
X9981Y8045D01*
X9978Y8047D01*
X9976Y8049D01*
X9974Y8052D01*
X9973Y8055D01*
X9972Y8058D01*
X9971Y8061D01*
X9971Y8064D01*
X10046D02*
Y7864D01*
X9946D02*
Y8064D01*
X9971D01*
X10021D02*
X10046D01*
Y7864D02*
X9946D01*
X8812Y7732D02*
X8772Y7772D01*
X8812Y7812D01*
X8772D02*
Y7732D01*
X8732D01*
D21*
X10959Y8646D02*
Y8666D01*
X10869Y8611D02*
Y8606D01*
X10959Y8571D02*
Y8551D01*
Y8666D02*
X10914D01*
Y8551D02*
X10959D01*
X10979D02*
Y8596D01*
X11049D02*
Y8551D01*
Y8626D02*
Y8676D01*
X10979D02*
Y8626D01*
Y8551D02*
X11049D01*
Y8676D02*
X10979D01*
X11139D02*
Y8631D01*
X11069D02*
Y8676D01*
Y8601D02*
Y8551D01*
X11139D02*
Y8601D01*
Y8676D02*
X11069D01*
Y8551D02*
X11139D01*
X11112Y8392D02*
Y8317D01*
X11202D02*
Y8392D01*
Y8432D02*
Y8507D01*
X11112D02*
Y8432D01*
Y8317D02*
X11202D01*
Y8507D02*
X11112D01*
X10537Y8057D02*
Y7987D01*
X10662D02*
Y8057D01*
X10582D02*
X10537D01*
Y7987D02*
X10582D01*
X10612D02*
X10662D01*
Y8057D02*
X10612D01*
X10282Y7717D02*
Y7642D01*
X10382D02*
Y7717D01*
Y7802D02*
Y7877D01*
X10282D02*
Y7802D01*
Y7642D02*
X10382D01*
Y7877D02*
X10282D01*
X10137Y7447D02*
Y7387D01*
X10020D02*
Y7447D01*
X10092Y7387D02*
X10137D01*
Y7447D02*
X10092D01*
X10062D02*
X10020D01*
Y7387D02*
X10062D01*
X9862D02*
Y7447D01*
X9979D02*
Y7387D01*
X9907Y7447D02*
X9862D01*
Y7387D02*
X9907D01*
X9937D02*
X9979D01*
Y7447D02*
X9937D01*
X9754Y7491D02*
Y7536D01*
X9824D02*
Y7491D01*
Y7566D02*
Y7616D01*
X9754D02*
Y7566D01*
Y7491D02*
X9824D01*
Y7616D02*
X9754D01*
X9819Y8586D02*
Y8686D01*
X9584D02*
Y8586D01*
X9744Y8686D02*
X9819D01*
Y8586D02*
X9744D01*
X9659D02*
X9584D01*
Y8686D02*
X9659D01*
X10197Y8682D02*
Y8612D01*
X10322D02*
Y8682D01*
X10242D02*
X10197D01*
Y8612D02*
X10242D01*
X10272D02*
X10322D01*
Y8682D02*
X10272D01*
X10712Y8687D02*
Y8587D01*
X10477D02*
Y8687D01*
X10637D02*
X10712D01*
Y8587D02*
X10637D01*
X10552D02*
X10477D01*
Y8687D02*
X10552D01*
X10352Y8682D02*
Y8612D01*
X10477D02*
Y8682D01*
X10397D02*
X10352D01*
Y8612D02*
X10397D01*
X10427D02*
X10477D01*
Y8682D02*
X10427D01*
X10692Y7502D02*
Y7432D01*
X10817D02*
Y7502D01*
X10737D02*
X10692D01*
Y7432D02*
X10737D01*
X10767D02*
X10817D01*
Y7502D02*
X10767D01*
X10697Y7612D02*
Y7632D01*
X10787Y7577D02*
Y7572D01*
X10697Y7537D02*
Y7517D01*
Y7632D02*
X10742D01*
Y7517D02*
X10697D01*
X10885Y7692D02*
Y7707D01*
X10847Y7647D02*
X10817D01*
Y7752D02*
X10847D01*
X10785Y7766D02*
Y7836D01*
X10910D02*
Y7766D01*
X10830Y7836D02*
X10785D01*
Y7766D02*
X10830D01*
X10860D02*
X10910D01*
Y7836D02*
X10860D01*
X10872Y7837D02*
Y7882D01*
X10942D02*
Y7837D01*
Y7912D02*
Y7962D01*
X10872D02*
Y7912D01*
Y7837D02*
X10942D01*
Y7962D02*
X10872D01*
X10871Y7961D02*
Y7916D01*
X10801D02*
Y7961D01*
Y7886D02*
Y7836D01*
X10871D02*
Y7886D01*
Y7961D02*
X10801D01*
Y7836D02*
X10871D01*
X10801Y7916D02*
Y7961D01*
X10731D02*
Y7916D01*
Y7886D02*
Y7836D01*
X10801D02*
Y7886D01*
Y7961D02*
X10731D01*
Y7836D02*
X10801D01*
X10681Y7976D02*
Y8021D01*
X10751D02*
Y7976D01*
Y8051D02*
Y8101D01*
X10681D02*
Y8051D01*
Y7976D02*
X10751D01*
Y8101D02*
X10681D01*
X10627Y8147D02*
Y8217D01*
X10752D02*
Y8147D01*
X10672Y8217D02*
X10627D01*
Y8147D02*
X10672D01*
X10702D02*
X10752D01*
Y8217D02*
X10702D01*
X10622Y8077D02*
Y8057D01*
X10532Y8112D02*
Y8117D01*
X10622Y8152D02*
Y8172D01*
Y8057D02*
X10577D01*
Y8172D02*
X10622D01*
X10427Y8132D02*
Y8087D01*
X10497D02*
Y8132D01*
Y8162D02*
Y8212D01*
X10427D02*
Y8162D01*
Y8087D02*
X10497D01*
Y8212D02*
X10427D01*
X10312Y8132D02*
Y8087D01*
X10382D02*
Y8132D01*
Y8162D02*
Y8212D01*
X10312D02*
Y8162D01*
Y8087D02*
X10382D01*
Y8212D02*
X10312D01*
X10222Y8097D02*
Y8022D01*
X10312D02*
Y8097D01*
Y8137D02*
Y8212D01*
X10222D02*
Y8137D01*
Y8022D02*
X10312D01*
Y8212D02*
X10222D01*
X9904Y7836D02*
Y7766D01*
X10029D02*
Y7836D01*
X9949D02*
X9904D01*
Y7766D02*
X9949D01*
X9979D02*
X10029D01*
Y7836D02*
X9979D01*
X9947Y7762D02*
Y7717D01*
X9877D02*
Y7762D01*
Y7687D02*
Y7637D01*
X9947D02*
Y7687D01*
Y7762D02*
X9877D01*
Y7637D02*
X9947D01*
X9962D02*
Y7682D01*
X10032D02*
Y7637D01*
Y7712D02*
Y7762D01*
X9962D02*
Y7712D01*
Y7637D02*
X10032D01*
Y7762D02*
X9962D01*
X9897Y7622D02*
Y7552D01*
X10022D02*
Y7622D01*
X9947Y7552D02*
X9897D01*
Y7622D02*
X9947D01*
X9977D02*
X10022D01*
Y7552D02*
X9977D01*
X10447Y7567D02*
Y7642D01*
X10347D02*
Y7567D01*
Y7482D02*
Y7407D01*
X10447D02*
Y7482D01*
Y7642D02*
X10347D01*
Y7407D02*
X10447D01*
X10402Y7992D02*
Y8022D01*
X10322D02*
Y7992D01*
X10355Y8036D02*
X10370D01*
X10237Y7942D02*
Y7897D01*
X10307D02*
Y7942D01*
Y7972D02*
Y8022D01*
X10237D02*
Y7972D01*
Y7897D02*
X10307D01*
Y8022D02*
X10237D01*
X10221Y8016D02*
Y8061D01*
X10151D02*
Y8016D01*
Y7986D02*
Y7936D01*
X10221D02*
Y7986D01*
Y8061D02*
X10151D01*
Y7936D02*
X10221D01*
X10186Y8086D02*
Y8156D01*
X10061D02*
Y8086D01*
X10141D02*
X10186D01*
Y8156D02*
X10141D01*
X10111D02*
X10061D01*
Y8086D02*
X10111D01*
X10186Y8156D02*
Y8226D01*
X10061D02*
Y8156D01*
X10141D02*
X10186D01*
Y8226D02*
X10141D01*
X10111D02*
X10061D01*
Y8156D02*
X10111D01*
X10056D02*
Y8226D01*
X9931D02*
Y8156D01*
X10011D02*
X10056D01*
Y8226D02*
X10011D01*
X9981D02*
X9931D01*
Y8156D02*
X9981D01*
X9931D02*
Y8086D01*
X10056D02*
Y8156D01*
X9976D02*
X9931D01*
Y8086D02*
X9976D01*
X10006D02*
X10056D01*
Y8156D02*
X10006D01*
X9846Y8131D02*
Y8086D01*
X9916D02*
Y8131D01*
Y8161D02*
Y8211D01*
X9846D02*
Y8161D01*
Y8086D02*
X9916D01*
Y8211D02*
X9846D01*
X9698Y7706D02*
Y7636D01*
X9823D02*
Y7706D01*
X9743D02*
X9698D01*
Y7636D02*
X9743D01*
X9773D02*
X9823D01*
Y7706D02*
X9773D01*
X9098Y7500D02*
Y7485D01*
X9112Y7532D02*
X9142D01*
Y7452D02*
X9112D01*
X8967Y7587D02*
Y7657D01*
X9092D02*
Y7587D01*
X9017D02*
X8967D01*
Y7657D02*
X9017D01*
X9047D02*
X9092D01*
Y7587D02*
X9047D01*
X9127Y7567D02*
Y7612D01*
X9197D02*
Y7567D01*
Y7642D02*
Y7692D01*
X9127D02*
Y7642D01*
Y7567D02*
X9197D01*
Y7692D02*
X9127D01*
X9309Y7802D02*
Y7862D01*
X9192D02*
Y7802D01*
X9267Y7862D02*
X9309D01*
Y7802D02*
X9267D01*
X9237D02*
X9192D01*
Y7862D02*
X9237D01*
X9309Y7802D02*
Y7742D01*
X9192D02*
Y7802D01*
X9267D02*
X9309D01*
Y7742D02*
X9267D01*
X9237D02*
X9192D01*
Y7802D02*
X9237D01*
X9286Y8031D02*
Y8076D01*
X9356D02*
Y8031D01*
Y8106D02*
Y8156D01*
X9286D02*
Y8106D01*
Y8031D02*
X9356D01*
Y8156D02*
X9286D01*
X9191Y8076D02*
Y8031D01*
X9261D02*
Y8076D01*
Y8106D02*
Y8156D01*
X9191D02*
Y8106D01*
Y8031D02*
X9261D01*
Y8156D02*
X9191D01*
X8881Y8081D02*
Y8036D01*
X8951D02*
Y8081D01*
Y8111D02*
Y8161D01*
X8881D02*
Y8111D01*
Y8036D02*
X8951D01*
Y8161D02*
X8881D01*
X8721D02*
Y8231D01*
X8846D02*
Y8161D01*
X8766Y8231D02*
X8721D01*
Y8161D02*
X8766D01*
X8796D02*
X8846D01*
Y8231D02*
X8796D01*
X8696Y8056D02*
Y8011D01*
X8766D02*
Y8056D01*
Y8086D02*
Y8136D01*
X8696D02*
Y8086D01*
Y8011D02*
X8766D01*
Y8136D02*
X8696D01*
X8917Y7517D02*
Y7502D01*
X8937Y7562D02*
X8967D01*
Y7457D02*
X8937D01*
D02*
M02*
