M71
M48
T1F00S00C0.015
T2F00S00C0.028
T3F00S00C0.031
T4F00S00C0.035
T5F00S00C0.039
T6F00S00C0.047
T7F00S00C0.050
T8F00S00C0.115
T9F00S00C0.138
%
T01
X01868Y00136
X01898
X01928
X01973Y-00059
X0215Y0005
X02243Y00236
X0218Y00395
X02032Y0044
X01933Y00461
X02328Y00441
X025Y0045
X0247Y00315
X0169Y0027
X01516Y00276
X01483
X0145
Y00208
X01484
X01515Y00234
X01513Y00116
X01468
X01433
X01348Y00106
X0136Y00255
X0133Y00365
X01493Y00366
X01528
X01563
X01565Y00335
X01178Y00351
X01092Y00349
X01108Y00396
X01078Y00416
X01048Y004
X01013
X00873Y00436
X00823
X00773
Y00346
X00823
X00873
X0087Y00185
X00828Y00136
X00665Y00135
X0069Y00165
X00713Y00196
X00608Y00241
X00615Y00305
X0067Y0032
X00493Y00361
X00433Y00426
X00353Y00406
X00327Y00345
X00357Y0027
Y00215
X00407Y0019
X00432Y00245
X00605Y0012
Y00055
Y-00025
X00665
X0072
X0078
X00518Y-00009
X00358Y-00014
Y-00079
X0031Y-0009
X00258Y00046
X00202Y00375
X01128Y00281
X01183Y00086
X01023
X01093Y-00084
X01138
X0157Y-0009
X01703Y-00094
X00145Y-0009
X0014Y00145
X-001
Y00385
Y00585
X-00063Y0066
X00007Y00695
X00052Y0066
X00117Y00635
X00127Y0054
X00128Y00756
X-001Y00755
X00223Y00711
X00298Y00671
Y00591
X00383Y00676
X00418Y00651
X00503
X00533Y00676
X00583Y00711
X00582Y0062
X00717Y00614
X00693Y00531
X00658Y00506
X00492Y0048
X00457Y00515
X00443Y00951
X00393Y00911
X00308
X00343Y00991
X00443Y01096
X00493Y01126
X00543Y01016
X00643Y01041
X00743Y01066
X00693Y01126
X00843
X00943Y01016
X00993Y00906
X01043
X01093
X01143Y0089
X01193Y00904
X01243Y01041
X01193Y01126
X0116Y01095
X01388Y01106
X01443Y01096
X01493Y01126
X01643
X01593Y00906
X01543
X01493
X01443
X01363Y00691
X01328Y00581
X0123Y0062
X01228Y00711
X01143Y00756
X01043
X01033Y00711
X01043Y00531
X01258Y00506
X01498Y00616
X01698Y00591
Y00656
Y00711
X01645Y0074
X01618Y00506
X00803Y00711
X00843Y00781
X00743
X00643
X00778Y00906
X00813
X00185Y00905
X0019Y01155
X01893Y01126
X02058
X02038Y01096
X0211Y01095
Y00905
X02143Y00801
X02175Y0066
X02163Y00626
X0213Y0064
X02095
X02112Y00622
X02095Y00605
X0213
X02175Y00585
X02052Y00605
Y00645
X02015Y00625
X01978Y00611
X0191Y00655
X0184Y0071
X01743Y00751
Y00906
X01793
X01893
X01948
X024Y01
X0245Y0105
X0237Y0112
X0247Y0074
X0251Y0075
Y0071
X02338Y00501
X02243
T02
X02243Y00601
Y0068
T03
X01263Y01115
X01342
T04
X02377Y00151
X02377Y00419
T05
X00125Y00438
Y00588
T06
X00243Y00906
X02043Y00906
T07
X01252Y-00013
X01352
X01452
X01552
T08
X02284Y-0
X00001
Y00905
X02284
T09
X01867Y-00001
X0093Y-00002
M30
