*%FSLAX23Y23*%
*%MOIN*%
G01*
%ADD11C,0.000*%
%ADD12C,0.000*%
%ADD13C,0.000*%
%ADD14C,0.001*%
%ADD15C,0.002*%
%ADD16C,0.006*%
%ADD17C,0.007*%
%ADD18C,0.007*%
%ADD19C,0.008*%
%ADD20C,0.010*%
%ADD21C,0.012*%
%ADD22C,0.015*%
%ADD23C,0.015*%
%ADD24C,0.018*%
%ADD25C,0.020*%
%ADD26C,0.022*%
%ADD27C,0.024*%
%ADD28C,0.025*%
%ADD29C,0.028*%
%ADD30C,0.029*%
%ADD31C,0.031*%
%ADD32C,0.031*%
%ADD33C,0.035*%
%ADD34C,0.035*%
%ADD35C,0.039*%
%ADD36C,0.043*%
%ADD37C,0.045*%
%ADD38C,0.047*%
%ADD39C,0.048*%
%ADD40C,0.049*%
%ADD41C,0.050*%
%ADD42C,0.050*%
%ADD43C,0.051*%
%ADD44C,0.051*%
%ADD45C,0.054*%
%ADD46C,0.055*%
%ADD47C,0.055*%
%ADD48C,0.059*%
%ADD49C,0.059*%
%ADD50C,0.062*%
%ADD51C,0.066*%
%ADD52C,0.067*%
%ADD53C,0.070*%
%ADD54C,0.074*%
%ADD55C,0.115*%
%ADD56C,0.135*%
%ADD57C,0.138*%
%ADD58C,0.138*%
%ADD59C,0.158*%
%ADD60C,0.158*%
%ADD61C,0.190*%
%ADD62C,0.194*%
%ADD63C,0.236*%
%ADD64C,0.240*%
%ADD65R,0.011X0.030*%
%ADD66R,0.012X0.030*%
%ADD67R,0.014X0.033*%
%ADD68R,0.014X0.037*%
%ADD69R,0.015X0.034*%
%ADD70R,0.016X0.034*%
%ADD71R,0.018X0.037*%
%ADD72R,0.018X0.041*%
%ADD73R,0.020X0.025*%
%ADD74R,0.021X0.021*%
%ADD75R,0.024X0.029*%
%ADD76R,0.025X0.020*%
%ADD77R,0.029X0.024*%
%ADD78R,0.030X0.011*%
%ADD79R,0.030X0.030*%
%ADD80R,0.030X0.050*%
%ADD81R,0.031X0.031*%
%ADD82R,0.033X0.014*%
%ADD83R,0.034X0.015*%
%ADD84R,0.034X0.034*%
%ADD85R,0.034X0.054*%
%ADD86R,0.035X0.035*%
%ADD87R,0.037X0.014*%
%ADD88R,0.037X0.018*%
%ADD89R,0.039X0.014*%
%ADD90R,0.039X0.041*%
%ADD91R,0.040X0.050*%
%ADD92R,0.040X0.083*%
%ADD93R,0.041X0.018*%
%ADD94R,0.041X0.087*%
%ADD95R,0.043X0.018*%
%ADD96R,0.043X0.045*%
%ADD97R,0.044X0.054*%
%ADD98R,0.044X0.087*%
%ADD99R,0.045X0.091*%
%ADD100R,0.047X0.055*%
%ADD101R,0.048X0.024*%
%ADD102R,0.050X0.023*%
%ADD103R,0.050X0.030*%
%ADD104R,0.050X0.040*%
%ADD105R,0.050X0.060*%
%ADD106R,0.051X0.059*%
%ADD107R,0.052X0.028*%
%ADD108R,0.054X0.027*%
%ADD109R,0.054X0.034*%
%ADD110R,0.054X0.044*%
%ADD111R,0.054X0.064*%
%ADD112R,0.055X0.039*%
%ADD113R,0.057X0.012*%
%ADD114R,0.057X0.067*%
%ADD115R,0.059X0.043*%
%ADD116R,0.060X0.060*%
%ADD117R,0.061X0.024*%
%ADD118R,0.061X0.051*%
%ADD119R,0.061X0.016*%
%ADD120R,0.061X0.071*%
%ADD121R,0.063X0.039*%
%ADD122R,0.064X0.064*%
%ADD123R,0.065X0.028*%
%ADD124R,0.065X0.055*%
%ADD125R,0.067X0.043*%
%ADD126R,0.085X0.030*%
%ADD127R,0.085X0.085*%
%ADD128R,0.089X0.034*%
%ADD129R,0.094X0.030*%
%ADD130R,0.098X0.034*%
%ADD131R,0.104X0.104*%
%ADD132R,0.108X0.108*%
%ADD133R,0.116X0.138*%
%ADD134R,0.120X0.142*%
%ADD135R,0.169X0.169*%
%ADD136R,0.173X0.173*%
D11*
X10963Y8406D02*
X10993D01*
X10978Y8391D02*
Y8421D01*
X10963Y7501D02*
X10993D01*
X10978Y7486D02*
Y7516D01*
X10576Y7500D02*
X10546D01*
X10561Y7485D02*
Y7515D01*
X9639Y7499D02*
X9609D01*
X9624Y7484D02*
Y7514D01*
X8710Y8406D02*
X8680D01*
X8695Y8391D02*
Y8421D01*
X8680Y7501D02*
X8710D01*
X8695Y7486D02*
Y7516D01*
X11154Y8241D02*
X11174D01*
X11164Y8231D02*
Y8251D01*
X11194D02*
X11214D01*
X11204Y8241D02*
Y8261D01*
X11194Y8211D02*
X11214D01*
X11204Y8201D02*
Y8221D01*
X11154Y8551D02*
X11134D01*
X11144Y8541D02*
Y8561D01*
X11154Y7816D02*
X11174D01*
X11164Y7806D02*
Y7826D01*
X11184Y7951D02*
X11204D01*
X11194Y7941D02*
Y7961D01*
X11104Y8501D02*
X11084D01*
X11094Y8491D02*
Y8511D01*
X11074Y8621D02*
X11054D01*
X11064Y8611D02*
Y8631D01*
X11042Y8002D02*
X11022D01*
X11032Y7992D02*
Y8012D01*
Y7942D02*
X11012D01*
X11022Y7932D02*
Y7952D01*
X10814Y8596D02*
X10794D01*
X10804Y8586D02*
Y8606D01*
X10762Y8627D02*
X10742D01*
X10752Y8617D02*
Y8637D01*
X10794Y8406D02*
X10814D01*
X10804Y8396D02*
Y8416D01*
X10799Y8106D02*
X10779D01*
X10789Y8096D02*
Y8116D01*
X10814Y8106D02*
X10834D01*
X10824Y8096D02*
Y8116D01*
X10814Y8141D02*
X10834D01*
X10824Y8131D02*
Y8151D01*
X10799Y8141D02*
X10779D01*
X10789Y8131D02*
Y8151D01*
X10827Y8302D02*
X10847D01*
X10837Y8292D02*
Y8312D01*
X10927Y8002D02*
X10947D01*
X10937Y7992D02*
Y8012D01*
X10867Y8127D02*
X10847D01*
X10857Y8117D02*
Y8137D01*
X10859Y8086D02*
X10879D01*
X10869Y8076D02*
Y8096D01*
X10859Y8161D02*
X10879D01*
X10869Y8151D02*
Y8171D01*
X10854Y7551D02*
X10834D01*
X10844Y7541D02*
Y7561D01*
X10864Y7896D02*
X10884D01*
X10874Y7886D02*
Y7906D01*
X10927Y7737D02*
X10947D01*
X10937Y7727D02*
Y7747D01*
X10614Y8156D02*
X10594D01*
X10604Y8146D02*
Y8166D01*
X10722Y8597D02*
X10742D01*
X10732Y8587D02*
Y8607D01*
X10652Y8407D02*
X10632D01*
X10642Y8397D02*
Y8417D01*
X10662Y8112D02*
X10682D01*
X10672Y8102D02*
Y8122D01*
X10597Y8407D02*
X10577D01*
X10587Y8397D02*
Y8417D01*
X10577Y8627D02*
X10597D01*
X10587Y8617D02*
Y8637D01*
X10736Y8146D02*
X10756D01*
X10746Y8136D02*
Y8156D01*
X10736Y8106D02*
X10756D01*
X10746Y8096D02*
Y8116D01*
X10719Y8126D02*
X10699D01*
X10709Y8116D02*
Y8136D01*
X10637Y7962D02*
X10617D01*
X10627Y7952D02*
Y7972D01*
X10572Y7637D02*
X10552D01*
X10562Y7627D02*
Y7647D01*
X10582Y7637D02*
X10602D01*
X10592Y7627D02*
Y7647D01*
X10612Y7637D02*
X10632D01*
X10622Y7627D02*
Y7647D01*
X10657Y7442D02*
X10677D01*
X10667Y7432D02*
Y7452D01*
X10716Y7941D02*
X10736D01*
X10726Y7931D02*
Y7951D01*
X10497Y8407D02*
X10477D01*
X10487Y8397D02*
Y8417D01*
X10447Y8407D02*
X10427D01*
X10437Y8397D02*
Y8417D01*
X10427Y8252D02*
X10447D01*
X10437Y8242D02*
Y8262D01*
X10524Y8211D02*
X10544D01*
X10534Y8201D02*
Y8221D01*
X10402Y8092D02*
X10382D01*
X10392Y8082D02*
Y8102D01*
X10382Y8157D02*
X10402D01*
X10392Y8147D02*
Y8167D01*
X10382Y8212D02*
X10402D01*
X10392Y8202D02*
Y8222D01*
X10394Y7771D02*
X10374D01*
X10384Y7761D02*
Y7781D01*
X10387Y7407D02*
X10407D01*
X10397Y7397D02*
Y7417D01*
X10202Y8117D02*
X10182D01*
X10192Y8107D02*
Y8127D01*
X10227Y8407D02*
X10247D01*
X10237Y8397D02*
Y8417D01*
X10277Y8407D02*
X10297D01*
X10287Y8397D02*
Y8417D01*
X10197Y8627D02*
X10177D01*
X10187Y8617D02*
Y8637D01*
X10302Y8007D02*
X10322D01*
X10312Y7997D02*
Y8017D01*
X10327Y8627D02*
X10347D01*
X10337Y8617D02*
Y8637D01*
X10197Y8407D02*
X10177D01*
X10187Y8397D02*
Y8417D01*
X10329Y8241D02*
X10349D01*
X10339Y8231D02*
Y8251D01*
X10269Y7836D02*
X10249D01*
X10259Y7826D02*
Y7846D01*
X10219Y7735D02*
X10199D01*
X10209Y7725D02*
Y7745D01*
X10217Y7617D02*
X10197D01*
X10207Y7607D02*
Y7627D01*
X10188Y7709D02*
X10168D01*
X10178Y7699D02*
Y7719D01*
X10187Y7777D02*
X10167D01*
X10177Y7767D02*
Y7787D01*
X10200Y7777D02*
X10220D01*
X10210Y7767D02*
Y7787D01*
X10197Y7867D02*
X10177D01*
X10187Y7857D02*
Y7877D01*
X10212Y7867D02*
X10232D01*
X10222Y7857D02*
Y7877D01*
X10247Y7867D02*
X10267D01*
X10257Y7857D02*
Y7877D01*
X10254Y7411D02*
X10274D01*
X10264Y7401D02*
Y7421D01*
X10032Y8082D02*
X10012D01*
X10022Y8072D02*
Y8092D01*
X10047Y8192D02*
X10067D01*
X10057Y8182D02*
Y8202D01*
X10072Y8607D02*
X10092D01*
X10082Y8597D02*
Y8617D01*
X10127Y8407D02*
X10147D01*
X10137Y8397D02*
Y8417D01*
X10127Y8597D02*
X10147D01*
X10137Y8587D02*
Y8607D01*
X10034Y7866D02*
X10014D01*
X10024Y7856D02*
Y7876D01*
X10044Y7756D02*
X10064D01*
X10054Y7746D02*
Y7766D01*
X10052Y7607D02*
X10032D01*
X10042Y7597D02*
Y7617D01*
X10117D02*
X10137D01*
X10127Y7607D02*
Y7627D01*
X10152Y7617D02*
X10172D01*
X10162Y7607D02*
Y7627D01*
X10154Y7777D02*
X10134D01*
X10144Y7767D02*
Y7787D01*
X10134Y7709D02*
X10154D01*
X10144Y7699D02*
Y7719D01*
X9897Y8405D02*
X9877D01*
X9887Y8395D02*
Y8415D01*
X9847Y8391D02*
X9827D01*
X9837Y8381D02*
Y8401D01*
X9844Y8596D02*
X9864D01*
X9854Y8586D02*
Y8606D01*
X9847Y8257D02*
X9827D01*
X9837Y8247D02*
Y8267D01*
X9797Y8407D02*
X9777D01*
X9787Y8397D02*
Y8417D01*
X9877Y8627D02*
X9897D01*
X9887Y8617D02*
Y8637D01*
X9942Y8007D02*
X9962D01*
X9952Y7997D02*
Y8017D01*
X9947Y8542D02*
X9927D01*
X9937Y8532D02*
Y8552D01*
X9932Y8212D02*
X9912D01*
X9922Y8202D02*
Y8222D01*
X9914Y8121D02*
X9934D01*
X9924Y8111D02*
Y8131D01*
X9832Y7782D02*
X9812D01*
X9822Y7772D02*
Y7792D01*
X9797Y7417D02*
X9777D01*
X9787Y7407D02*
Y7427D01*
X9862Y7852D02*
X9882D01*
X9872Y7842D02*
Y7862D01*
X9867Y7587D02*
X9887D01*
X9877Y7577D02*
Y7597D01*
X9842Y7417D02*
X9822D01*
X9832Y7407D02*
Y7427D01*
X9812Y7897D02*
X9792D01*
X9802Y7887D02*
Y7907D01*
X9782Y7917D02*
X9762D01*
X9772Y7907D02*
Y7927D01*
X9776Y7850D02*
X9796D01*
X9786Y7840D02*
Y7860D01*
X9647Y8517D02*
X9627D01*
X9637Y8507D02*
Y8527D01*
X9677Y8407D02*
X9697D01*
X9687Y8397D02*
Y8417D01*
X9727Y8257D02*
X9747D01*
X9737Y8247D02*
Y8267D01*
Y8212D02*
X9717D01*
X9727Y8202D02*
Y8222D01*
Y8407D02*
X9747D01*
X9737Y8397D02*
Y8417D01*
X9727Y8032D02*
X9747D01*
X9737Y8022D02*
Y8042D01*
X9717Y7901D02*
X9697D01*
X9707Y7891D02*
Y7911D01*
Y7587D02*
X9727D01*
X9717Y7577D02*
Y7597D01*
X9732Y7901D02*
X9752D01*
X9742Y7891D02*
Y7911D01*
X9447Y8567D02*
X9427D01*
X9437Y8557D02*
Y8577D01*
X9397Y8032D02*
X9377D01*
X9387Y8022D02*
Y8042D01*
X9487Y8212D02*
X9507D01*
X9497Y8202D02*
Y8222D01*
X9447Y8282D02*
X9427D01*
X9437Y8272D02*
Y8292D01*
X9497Y8407D02*
X9517D01*
X9507Y8397D02*
Y8417D01*
X9482Y8407D02*
X9462D01*
X9472Y8397D02*
Y8417D01*
X9397Y8627D02*
X9377D01*
X9387Y8617D02*
Y8637D01*
X9401Y8115D02*
X9421D01*
X9411Y8105D02*
Y8125D01*
X9527Y8282D02*
X9547D01*
X9537Y8272D02*
Y8292D01*
X9527Y8627D02*
X9547D01*
X9537Y8617D02*
Y8637D01*
X9424Y7476D02*
X9404D01*
X9414Y7466D02*
Y7486D01*
X9464Y7476D02*
X9484D01*
X9474Y7466D02*
Y7486D01*
X9394Y7666D02*
X9374D01*
X9384Y7656D02*
Y7676D01*
X9397Y7697D02*
X9417D01*
X9407Y7687D02*
Y7707D01*
X9457Y7847D02*
X9477D01*
X9467Y7837D02*
Y7857D01*
X9457Y7937D02*
X9477D01*
X9467Y7927D02*
Y7947D01*
X9512Y7637D02*
X9532D01*
X9522Y7627D02*
Y7647D01*
X9527Y7847D02*
X9507D01*
X9517Y7837D02*
Y7857D01*
X9557Y7847D02*
X9577D01*
X9567Y7837D02*
Y7857D01*
X9557Y7937D02*
X9577D01*
X9567Y7927D02*
Y7947D01*
X9527Y7937D02*
X9507D01*
X9517Y7927D02*
Y7947D01*
X9554Y7686D02*
X9574D01*
X9564Y7676D02*
Y7696D01*
X9286Y8121D02*
X9266D01*
X9276Y8111D02*
Y8131D01*
X9267Y8212D02*
X9287D01*
X9277Y8202D02*
Y8222D01*
X9237Y8177D02*
X9217D01*
X9227Y8167D02*
Y8187D01*
X9207Y8152D02*
X9187D01*
X9197Y8142D02*
Y8162D01*
X9227Y8517D02*
X9247D01*
X9237Y8507D02*
Y8527D01*
X9197Y8627D02*
X9177D01*
X9187Y8617D02*
Y8637D01*
X9196Y7981D02*
X9176D01*
X9186Y7971D02*
Y7991D01*
X9327Y8542D02*
X9347D01*
X9337Y8532D02*
Y8552D01*
X9342Y8007D02*
X9362D01*
X9352Y7997D02*
Y8017D01*
X9347Y8282D02*
X9327D01*
X9337Y8272D02*
Y8292D01*
X9319Y7806D02*
X9299D01*
X9309Y7796D02*
Y7816D01*
Y7621D02*
X9289D01*
X9299Y7611D02*
Y7631D01*
X9289Y7476D02*
X9309D01*
X9299Y7466D02*
Y7486D01*
X9289Y7556D02*
X9309D01*
X9299Y7546D02*
Y7566D01*
X9222Y7492D02*
X9202D01*
X9212Y7482D02*
Y7502D01*
X9292Y7742D02*
X9312D01*
X9302Y7732D02*
Y7752D01*
X9197Y7862D02*
X9177D01*
X9187Y7852D02*
Y7872D01*
X9354Y7821D02*
X9374D01*
X9364Y7811D02*
Y7831D01*
X9369Y7476D02*
X9349D01*
X9359Y7466D02*
Y7486D01*
X9349Y7636D02*
X9369D01*
X9359Y7626D02*
Y7646D01*
X9002Y8092D02*
X8982D01*
X8992Y8082D02*
Y8102D01*
Y8412D02*
X9012D01*
X9002Y8402D02*
Y8422D01*
X9067Y8177D02*
X9087D01*
X9077Y8167D02*
Y8187D01*
X9102Y8152D02*
X9122D01*
X9112Y8142D02*
Y8162D01*
X9097Y8412D02*
X9077D01*
X9087Y8402D02*
Y8422D01*
X9047Y8492D02*
X9027D01*
X9037Y8482D02*
Y8502D01*
X9002Y8172D02*
X8982D01*
X8992Y8162D02*
Y8182D01*
X9127Y8597D02*
X9147D01*
X9137Y8587D02*
Y8607D01*
X9127Y8452D02*
X9147D01*
X9137Y8442D02*
Y8462D01*
X9141Y8016D02*
X9161D01*
X9151Y8006D02*
Y8026D01*
X9062Y7422D02*
X9042D01*
X9052Y7412D02*
Y7432D01*
X9042Y7487D02*
X9062D01*
X9052Y7477D02*
Y7497D01*
X9057Y7907D02*
X9037D01*
X9047Y7897D02*
Y7917D01*
X9091Y7691D02*
X9111D01*
X9101Y7681D02*
Y7701D01*
X9061Y7716D02*
X9041D01*
X9051Y7706D02*
Y7726D01*
X9031Y7846D02*
X9011D01*
X9021Y7836D02*
Y7856D01*
X9041Y7771D02*
X9061D01*
X9051Y7761D02*
Y7781D01*
X9014Y7411D02*
X8994D01*
X9004Y7401D02*
Y7421D01*
X9117Y7927D02*
X9137D01*
X9127Y7917D02*
Y7937D01*
X9136Y7746D02*
X9116D01*
X9126Y7736D02*
Y7756D01*
X8889Y8406D02*
X8869D01*
X8879Y8396D02*
Y8416D01*
X8907Y8212D02*
X8927D01*
X8917Y8202D02*
Y8222D01*
X8894Y8656D02*
X8874D01*
X8884Y8646D02*
Y8666D01*
X8886Y7876D02*
X8906D01*
X8896Y7866D02*
Y7886D01*
X8942Y7547D02*
X8962D01*
X8952Y7537D02*
Y7557D01*
X8832Y8257D02*
X8812D01*
X8822Y8247D02*
Y8267D01*
X8821Y8136D02*
X8801D01*
X8811Y8126D02*
Y8146D01*
Y8041D02*
X8831D01*
X8821Y8031D02*
Y8051D01*
X8824Y7646D02*
X8844D01*
X8834Y7636D02*
Y7656D01*
X8829Y7411D02*
X8849D01*
X8839Y7401D02*
Y7421D01*
X8641Y8161D02*
X8621D01*
X8631Y8151D02*
Y8171D01*
X8691Y8196D02*
X8711D01*
X8701Y8186D02*
Y8206D01*
X8736Y8161D02*
X8756D01*
X8746Y8151D02*
Y8171D01*
X8604Y8256D02*
X8584D01*
X8594Y8246D02*
Y8266D01*
X8584Y8086D02*
X8604D01*
X8594Y8076D02*
Y8096D01*
X8584Y7646D02*
X8604D01*
X8594Y7636D02*
Y7656D01*
X8584Y7886D02*
X8604D01*
X8594Y7876D02*
Y7896D01*
X9931Y7488D02*
X9961D01*
X9946Y7473D02*
Y7503D01*
X10031Y7488D02*
X10061D01*
X10046Y7473D02*
Y7503D01*
X10131Y7488D02*
X10161D01*
X10146Y7473D02*
Y7503D01*
X10231Y7488D02*
X10261D01*
X10246Y7473D02*
Y7503D01*
X10051Y8616D02*
X10021D01*
X10036Y8601D02*
Y8631D01*
X9972Y8616D02*
X9942D01*
X9957Y8601D02*
Y8631D01*
X8952Y8407D02*
X8922D01*
X8937Y8392D02*
Y8422D01*
X10722Y8407D02*
X10752D01*
X10737Y8392D02*
Y8422D01*
X10922Y8102D02*
X10952D01*
X10937Y8087D02*
Y8117D01*
X10922Y8181D02*
X10952D01*
X10937Y8166D02*
Y8196D01*
X11056Y7920D02*
X11086D01*
X11071Y7905D02*
Y7935D01*
X11086Y7652D02*
X11056D01*
X11071Y7637D02*
Y7667D01*
X10821Y8123D02*
X10791D01*
X10806Y8108D02*
Y8138D01*
X8834Y8089D02*
X8804D01*
X8819Y8074D02*
Y8104D01*
X8804Y7939D02*
X8834D01*
X8819Y7924D02*
Y7954D01*
D02*
M02*
