*%FSLAX23Y23*%
*%MOIN*%
G01*
%ADD11C,0.000*%
%ADD12C,0.000*%
%ADD13C,0.000*%
%ADD14C,0.001*%
%ADD15C,0.002*%
%ADD16C,0.006*%
%ADD17C,0.007*%
%ADD18C,0.007*%
%ADD19C,0.008*%
%ADD20C,0.010*%
%ADD21C,0.012*%
%ADD22C,0.015*%
%ADD23C,0.015*%
%ADD24C,0.018*%
%ADD25C,0.020*%
%ADD26C,0.022*%
%ADD27C,0.024*%
%ADD28C,0.025*%
%ADD29C,0.028*%
%ADD30C,0.029*%
%ADD31C,0.031*%
%ADD32C,0.031*%
%ADD33C,0.035*%
%ADD34C,0.035*%
%ADD35C,0.039*%
%ADD36C,0.043*%
%ADD37C,0.045*%
%ADD38C,0.047*%
%ADD39C,0.048*%
%ADD40C,0.049*%
%ADD41C,0.050*%
%ADD42C,0.050*%
%ADD43C,0.051*%
%ADD44C,0.051*%
%ADD45C,0.054*%
%ADD46C,0.055*%
%ADD47C,0.055*%
%ADD48C,0.059*%
%ADD49C,0.059*%
%ADD50C,0.062*%
%ADD51C,0.066*%
%ADD52C,0.067*%
%ADD53C,0.070*%
%ADD54C,0.074*%
%ADD55C,0.115*%
%ADD56C,0.135*%
%ADD57C,0.138*%
%ADD58C,0.138*%
%ADD59C,0.158*%
%ADD60C,0.158*%
%ADD61C,0.190*%
%ADD62C,0.194*%
%ADD63C,0.236*%
%ADD64C,0.240*%
%ADD65R,0.011X0.030*%
%ADD66R,0.012X0.030*%
%ADD67R,0.014X0.033*%
%ADD68R,0.014X0.037*%
%ADD69R,0.015X0.034*%
%ADD70R,0.016X0.034*%
%ADD71R,0.018X0.037*%
%ADD72R,0.018X0.041*%
%ADD73R,0.020X0.025*%
%ADD74R,0.021X0.021*%
%ADD75R,0.024X0.029*%
%ADD76R,0.025X0.020*%
%ADD77R,0.029X0.024*%
%ADD78R,0.030X0.011*%
%ADD79R,0.030X0.030*%
%ADD80R,0.030X0.050*%
%ADD81R,0.031X0.031*%
%ADD82R,0.033X0.014*%
%ADD83R,0.034X0.015*%
%ADD84R,0.034X0.034*%
%ADD85R,0.034X0.054*%
%ADD86R,0.035X0.035*%
%ADD87R,0.037X0.014*%
%ADD88R,0.037X0.018*%
%ADD89R,0.039X0.014*%
%ADD90R,0.039X0.041*%
%ADD91R,0.040X0.050*%
%ADD92R,0.040X0.083*%
%ADD93R,0.041X0.018*%
%ADD94R,0.041X0.087*%
%ADD95R,0.043X0.018*%
%ADD96R,0.043X0.045*%
%ADD97R,0.044X0.054*%
%ADD98R,0.044X0.087*%
%ADD99R,0.045X0.091*%
%ADD100R,0.047X0.055*%
%ADD101R,0.048X0.024*%
%ADD102R,0.050X0.023*%
%ADD103R,0.050X0.030*%
%ADD104R,0.050X0.040*%
%ADD105R,0.050X0.060*%
%ADD106R,0.051X0.059*%
%ADD107R,0.052X0.028*%
%ADD108R,0.054X0.027*%
%ADD109R,0.054X0.034*%
%ADD110R,0.054X0.044*%
%ADD111R,0.054X0.064*%
%ADD112R,0.055X0.039*%
%ADD113R,0.057X0.012*%
%ADD114R,0.057X0.067*%
%ADD115R,0.059X0.043*%
%ADD116R,0.060X0.060*%
%ADD117R,0.061X0.024*%
%ADD118R,0.061X0.051*%
%ADD119R,0.061X0.016*%
%ADD120R,0.061X0.071*%
%ADD121R,0.063X0.039*%
%ADD122R,0.064X0.064*%
%ADD123R,0.065X0.028*%
%ADD124R,0.065X0.055*%
%ADD125R,0.067X0.043*%
%ADD126R,0.085X0.030*%
%ADD127R,0.085X0.085*%
%ADD128R,0.089X0.034*%
%ADD129R,0.094X0.030*%
%ADD130R,0.098X0.034*%
%ADD131R,0.104X0.104*%
%ADD132R,0.108X0.108*%
%ADD133R,0.116X0.138*%
%ADD134R,0.120X0.142*%
%ADD135R,0.169X0.169*%
%ADD136R,0.173X0.173*%
D11*
X10953Y8381D02*
Y8414D01*
X10970Y8431D01*
X10987Y8414D01*
Y8381D01*
Y8406D01*
X10953D01*
Y7509D02*
Y7476D01*
Y7509D02*
X10970Y7526D01*
X10987Y7509D01*
Y7476D01*
Y7501D01*
X10953D01*
X10536Y7525D02*
Y7475D01*
X10561D01*
X10569Y7483D01*
Y7492D01*
X10561Y7500D01*
X10536D01*
X10537D01*
X10536D02*
X10537D01*
X10536D02*
X10537D01*
X10536D02*
X10561D01*
X10569Y7508D01*
Y7517D01*
X10561Y7525D01*
X10536D01*
X9599Y7524D02*
Y7474D01*
X9624D01*
X9632Y7482D01*
Y7491D01*
X9624Y7499D01*
X9599D01*
X9600D01*
X9599D02*
X9600D01*
X9599D02*
X9600D01*
X9599D02*
X9624D01*
X9632Y7507D01*
Y7516D01*
X9624Y7524D01*
X9599D01*
X8670Y8381D02*
Y8414D01*
X8686Y8431D01*
X8703Y8414D01*
Y8381D01*
Y8406D01*
X8670D01*
Y7509D02*
Y7476D01*
Y7509D02*
X8686Y7526D01*
X8703Y7509D01*
Y7476D01*
Y7501D01*
X8670D01*
X11164Y8266D02*
X11172Y8258D01*
X11164Y8266D02*
X11147D01*
X11139Y8258D01*
Y8224D01*
X11147Y8216D01*
X11164D01*
X11172Y8224D01*
X11212Y8268D02*
X11204Y8276D01*
X11187D01*
X11179Y8268D01*
Y8234D01*
X11187Y8226D01*
X11204D01*
X11212Y8234D01*
Y8228D02*
X11204Y8236D01*
X11187D01*
X11179Y8228D01*
Y8194D01*
X11187Y8186D01*
X11204D01*
X11212Y8194D01*
X11152Y8568D02*
X11144Y8576D01*
X11127D01*
X11119Y8568D01*
Y8534D01*
X11127Y8526D01*
X11144D01*
X11152Y8534D01*
X11164Y7841D02*
X11172Y7833D01*
X11164Y7841D02*
X11147D01*
X11139Y7833D01*
Y7799D01*
X11147Y7791D01*
X11164D01*
X11172Y7799D01*
X11202Y7968D02*
X11194Y7976D01*
X11177D01*
X11169Y7968D01*
Y7934D01*
X11177Y7926D01*
X11194D01*
X11202Y7934D01*
X11102Y8518D02*
X11094Y8526D01*
X11077D01*
X11069Y8518D01*
Y8484D01*
X11077Y8476D01*
X11094D01*
X11102Y8484D01*
X11072Y8638D02*
X11064Y8646D01*
X11047D01*
X11039Y8638D01*
Y8604D01*
X11047Y8596D01*
X11064D01*
X11072Y8604D01*
X11032Y8027D02*
X11040Y8019D01*
X11032Y8027D02*
X11015D01*
X11007Y8019D01*
Y7985D01*
X11015Y7977D01*
X11032D01*
X11040Y7985D01*
X11022Y7967D02*
X11030Y7959D01*
X11022Y7967D02*
X11005D01*
X10997Y7959D01*
Y7925D01*
X11005Y7917D01*
X11022D01*
X11030Y7925D01*
X10812Y8613D02*
X10804Y8621D01*
X10787D01*
X10779Y8613D01*
Y8579D01*
X10787Y8571D01*
X10804D01*
X10812Y8579D01*
X10760Y8644D02*
X10752Y8652D01*
X10735D01*
X10727Y8644D01*
Y8610D01*
X10735Y8602D01*
X10752D01*
X10760Y8610D01*
X10804Y8431D02*
X10812Y8423D01*
X10804Y8431D02*
X10787D01*
X10779Y8423D01*
Y8389D01*
X10787Y8381D01*
X10804D01*
X10812Y8389D01*
X10789Y8131D02*
X10797Y8123D01*
X10789Y8131D02*
X10772D01*
X10764Y8123D01*
Y8089D01*
X10772Y8081D01*
X10789D01*
X10797Y8089D01*
X10832Y8123D02*
X10824Y8131D01*
X10807D01*
X10799Y8123D01*
Y8089D01*
X10807Y8081D01*
X10824D01*
X10832Y8089D01*
Y8158D02*
X10824Y8166D01*
X10807D01*
X10799Y8158D01*
Y8124D01*
X10807Y8116D01*
X10824D01*
X10832Y8124D01*
X10797Y8158D02*
X10789Y8166D01*
X10772D01*
X10764Y8158D01*
Y8124D01*
X10772Y8116D01*
X10789D01*
X10797Y8124D01*
X10845Y8319D02*
X10837Y8327D01*
X10820D01*
X10812Y8319D01*
Y8285D01*
X10820Y8277D01*
X10837D01*
X10845Y8285D01*
X10937Y8027D02*
X10945Y8019D01*
X10937Y8027D02*
X10920D01*
X10912Y8019D01*
Y7985D01*
X10920Y7977D01*
X10937D01*
X10945Y7985D01*
X10865Y8144D02*
X10857Y8152D01*
X10840D01*
X10832Y8144D01*
Y8110D01*
X10840Y8102D01*
X10857D01*
X10865Y8110D01*
X10869Y8111D02*
X10877Y8103D01*
X10869Y8111D02*
X10852D01*
X10844Y8103D01*
Y8069D01*
X10852Y8061D01*
X10869D01*
X10877Y8069D01*
Y8178D02*
X10869Y8186D01*
X10852D01*
X10844Y8178D01*
Y8144D01*
X10852Y8136D01*
X10869D01*
X10877Y8144D01*
X10844Y7576D02*
X10852Y7568D01*
X10844Y7576D02*
X10827D01*
X10819Y7568D01*
Y7534D01*
X10827Y7526D01*
X10844D01*
X10852Y7534D01*
X10882Y7913D02*
X10874Y7921D01*
X10857D01*
X10849Y7913D01*
Y7879D01*
X10857Y7871D01*
X10874D01*
X10882Y7879D01*
X10937Y7762D02*
X10945Y7754D01*
X10937Y7762D02*
X10920D01*
X10912Y7754D01*
Y7720D01*
X10920Y7712D01*
X10937D01*
X10945Y7720D01*
X10612Y8173D02*
X10604Y8181D01*
X10587D01*
X10579Y8173D01*
Y8139D01*
X10587Y8131D01*
X10604D01*
X10612Y8139D01*
X10740Y8614D02*
X10732Y8622D01*
X10715D01*
X10707Y8614D01*
Y8580D01*
X10715Y8572D01*
X10732D01*
X10740Y8580D01*
X10642Y8432D02*
X10650Y8424D01*
X10642Y8432D02*
X10625D01*
X10617Y8424D01*
Y8390D01*
X10625Y8382D01*
X10642D01*
X10650Y8390D01*
X10672Y8137D02*
X10680Y8129D01*
X10672Y8137D02*
X10655D01*
X10647Y8129D01*
Y8095D01*
X10655Y8087D01*
X10672D01*
X10680Y8095D01*
X10595Y8424D02*
X10587Y8432D01*
X10570D01*
X10562Y8424D01*
Y8390D01*
X10570Y8382D01*
X10587D01*
X10595Y8390D01*
Y8644D02*
X10587Y8652D01*
X10570D01*
X10562Y8644D01*
Y8610D01*
X10570Y8602D01*
X10587D01*
X10595Y8610D01*
X10746Y8171D02*
X10754Y8163D01*
X10746Y8171D02*
X10729D01*
X10721Y8163D01*
Y8129D01*
X10729Y8121D01*
X10746D01*
X10754Y8129D01*
Y8123D02*
X10746Y8131D01*
X10729D01*
X10721Y8123D01*
Y8089D01*
X10729Y8081D01*
X10746D01*
X10754Y8089D01*
X10717Y8143D02*
X10709Y8151D01*
X10692D01*
X10684Y8143D01*
Y8109D01*
X10692Y8101D01*
X10709D01*
X10717Y8109D01*
X10627Y7987D02*
X10635Y7979D01*
X10627Y7987D02*
X10610D01*
X10602Y7979D01*
Y7945D01*
X10610Y7937D01*
X10627D01*
X10635Y7945D01*
X10562Y7662D02*
X10570Y7654D01*
X10562Y7662D02*
X10545D01*
X10537Y7654D01*
Y7620D01*
X10545Y7612D01*
X10562D01*
X10570Y7620D01*
X10600Y7654D02*
X10592Y7662D01*
X10575D01*
X10567Y7654D01*
Y7620D01*
X10575Y7612D01*
X10592D01*
X10600Y7620D01*
X10630Y7654D02*
X10622Y7662D01*
X10605D01*
X10597Y7654D01*
Y7620D01*
X10605Y7612D01*
X10622D01*
X10630Y7620D01*
X10667Y7467D02*
X10675Y7459D01*
X10667Y7467D02*
X10650D01*
X10642Y7459D01*
Y7425D01*
X10650Y7417D01*
X10667D01*
X10675Y7425D01*
X10734Y7958D02*
X10726Y7966D01*
X10709D01*
X10701Y7958D01*
Y7924D01*
X10709Y7916D01*
X10726D01*
X10734Y7924D01*
X10495Y8424D02*
X10487Y8432D01*
X10470D01*
X10462Y8424D01*
Y8390D01*
X10470Y8382D01*
X10487D01*
X10495Y8390D01*
X10445Y8424D02*
X10437Y8432D01*
X10420D01*
X10412Y8424D01*
Y8390D01*
X10420Y8382D01*
X10437D01*
X10445Y8390D01*
X10437Y8277D02*
X10445Y8269D01*
X10437Y8277D02*
X10420D01*
X10412Y8269D01*
Y8235D01*
X10420Y8227D01*
X10437D01*
X10445Y8235D01*
X10534Y8236D02*
X10542Y8228D01*
X10534Y8236D02*
X10517D01*
X10509Y8228D01*
Y8194D01*
X10517Y8186D01*
X10534D01*
X10542Y8194D01*
X10400Y8109D02*
X10392Y8117D01*
X10375D01*
X10367Y8109D01*
Y8075D01*
X10375Y8067D01*
X10392D01*
X10400Y8075D01*
Y8174D02*
X10392Y8182D01*
X10375D01*
X10367Y8174D01*
Y8140D01*
X10375Y8132D01*
X10392D01*
X10400Y8140D01*
Y8229D02*
X10392Y8237D01*
X10375D01*
X10367Y8229D01*
Y8195D01*
X10375Y8187D01*
X10392D01*
X10400Y8195D01*
X10384Y7796D02*
X10392Y7788D01*
X10384Y7796D02*
X10367D01*
X10359Y7788D01*
Y7754D01*
X10367Y7746D01*
X10384D01*
X10392Y7754D01*
X10397Y7432D02*
X10405Y7424D01*
X10397Y7432D02*
X10380D01*
X10372Y7424D01*
Y7390D01*
X10380Y7382D01*
X10397D01*
X10405Y7390D01*
X10200Y8134D02*
X10192Y8142D01*
X10175D01*
X10167Y8134D01*
Y8100D01*
X10175Y8092D01*
X10192D01*
X10200Y8100D01*
X10245Y8424D02*
X10237Y8432D01*
X10220D01*
X10212Y8424D01*
Y8390D01*
X10220Y8382D01*
X10237D01*
X10245Y8390D01*
X10287Y8432D02*
X10295Y8424D01*
X10287Y8432D02*
X10270D01*
X10262Y8424D01*
Y8390D01*
X10270Y8382D01*
X10287D01*
X10295Y8390D01*
X10195Y8644D02*
X10187Y8652D01*
X10170D01*
X10162Y8644D01*
Y8610D01*
X10170Y8602D01*
X10187D01*
X10195Y8610D01*
X10312Y8032D02*
X10320Y8024D01*
X10312Y8032D02*
X10295D01*
X10287Y8024D01*
Y7990D01*
X10295Y7982D01*
X10312D01*
X10320Y7990D01*
X10345Y8644D02*
X10337Y8652D01*
X10320D01*
X10312Y8644D01*
Y8610D01*
X10320Y8602D01*
X10337D01*
X10345Y8610D01*
X10187Y8432D02*
X10195Y8424D01*
X10187Y8432D02*
X10170D01*
X10162Y8424D01*
Y8390D01*
X10170Y8382D01*
X10187D01*
X10195Y8390D01*
X10339Y8266D02*
X10347Y8258D01*
X10339Y8266D02*
X10322D01*
X10314Y8258D01*
Y8224D01*
X10322Y8216D01*
X10339D01*
X10347Y8224D01*
X10259Y7861D02*
X10267Y7853D01*
X10259Y7861D02*
X10242D01*
X10234Y7853D01*
Y7819D01*
X10242Y7811D01*
X10259D01*
X10267Y7819D01*
X10209Y7760D02*
X10217Y7752D01*
X10209Y7760D02*
X10192D01*
X10184Y7752D01*
Y7718D01*
X10192Y7710D01*
X10209D01*
X10217Y7718D01*
X10207Y7642D02*
X10215Y7634D01*
X10207Y7642D02*
X10190D01*
X10182Y7634D01*
Y7600D01*
X10190Y7592D01*
X10207D01*
X10215Y7600D01*
X10186Y7726D02*
X10178Y7734D01*
X10161D01*
X10153Y7726D01*
Y7692D01*
X10161Y7684D01*
X10178D01*
X10186Y7692D01*
X10185Y7794D02*
X10177Y7802D01*
X10160D01*
X10152Y7794D01*
Y7760D01*
X10160Y7752D01*
X10177D01*
X10185Y7760D01*
X10218Y7794D02*
X10210Y7802D01*
X10193D01*
X10185Y7794D01*
Y7760D01*
X10193Y7752D01*
X10210D01*
X10218Y7760D01*
X10195Y7884D02*
X10187Y7892D01*
X10170D01*
X10162Y7884D01*
Y7850D01*
X10170Y7842D01*
X10187D01*
X10195Y7850D01*
X10230Y7884D02*
X10222Y7892D01*
X10205D01*
X10197Y7884D01*
Y7850D01*
X10205Y7842D01*
X10222D01*
X10230Y7850D01*
X10265Y7884D02*
X10257Y7892D01*
X10240D01*
X10232Y7884D01*
Y7850D01*
X10240Y7842D01*
X10257D01*
X10265Y7850D01*
X10264Y7436D02*
X10272Y7428D01*
X10264Y7436D02*
X10247D01*
X10239Y7428D01*
Y7394D01*
X10247Y7386D01*
X10264D01*
X10272Y7394D01*
X10030Y8099D02*
X10022Y8107D01*
X10005D01*
X9997Y8099D01*
Y8065D01*
X10005Y8057D01*
X10022D01*
X10030Y8065D01*
X10065Y8209D02*
X10057Y8217D01*
X10040D01*
X10032Y8209D01*
Y8175D01*
X10040Y8167D01*
X10057D01*
X10065Y8175D01*
X10090Y8624D02*
X10082Y8632D01*
X10065D01*
X10057Y8624D01*
Y8590D01*
X10065Y8582D01*
X10082D01*
X10090Y8590D01*
X10137Y8432D02*
X10145Y8424D01*
X10137Y8432D02*
X10120D01*
X10112Y8424D01*
Y8390D01*
X10120Y8382D01*
X10137D01*
X10145Y8390D01*
Y8614D02*
X10137Y8622D01*
X10120D01*
X10112Y8614D01*
Y8580D01*
X10120Y8572D01*
X10137D01*
X10145Y8580D01*
X10024Y7891D02*
X10032Y7883D01*
X10024Y7891D02*
X10007D01*
X9999Y7883D01*
Y7849D01*
X10007Y7841D01*
X10024D01*
X10032Y7849D01*
X10054Y7781D02*
X10062Y7773D01*
X10054Y7781D02*
X10037D01*
X10029Y7773D01*
Y7739D01*
X10037Y7731D01*
X10054D01*
X10062Y7739D01*
X10042Y7632D02*
X10050Y7624D01*
X10042Y7632D02*
X10025D01*
X10017Y7624D01*
Y7590D01*
X10025Y7582D01*
X10042D01*
X10050Y7590D01*
X10127Y7642D02*
X10135Y7634D01*
X10127Y7642D02*
X10110D01*
X10102Y7634D01*
Y7600D01*
X10110Y7592D01*
X10127D01*
X10135Y7600D01*
X10170Y7634D02*
X10162Y7642D01*
X10145D01*
X10137Y7634D01*
Y7600D01*
X10145Y7592D01*
X10162D01*
X10170Y7600D01*
X10152Y7794D02*
X10144Y7802D01*
X10127D01*
X10119Y7794D01*
Y7760D01*
X10127Y7752D01*
X10144D01*
X10152Y7760D01*
X10144Y7734D02*
X10152Y7726D01*
X10144Y7734D02*
X10127D01*
X10119Y7726D01*
Y7692D01*
X10127Y7684D01*
X10144D01*
X10152Y7692D01*
X9895Y8422D02*
X9887Y8430D01*
X9870D01*
X9862Y8422D01*
Y8388D01*
X9870Y8380D01*
X9887D01*
X9895Y8388D01*
X9845Y8408D02*
X9837Y8416D01*
X9820D01*
X9812Y8408D01*
Y8374D01*
X9820Y8366D01*
X9837D01*
X9845Y8374D01*
X9862Y8613D02*
X9854Y8621D01*
X9837D01*
X9829Y8613D01*
Y8579D01*
X9837Y8571D01*
X9854D01*
X9862Y8579D01*
X9837Y8282D02*
X9845Y8274D01*
X9837Y8282D02*
X9820D01*
X9812Y8274D01*
Y8240D01*
X9820Y8232D01*
X9837D01*
X9845Y8240D01*
X9795Y8424D02*
X9787Y8432D01*
X9770D01*
X9762Y8424D01*
Y8390D01*
X9770Y8382D01*
X9787D01*
X9795Y8390D01*
X9895Y8644D02*
X9887Y8652D01*
X9870D01*
X9862Y8644D01*
Y8610D01*
X9870Y8602D01*
X9887D01*
X9895Y8610D01*
X9952Y8032D02*
X9960Y8024D01*
X9952Y8032D02*
X9935D01*
X9927Y8024D01*
Y7990D01*
X9935Y7982D01*
X9952D01*
X9960Y7990D01*
X9945Y8559D02*
X9937Y8567D01*
X9920D01*
X9912Y8559D01*
Y8525D01*
X9920Y8517D01*
X9937D01*
X9945Y8525D01*
X9922Y8237D02*
X9930Y8229D01*
X9922Y8237D02*
X9905D01*
X9897Y8229D01*
Y8195D01*
X9905Y8187D01*
X9922D01*
X9930Y8195D01*
X9924Y8146D02*
X9932Y8138D01*
X9924Y8146D02*
X9907D01*
X9899Y8138D01*
Y8104D01*
X9907Y8096D01*
X9924D01*
X9932Y8104D01*
X9822Y7807D02*
X9830Y7799D01*
X9822Y7807D02*
X9805D01*
X9797Y7799D01*
Y7765D01*
X9805Y7757D01*
X9822D01*
X9830Y7765D01*
X9787Y7442D02*
X9795Y7434D01*
X9787Y7442D02*
X9770D01*
X9762Y7434D01*
Y7400D01*
X9770Y7392D01*
X9787D01*
X9795Y7400D01*
X9880Y7869D02*
X9872Y7877D01*
X9855D01*
X9847Y7869D01*
Y7835D01*
X9855Y7827D01*
X9872D01*
X9880Y7835D01*
X9877Y7612D02*
X9885Y7604D01*
X9877Y7612D02*
X9860D01*
X9852Y7604D01*
Y7570D01*
X9860Y7562D01*
X9877D01*
X9885Y7570D01*
X9832Y7442D02*
X9840Y7434D01*
X9832Y7442D02*
X9815D01*
X9807Y7434D01*
Y7400D01*
X9815Y7392D01*
X9832D01*
X9840Y7400D01*
X9810Y7914D02*
X9802Y7922D01*
X9785D01*
X9777Y7914D01*
Y7880D01*
X9785Y7872D01*
X9802D01*
X9810Y7880D01*
X9780Y7934D02*
X9772Y7942D01*
X9755D01*
X9747Y7934D01*
Y7900D01*
X9755Y7892D01*
X9772D01*
X9780Y7900D01*
X9786Y7875D02*
X9794Y7867D01*
X9786Y7875D02*
X9769D01*
X9761Y7867D01*
Y7833D01*
X9769Y7825D01*
X9786D01*
X9794Y7833D01*
X9645Y8534D02*
X9637Y8542D01*
X9620D01*
X9612Y8534D01*
Y8500D01*
X9620Y8492D01*
X9637D01*
X9645Y8500D01*
X9687Y8432D02*
X9695Y8424D01*
X9687Y8432D02*
X9670D01*
X9662Y8424D01*
Y8390D01*
X9670Y8382D01*
X9687D01*
X9695Y8390D01*
X9737Y8282D02*
X9745Y8274D01*
X9737Y8282D02*
X9720D01*
X9712Y8274D01*
Y8240D01*
X9720Y8232D01*
X9737D01*
X9745Y8240D01*
X9735Y8229D02*
X9727Y8237D01*
X9710D01*
X9702Y8229D01*
Y8195D01*
X9710Y8187D01*
X9727D01*
X9735Y8195D01*
X9745Y8424D02*
X9737Y8432D01*
X9720D01*
X9712Y8424D01*
Y8390D01*
X9720Y8382D01*
X9737D01*
X9745Y8390D01*
X9737Y8057D02*
X9745Y8049D01*
X9737Y8057D02*
X9720D01*
X9712Y8049D01*
Y8015D01*
X9720Y8007D01*
X9737D01*
X9745Y8015D01*
X9707Y7926D02*
X9715Y7918D01*
X9707Y7926D02*
X9690D01*
X9682Y7918D01*
Y7884D01*
X9690Y7876D01*
X9707D01*
X9715Y7884D01*
X9717Y7612D02*
X9725Y7604D01*
X9717Y7612D02*
X9700D01*
X9692Y7604D01*
Y7570D01*
X9700Y7562D01*
X9717D01*
X9725Y7570D01*
X9750Y7918D02*
X9742Y7926D01*
X9725D01*
X9717Y7918D01*
Y7884D01*
X9725Y7876D01*
X9742D01*
X9750Y7884D01*
X9445Y8584D02*
X9437Y8592D01*
X9420D01*
X9412Y8584D01*
Y8550D01*
X9420Y8542D01*
X9437D01*
X9445Y8550D01*
X9387Y8057D02*
X9395Y8049D01*
X9387Y8057D02*
X9370D01*
X9362Y8049D01*
Y8015D01*
X9370Y8007D01*
X9387D01*
X9395Y8015D01*
X9505Y8229D02*
X9497Y8237D01*
X9480D01*
X9472Y8229D01*
Y8195D01*
X9480Y8187D01*
X9497D01*
X9505Y8195D01*
X9445Y8299D02*
X9437Y8307D01*
X9420D01*
X9412Y8299D01*
Y8265D01*
X9420Y8257D01*
X9437D01*
X9445Y8265D01*
X9515Y8424D02*
X9507Y8432D01*
X9490D01*
X9482Y8424D01*
Y8390D01*
X9490Y8382D01*
X9507D01*
X9515Y8390D01*
X9480Y8424D02*
X9472Y8432D01*
X9455D01*
X9447Y8424D01*
Y8390D01*
X9455Y8382D01*
X9472D01*
X9480Y8390D01*
X9395Y8644D02*
X9387Y8652D01*
X9370D01*
X9362Y8644D01*
Y8610D01*
X9370Y8602D01*
X9387D01*
X9395Y8610D01*
X9411Y8140D02*
X9419Y8132D01*
X9411Y8140D02*
X9394D01*
X9386Y8132D01*
Y8098D01*
X9394Y8090D01*
X9411D01*
X9419Y8098D01*
X9545Y8299D02*
X9537Y8307D01*
X9520D01*
X9512Y8299D01*
Y8265D01*
X9520Y8257D01*
X9537D01*
X9545Y8265D01*
Y8644D02*
X9537Y8652D01*
X9520D01*
X9512Y8644D01*
Y8610D01*
X9520Y8602D01*
X9537D01*
X9545Y8610D01*
X9414Y7501D02*
X9422Y7493D01*
X9414Y7501D02*
X9397D01*
X9389Y7493D01*
Y7459D01*
X9397Y7451D01*
X9414D01*
X9422Y7459D01*
X9474Y7501D02*
X9482Y7493D01*
X9474Y7501D02*
X9457D01*
X9449Y7493D01*
Y7459D01*
X9457Y7451D01*
X9474D01*
X9482Y7459D01*
X9392Y7683D02*
X9384Y7691D01*
X9367D01*
X9359Y7683D01*
Y7649D01*
X9367Y7641D01*
X9384D01*
X9392Y7649D01*
X9415Y7714D02*
X9407Y7722D01*
X9390D01*
X9382Y7714D01*
Y7680D01*
X9390Y7672D01*
X9407D01*
X9415Y7680D01*
X9475Y7864D02*
X9467Y7872D01*
X9450D01*
X9442Y7864D01*
Y7830D01*
X9450Y7822D01*
X9467D01*
X9475Y7830D01*
Y7954D02*
X9467Y7962D01*
X9450D01*
X9442Y7954D01*
Y7920D01*
X9450Y7912D01*
X9467D01*
X9475Y7920D01*
X9522Y7662D02*
X9530Y7654D01*
X9522Y7662D02*
X9505D01*
X9497Y7654D01*
Y7620D01*
X9505Y7612D01*
X9522D01*
X9530Y7620D01*
X9525Y7864D02*
X9517Y7872D01*
X9500D01*
X9492Y7864D01*
Y7830D01*
X9500Y7822D01*
X9517D01*
X9525Y7830D01*
X9567Y7872D02*
X9575Y7864D01*
X9567Y7872D02*
X9550D01*
X9542Y7864D01*
Y7830D01*
X9550Y7822D01*
X9567D01*
X9575Y7830D01*
Y7954D02*
X9567Y7962D01*
X9550D01*
X9542Y7954D01*
Y7920D01*
X9550Y7912D01*
X9567D01*
X9575Y7920D01*
X9525Y7954D02*
X9517Y7962D01*
X9500D01*
X9492Y7954D01*
Y7920D01*
X9500Y7912D01*
X9517D01*
X9525Y7920D01*
X9564Y7711D02*
X9572Y7703D01*
X9564Y7711D02*
X9547D01*
X9539Y7703D01*
Y7669D01*
X9547Y7661D01*
X9564D01*
X9572Y7669D01*
X9284Y8138D02*
X9276Y8146D01*
X9259D01*
X9251Y8138D01*
Y8104D01*
X9259Y8096D01*
X9276D01*
X9284Y8104D01*
X9285Y8229D02*
X9277Y8237D01*
X9260D01*
X9252Y8229D01*
Y8195D01*
X9260Y8187D01*
X9277D01*
X9285Y8195D01*
X9235Y8194D02*
X9227Y8202D01*
X9210D01*
X9202Y8194D01*
Y8160D01*
X9210Y8152D01*
X9227D01*
X9235Y8160D01*
X9205Y8169D02*
X9197Y8177D01*
X9180D01*
X9172Y8169D01*
Y8135D01*
X9180Y8127D01*
X9197D01*
X9205Y8135D01*
X9245Y8534D02*
X9237Y8542D01*
X9220D01*
X9212Y8534D01*
Y8500D01*
X9220Y8492D01*
X9237D01*
X9245Y8500D01*
X9195Y8644D02*
X9187Y8652D01*
X9170D01*
X9162Y8644D01*
Y8610D01*
X9170Y8602D01*
X9187D01*
X9195Y8610D01*
X9186Y8006D02*
X9194Y7998D01*
X9186Y8006D02*
X9169D01*
X9161Y7998D01*
Y7964D01*
X9169Y7956D01*
X9186D01*
X9194Y7964D01*
X9345Y8559D02*
X9337Y8567D01*
X9320D01*
X9312Y8559D01*
Y8525D01*
X9320Y8517D01*
X9337D01*
X9345Y8525D01*
X9352Y8032D02*
X9360Y8024D01*
X9352Y8032D02*
X9335D01*
X9327Y8024D01*
Y7990D01*
X9335Y7982D01*
X9352D01*
X9360Y7990D01*
X9345Y8299D02*
X9337Y8307D01*
X9320D01*
X9312Y8299D01*
Y8265D01*
X9320Y8257D01*
X9337D01*
X9345Y8265D01*
X9309Y7831D02*
X9317Y7823D01*
X9309Y7831D02*
X9292D01*
X9284Y7823D01*
Y7789D01*
X9292Y7781D01*
X9309D01*
X9317Y7789D01*
X9299Y7646D02*
X9307Y7638D01*
X9299Y7646D02*
X9282D01*
X9274Y7638D01*
Y7604D01*
X9282Y7596D01*
X9299D01*
X9307Y7604D01*
X9299Y7501D02*
X9307Y7493D01*
X9299Y7501D02*
X9282D01*
X9274Y7493D01*
Y7459D01*
X9282Y7451D01*
X9299D01*
X9307Y7459D01*
Y7573D02*
X9299Y7581D01*
X9282D01*
X9274Y7573D01*
Y7539D01*
X9282Y7531D01*
X9299D01*
X9307Y7539D01*
X9220Y7509D02*
X9212Y7517D01*
X9195D01*
X9187Y7509D01*
Y7475D01*
X9195Y7467D01*
X9212D01*
X9220Y7475D01*
X9310Y7759D02*
X9302Y7767D01*
X9285D01*
X9277Y7759D01*
Y7725D01*
X9285Y7717D01*
X9302D01*
X9310Y7725D01*
X9195Y7879D02*
X9187Y7887D01*
X9170D01*
X9162Y7879D01*
Y7845D01*
X9170Y7837D01*
X9187D01*
X9195Y7845D01*
X9364Y7846D02*
X9372Y7838D01*
X9364Y7846D02*
X9347D01*
X9339Y7838D01*
Y7804D01*
X9347Y7796D01*
X9364D01*
X9372Y7804D01*
X9359Y7501D02*
X9367Y7493D01*
X9359Y7501D02*
X9342D01*
X9334Y7493D01*
Y7459D01*
X9342Y7451D01*
X9359D01*
X9367Y7459D01*
Y7653D02*
X9359Y7661D01*
X9342D01*
X9334Y7653D01*
Y7619D01*
X9342Y7611D01*
X9359D01*
X9367Y7619D01*
X9000Y8109D02*
X8992Y8117D01*
X8975D01*
X8967Y8109D01*
Y8075D01*
X8975Y8067D01*
X8992D01*
X9000Y8075D01*
X9010Y8429D02*
X9002Y8437D01*
X8985D01*
X8977Y8429D01*
Y8395D01*
X8985Y8387D01*
X9002D01*
X9010Y8395D01*
X9077Y8202D02*
X9085Y8194D01*
X9077Y8202D02*
X9060D01*
X9052Y8194D01*
Y8160D01*
X9060Y8152D01*
X9077D01*
X9085Y8160D01*
X9112Y8177D02*
X9120Y8169D01*
X9112Y8177D02*
X9095D01*
X9087Y8169D01*
Y8135D01*
X9095Y8127D01*
X9112D01*
X9120Y8135D01*
X9095Y8429D02*
X9087Y8437D01*
X9070D01*
X9062Y8429D01*
Y8395D01*
X9070Y8387D01*
X9087D01*
X9095Y8395D01*
X9045Y8509D02*
X9037Y8517D01*
X9020D01*
X9012Y8509D01*
Y8475D01*
X9020Y8467D01*
X9037D01*
X9045Y8475D01*
X8992Y8197D02*
X9000Y8189D01*
X8992Y8197D02*
X8975D01*
X8967Y8189D01*
Y8155D01*
X8975Y8147D01*
X8992D01*
X9000Y8155D01*
X9145Y8614D02*
X9137Y8622D01*
X9120D01*
X9112Y8614D01*
Y8580D01*
X9120Y8572D01*
X9137D01*
X9145Y8580D01*
X9137Y8477D02*
X9145Y8469D01*
X9137Y8477D02*
X9120D01*
X9112Y8469D01*
Y8435D01*
X9120Y8427D01*
X9137D01*
X9145Y8435D01*
X9151Y8041D02*
X9159Y8033D01*
X9151Y8041D02*
X9134D01*
X9126Y8033D01*
Y7999D01*
X9134Y7991D01*
X9151D01*
X9159Y7999D01*
X9052Y7447D02*
X9060Y7439D01*
X9052Y7447D02*
X9035D01*
X9027Y7439D01*
Y7405D01*
X9035Y7397D01*
X9052D01*
X9060Y7405D01*
Y7504D02*
X9052Y7512D01*
X9035D01*
X9027Y7504D01*
Y7470D01*
X9035Y7462D01*
X9052D01*
X9060Y7470D01*
X9055Y7924D02*
X9047Y7932D01*
X9030D01*
X9022Y7924D01*
Y7890D01*
X9030Y7882D01*
X9047D01*
X9055Y7890D01*
X9101Y7716D02*
X9109Y7708D01*
X9101Y7716D02*
X9084D01*
X9076Y7708D01*
Y7674D01*
X9084Y7666D01*
X9101D01*
X9109Y7674D01*
X9059Y7733D02*
X9051Y7741D01*
X9034D01*
X9026Y7733D01*
Y7699D01*
X9034Y7691D01*
X9051D01*
X9059Y7699D01*
X9029Y7863D02*
X9021Y7871D01*
X9004D01*
X8996Y7863D01*
Y7829D01*
X9004Y7821D01*
X9021D01*
X9029Y7829D01*
X9051Y7796D02*
X9059Y7788D01*
X9051Y7796D02*
X9034D01*
X9026Y7788D01*
Y7754D01*
X9034Y7746D01*
X9051D01*
X9059Y7754D01*
X9004Y7436D02*
X9012Y7428D01*
X9004Y7436D02*
X8987D01*
X8979Y7428D01*
Y7394D01*
X8987Y7386D01*
X9004D01*
X9012Y7394D01*
X9135Y7944D02*
X9127Y7952D01*
X9110D01*
X9102Y7944D01*
Y7910D01*
X9110Y7902D01*
X9127D01*
X9135Y7910D01*
X9126Y7771D02*
X9134Y7763D01*
X9126Y7771D02*
X9109D01*
X9101Y7763D01*
Y7729D01*
X9109Y7721D01*
X9126D01*
X9134Y7729D01*
X8887Y8423D02*
X8879Y8431D01*
X8862D01*
X8854Y8423D01*
Y8389D01*
X8862Y8381D01*
X8879D01*
X8887Y8389D01*
X8917Y8237D02*
X8925Y8229D01*
X8917Y8237D02*
X8900D01*
X8892Y8229D01*
Y8195D01*
X8900Y8187D01*
X8917D01*
X8925Y8195D01*
X8892Y8673D02*
X8884Y8681D01*
X8867D01*
X8859Y8673D01*
Y8639D01*
X8867Y8631D01*
X8884D01*
X8892Y8639D01*
X8896Y7901D02*
X8904Y7893D01*
X8896Y7901D02*
X8879D01*
X8871Y7893D01*
Y7859D01*
X8879Y7851D01*
X8896D01*
X8904Y7859D01*
X8952Y7572D02*
X8960Y7564D01*
X8952Y7572D02*
X8935D01*
X8927Y7564D01*
Y7530D01*
X8935Y7522D01*
X8952D01*
X8960Y7530D01*
X8830Y8274D02*
X8822Y8282D01*
X8805D01*
X8797Y8274D01*
Y8240D01*
X8805Y8232D01*
X8822D01*
X8830Y8240D01*
X8811Y8161D02*
X8819Y8153D01*
X8811Y8161D02*
X8794D01*
X8786Y8153D01*
Y8119D01*
X8794Y8111D01*
X8811D01*
X8819Y8119D01*
X8821Y8066D02*
X8829Y8058D01*
X8821Y8066D02*
X8804D01*
X8796Y8058D01*
Y8024D01*
X8804Y8016D01*
X8821D01*
X8829Y8024D01*
X8834Y7671D02*
X8842Y7663D01*
X8834Y7671D02*
X8817D01*
X8809Y7663D01*
Y7629D01*
X8817Y7621D01*
X8834D01*
X8842Y7629D01*
X8839Y7436D02*
X8847Y7428D01*
X8839Y7436D02*
X8822D01*
X8814Y7428D01*
Y7394D01*
X8822Y7386D01*
X8839D01*
X8847Y7394D01*
X8639Y8178D02*
X8631Y8186D01*
X8614D01*
X8606Y8178D01*
Y8144D01*
X8614Y8136D01*
X8631D01*
X8639Y8144D01*
X8709Y8213D02*
X8701Y8221D01*
X8684D01*
X8676Y8213D01*
Y8179D01*
X8684Y8171D01*
X8701D01*
X8709Y8179D01*
X8746Y8186D02*
X8754Y8178D01*
X8746Y8186D02*
X8729D01*
X8721Y8178D01*
Y8144D01*
X8729Y8136D01*
X8746D01*
X8754Y8144D01*
X8602Y8273D02*
X8594Y8281D01*
X8577D01*
X8569Y8273D01*
Y8239D01*
X8577Y8231D01*
X8594D01*
X8602Y8239D01*
X8594Y8111D02*
X8602Y8103D01*
X8594Y8111D02*
X8577D01*
X8569Y8103D01*
Y8069D01*
X8577Y8061D01*
X8594D01*
X8602Y8069D01*
X8594Y7671D02*
X8602Y7663D01*
X8594Y7671D02*
X8577D01*
X8569Y7663D01*
Y7629D01*
X8577Y7621D01*
X8594D01*
X8602Y7629D01*
Y7903D02*
X8594Y7911D01*
X8577D01*
X8569Y7903D01*
Y7869D01*
X8577Y7861D01*
X8594D01*
X8602Y7869D01*
X9921Y7513D02*
Y7463D01*
X9946D01*
X9954Y7471D01*
Y7505D01*
X9946Y7513D01*
X9921D01*
X10021D02*
Y7463D01*
X10046D01*
X10054Y7471D01*
Y7505D01*
X10046Y7513D01*
X10021D01*
X10121D02*
Y7463D01*
X10146D01*
X10154Y7471D01*
Y7505D01*
X10146Y7513D01*
X10121D01*
X10221D02*
Y7463D01*
X10246D01*
X10254Y7471D01*
Y7505D01*
X10246Y7513D01*
X10221D01*
X10044Y8641D02*
X10011D01*
Y8591D01*
X10044D01*
X10027Y8616D02*
X10011D01*
X9965Y8641D02*
X9932D01*
Y8591D01*
X9965D01*
X9948Y8616D02*
X9932D01*
X8945Y8432D02*
X8912D01*
Y8407D01*
X8929D01*
X8912D01*
Y8382D01*
X10712Y8432D02*
X10746D01*
X10712D02*
Y8407D01*
X10729D01*
X10712D01*
Y8382D01*
X10937Y8127D02*
X10945Y8119D01*
X10937Y8127D02*
X10920D01*
X10912Y8119D01*
Y8085D01*
X10920Y8077D01*
X10937D01*
X10945Y8085D01*
Y8102D01*
X10929D01*
X10945Y8197D02*
X10937Y8206D01*
X10920D01*
X10912Y8197D01*
Y8164D01*
X10920Y8156D01*
X10937D01*
X10945Y8164D01*
Y8181D01*
X10929D01*
X11046Y7945D02*
Y7895D01*
Y7920D01*
X11079D01*
Y7945D01*
Y7895D01*
X11046Y7677D02*
Y7627D01*
Y7652D01*
X11079D01*
Y7677D01*
Y7627D01*
X10814Y8140D02*
X10806Y8148D01*
X10789D01*
X10781Y8140D01*
Y8106D01*
X10789Y8098D01*
X10806D01*
X10814Y8106D01*
X8810Y8114D02*
X8794D01*
X8802D02*
X8810D01*
X8802D02*
Y8064D01*
X8794D01*
X8810D01*
Y7964D02*
X8794D01*
X8802D02*
X8810D01*
X8802D02*
Y7914D01*
X8794D01*
X8810D01*
X11312Y7471D02*
X11320Y7463D01*
X11312Y7471D02*
X11295D01*
X11287Y7463D01*
Y7429D01*
X11295Y7421D01*
X11312D01*
X11320Y7429D01*
Y7583D02*
X11312Y7591D01*
X11295D01*
X11287Y7583D01*
Y7549D01*
X11295Y7541D01*
X11312D01*
X11320Y7549D01*
Y7566D01*
X11304D01*
X11320Y7711D02*
X11287D01*
Y7661D01*
X11320D01*
X11304Y7686D02*
X11287D01*
Y7781D02*
Y7831D01*
Y7806D02*
Y7781D01*
Y7806D02*
X11320D01*
Y7831D01*
Y7781D01*
X11304Y7951D02*
X11287D01*
X11295D02*
X11304D01*
X11295D02*
Y7901D01*
X11287D01*
X11304D01*
X11320Y8071D02*
X11287D01*
Y8046D01*
X11304D01*
X11287D01*
Y8021D01*
Y8141D02*
Y8191D01*
Y8141D02*
X11312D01*
X11320Y8149D01*
Y8183D01*
X11312Y8191D01*
X11287D01*
Y8261D02*
Y8294D01*
X11304Y8311D01*
X11320Y8294D01*
Y8261D01*
Y8286D01*
X11287D01*
Y8381D02*
Y8431D01*
Y8381D02*
X11312D01*
X11320Y8389D01*
Y8398D01*
X11312Y8406D01*
X11287D01*
X11288D01*
X11287D02*
X11288D01*
X11287D02*
X11288D01*
X11287D02*
X11312D01*
X11320Y8414D01*
Y8423D01*
X11312Y8431D01*
X11287D01*
D15*
X11505Y7467D02*
X11500Y7465D01*
X11505Y7467D02*
X11514Y7476D01*
Y7416D01*
X11549Y7473D02*
X11558Y7476D01*
X11549Y7473D02*
X11546Y7467D01*
Y7462D01*
X11549Y7456D01*
X11555Y7453D01*
X11566Y7450D01*
X11575Y7447D01*
X11581Y7442D01*
X11583Y7436D01*
Y7427D01*
X11581Y7422D01*
X11578Y7419D01*
X11569Y7416D01*
X11558D01*
X11549Y7419D01*
X11546Y7422D01*
X11543Y7427D01*
Y7436D01*
X11546Y7442D01*
X11552Y7447D01*
X11561Y7450D01*
X11572Y7453D01*
X11578Y7456D01*
X11581Y7462D01*
Y7467D01*
X11578Y7473D01*
X11569Y7476D01*
X11558D01*
X11628Y7473D02*
X11631Y7467D01*
X11628Y7473D02*
X11620Y7476D01*
X11614D01*
X11605Y7473D01*
X11600Y7465D01*
X11597Y7450D01*
Y7436D01*
X11600Y7425D01*
X11605Y7419D01*
X11614Y7416D01*
X11617D01*
X11625Y7419D01*
X11631Y7425D01*
X11634Y7433D01*
Y7436D01*
X11631Y7445D01*
X11625Y7450D01*
X11617Y7453D01*
X11614D01*
X11605Y7450D01*
X11600Y7445D01*
X11597Y7436D01*
X11968Y7465D02*
X11974Y7467D01*
X11983Y7476D01*
Y7416D01*
X12018Y7476D02*
X12047D01*
X12018D02*
X12015Y7450D01*
X12018Y7453D01*
X12027Y7456D01*
X12035D01*
X12044Y7453D01*
X12049Y7447D01*
X12052Y7439D01*
Y7433D01*
X12049Y7425D01*
X12044Y7419D01*
X12035Y7416D01*
X12027D01*
X12018Y7419D01*
X12015Y7422D01*
X12012Y7427D01*
X12066Y7416D02*
Y7456D01*
X12074Y7453D02*
X12066Y7445D01*
X12074Y7453D02*
X12080Y7456D01*
X12089D01*
X12094Y7453D01*
X12097Y7445D01*
Y7416D01*
Y7445D02*
X12106Y7453D01*
X12111Y7456D01*
X12120D01*
X12126Y7453D01*
X12129Y7445D01*
Y7416D01*
X12156Y7473D02*
X12153Y7476D01*
X12156Y7473D02*
X12159Y7476D01*
X12156Y7479D01*
X12153Y7476D01*
X12156Y7456D02*
Y7416D01*
X12169D02*
Y7476D01*
X12633Y7473D02*
X12642Y7476D01*
X12633Y7473D02*
X12627Y7465D01*
X12624Y7450D01*
Y7442D01*
X12627Y7427D01*
X12633Y7419D01*
X12642Y7416D01*
X12647D01*
X12656Y7419D01*
X12662Y7427D01*
X12664Y7442D01*
Y7450D01*
X12662Y7465D01*
X12656Y7473D01*
X12647Y7476D01*
X12642D01*
X12681Y7422D02*
X12678Y7419D01*
X12681Y7416D01*
X12684Y7419D01*
X12681Y7422D01*
X12702Y7476D02*
X12734D01*
X12717Y7453D01*
X12725D01*
X12731Y7450D01*
X12734Y7447D01*
X12737Y7439D01*
Y7433D01*
X12734Y7425D01*
X12728Y7419D01*
X12720Y7416D01*
X12711D01*
X12702Y7419D01*
X12700Y7422D01*
X12697Y7427D01*
X12756Y7473D02*
X12764Y7476D01*
X12756Y7473D02*
X12753Y7467D01*
Y7462D01*
X12756Y7456D01*
X12762Y7453D01*
X12773Y7450D01*
X12782Y7447D01*
X12787Y7442D01*
X12790Y7436D01*
Y7427D01*
X12787Y7422D01*
X12784Y7419D01*
X12776Y7416D01*
X12764D01*
X12756Y7419D01*
X12753Y7422D01*
X12750Y7427D01*
Y7436D01*
X12753Y7442D01*
X12759Y7447D01*
X12767Y7450D01*
X12779Y7453D01*
X12784Y7456D01*
X12787Y7462D01*
Y7467D01*
X12784Y7473D01*
X12776Y7476D01*
X12764D01*
X12804Y7465D02*
X12809Y7467D01*
X12818Y7476D01*
Y7416D01*
X12848D02*
Y7456D01*
X12856Y7453D02*
X12848Y7445D01*
X12856Y7453D02*
X12862Y7456D01*
X12870D01*
X12876Y7453D01*
X12879Y7445D01*
Y7416D01*
Y7445D02*
X12888Y7453D01*
X12893Y7456D01*
X12902D01*
X12908Y7453D01*
X12910Y7445D01*
Y7416D01*
X12929D02*
Y7456D01*
X12938Y7453D02*
X12929Y7445D01*
X12938Y7453D02*
X12944Y7456D01*
X12952D01*
X12958Y7453D01*
X12961Y7445D01*
Y7416D01*
Y7445D02*
X12969Y7453D01*
X12975Y7456D01*
X12984D01*
X12989Y7453D01*
X12992Y7445D01*
Y7416D01*
X11502Y7582D02*
Y7585D01*
X11505Y7590D01*
X11508Y7593D01*
X11514Y7596D01*
X11525D01*
X11531Y7593D01*
X11534Y7590D01*
X11537Y7585D01*
Y7579D01*
X11534Y7573D01*
X11528Y7565D01*
X11500Y7536D01*
X11539D01*
X11971Y7582D02*
Y7585D01*
X11974Y7590D01*
X11977Y7593D01*
X11983Y7596D01*
X11994D01*
X12000Y7593D01*
X12003Y7590D01*
X12005Y7585D01*
Y7579D01*
X12003Y7573D01*
X11997Y7565D01*
X11968Y7536D01*
X12008D01*
X12033D02*
X12062Y7596D01*
X12022D01*
X12078Y7542D02*
X12075Y7539D01*
X12078Y7536D01*
X12081Y7539D01*
X12078Y7542D01*
X12100Y7596D02*
X12128D01*
X12100D02*
X12097Y7570D01*
X12100Y7573D01*
X12108Y7576D01*
X12117D01*
X12125Y7573D01*
X12131Y7567D01*
X12134Y7559D01*
Y7553D01*
X12131Y7545D01*
X12125Y7539D01*
X12117Y7536D01*
X12108D01*
X12100Y7539D01*
X12097Y7542D01*
X12094Y7547D01*
X12153Y7596D02*
X12182D01*
X12153D02*
X12150Y7570D01*
X12153Y7573D01*
X12162Y7576D01*
X12170D01*
X12179Y7573D01*
X12184Y7567D01*
X12187Y7559D01*
Y7553D01*
X12184Y7545D01*
X12179Y7539D01*
X12170Y7536D01*
X12162D01*
X12153Y7539D01*
X12150Y7542D01*
X12147Y7547D01*
X12235Y7567D02*
X12238Y7576D01*
X12235Y7567D02*
X12229Y7562D01*
X12221Y7559D01*
X12218D01*
X12209Y7562D01*
X12204Y7567D01*
X12201Y7576D01*
Y7579D01*
X12204Y7587D01*
X12209Y7593D01*
X12218Y7596D01*
X12221D01*
X12229Y7593D01*
X12235Y7587D01*
X12238Y7576D01*
Y7562D01*
X12235Y7547D01*
X12229Y7539D01*
X12221Y7536D01*
X12215D01*
X12206Y7539D01*
X12204Y7545D01*
X12254Y7536D02*
Y7576D01*
X12263Y7573D02*
X12254Y7565D01*
X12263Y7573D02*
X12268Y7576D01*
X12277D01*
X12283Y7573D01*
X12286Y7565D01*
Y7536D01*
Y7565D02*
X12294Y7573D01*
X12300Y7576D01*
X12308D01*
X12314Y7573D01*
X12317Y7565D01*
Y7536D01*
X12344Y7593D02*
X12342Y7596D01*
X12344Y7593D02*
X12347Y7596D01*
X12344Y7599D01*
X12342Y7596D01*
X12344Y7576D02*
Y7536D01*
X12358D02*
Y7596D01*
X12633Y7593D02*
X12642Y7596D01*
X12633Y7593D02*
X12627Y7585D01*
X12624Y7570D01*
Y7562D01*
X12627Y7547D01*
X12633Y7539D01*
X12642Y7536D01*
X12647D01*
X12656Y7539D01*
X12662Y7547D01*
X12664Y7562D01*
Y7570D01*
X12662Y7585D01*
X12656Y7593D01*
X12647Y7596D01*
X12642D01*
X12681Y7542D02*
X12678Y7539D01*
X12681Y7536D01*
X12684Y7539D01*
X12681Y7542D01*
X12708Y7536D02*
X12737Y7596D01*
X12697D01*
X12750Y7576D02*
Y7536D01*
Y7565D02*
X12759Y7573D01*
X12764Y7576D01*
X12773D01*
X12779Y7573D01*
X12782Y7565D01*
Y7536D01*
Y7565D02*
X12790Y7573D01*
X12796Y7576D01*
X12804D01*
X12810Y7573D01*
X12813Y7565D01*
Y7536D01*
X12832D02*
Y7576D01*
X12840Y7573D02*
X12832Y7565D01*
X12840Y7573D02*
X12846Y7576D01*
X12855D01*
X12860Y7573D01*
X12863Y7565D01*
Y7536D01*
Y7565D02*
X12872Y7573D01*
X12878Y7576D01*
X12886D01*
X12892Y7573D01*
X12895Y7565D01*
Y7536D01*
X11502Y7702D02*
Y7705D01*
X11505Y7710D01*
X11508Y7713D01*
X11514Y7716D01*
X11525D01*
X11531Y7713D01*
X11534Y7710D01*
X11537Y7705D01*
Y7699D01*
X11534Y7693D01*
X11528Y7685D01*
X11500Y7656D01*
X11539D01*
X11974Y7716D02*
X12005D01*
X11988Y7693D01*
X11997D01*
X12003Y7690D01*
X12005Y7687D01*
X12008Y7679D01*
Y7673D01*
X12005Y7665D01*
X12000Y7659D01*
X11991Y7656D01*
X11983D01*
X11974Y7659D01*
X11971Y7662D01*
X11968Y7667D01*
X12022Y7705D02*
X12027Y7707D01*
X12036Y7716D01*
Y7656D01*
X12066Y7659D02*
X12069Y7662D01*
X12066Y7659D02*
X12069Y7656D01*
X12071Y7659D01*
X12069Y7662D01*
X12085Y7676D02*
X12113Y7716D01*
X12127Y7676D02*
X12085D01*
X12113Y7656D02*
Y7716D01*
X12175Y7696D02*
X12172Y7687D01*
X12166Y7682D01*
X12158Y7679D01*
X12155D01*
X12146Y7682D01*
X12141Y7687D01*
X12138Y7696D01*
Y7699D01*
X12141Y7707D01*
X12146Y7713D01*
X12155Y7716D01*
X12158D01*
X12166Y7713D01*
X12172Y7707D01*
X12175Y7696D01*
Y7682D01*
X12172Y7667D01*
X12166Y7659D01*
X12158Y7656D01*
X12152D01*
X12144Y7659D01*
X12141Y7665D01*
X12226Y7707D02*
X12223Y7713D01*
X12214Y7716D01*
X12208D01*
X12200Y7713D01*
X12194Y7705D01*
X12191Y7690D01*
Y7676D01*
X12194Y7665D01*
X12200Y7659D01*
X12208Y7656D01*
X12211D01*
X12220Y7659D01*
X12226Y7665D01*
X12228Y7673D01*
Y7676D01*
X12226Y7685D01*
X12220Y7690D01*
X12211Y7693D01*
X12208D01*
X12200Y7690D01*
X12194Y7685D01*
X12191Y7676D01*
X12242Y7696D02*
Y7656D01*
Y7685D02*
X12250Y7693D01*
X12256Y7696D01*
X12264D01*
X12270Y7693D01*
X12273Y7685D01*
Y7656D01*
Y7685D02*
X12282Y7693D01*
X12287Y7696D01*
X12296D01*
X12302Y7693D01*
X12304Y7685D01*
Y7656D01*
X12332Y7713D02*
X12329Y7716D01*
X12332Y7713D02*
X12335Y7716D01*
X12332Y7719D01*
X12329Y7716D01*
X12332Y7696D02*
Y7656D01*
X12345D02*
Y7716D01*
X12633Y7713D02*
X12642Y7716D01*
X12633Y7713D02*
X12627Y7705D01*
X12624Y7690D01*
Y7682D01*
X12627Y7667D01*
X12633Y7659D01*
X12642Y7656D01*
X12647D01*
X12656Y7659D01*
X12662Y7667D01*
X12664Y7682D01*
Y7690D01*
X12662Y7705D01*
X12656Y7713D01*
X12647Y7716D01*
X12642D01*
X12681Y7662D02*
X12678Y7659D01*
X12681Y7656D01*
X12684Y7659D01*
X12681Y7662D01*
X12702Y7713D02*
X12711Y7716D01*
X12702Y7713D02*
X12700Y7707D01*
Y7702D01*
X12702Y7696D01*
X12708Y7693D01*
X12720Y7690D01*
X12728Y7687D01*
X12734Y7682D01*
X12737Y7676D01*
Y7667D01*
X12734Y7662D01*
X12731Y7659D01*
X12722Y7656D01*
X12711D01*
X12702Y7659D01*
X12700Y7662D01*
X12697Y7667D01*
Y7676D01*
X12700Y7682D01*
X12705Y7687D01*
X12714Y7690D01*
X12725Y7693D01*
X12731Y7696D01*
X12734Y7702D01*
Y7707D01*
X12731Y7713D01*
X12722Y7716D01*
X12711D01*
X12750Y7696D02*
Y7656D01*
Y7685D02*
X12759Y7693D01*
X12764Y7696D01*
X12773D01*
X12779Y7693D01*
X12782Y7685D01*
Y7656D01*
Y7685D02*
X12790Y7693D01*
X12796Y7696D01*
X12804D01*
X12810Y7693D01*
X12813Y7685D01*
Y7656D01*
X12832D02*
Y7696D01*
X12840Y7693D02*
X12832Y7685D01*
X12840Y7693D02*
X12846Y7696D01*
X12855D01*
X12860Y7693D01*
X12863Y7685D01*
Y7656D01*
Y7685D02*
X12872Y7693D01*
X12878Y7696D01*
X12886D01*
X12892Y7693D01*
X12895Y7685D01*
Y7656D01*
X11502Y7822D02*
Y7825D01*
X11505Y7830D01*
X11508Y7833D01*
X11514Y7836D01*
X11525D01*
X11531Y7833D01*
X11534Y7830D01*
X11537Y7825D01*
Y7819D01*
X11534Y7813D01*
X11528Y7805D01*
X11500Y7776D01*
X11539D01*
X11974Y7836D02*
X12005D01*
X11988Y7813D01*
X11997D01*
X12003Y7810D01*
X12005Y7807D01*
X12008Y7799D01*
Y7793D01*
X12005Y7785D01*
X12000Y7779D01*
X11991Y7776D01*
X11983D01*
X11974Y7779D01*
X11971Y7782D01*
X11968Y7787D01*
X12027Y7836D02*
X12056D01*
X12027D02*
X12025Y7810D01*
X12027Y7813D01*
X12036Y7816D01*
X12045D01*
X12053Y7813D01*
X12059Y7807D01*
X12062Y7799D01*
Y7793D01*
X12059Y7785D01*
X12053Y7779D01*
X12045Y7776D01*
X12036D01*
X12027Y7779D01*
X12025Y7782D01*
X12022Y7787D01*
X12075Y7779D02*
X12078Y7782D01*
X12075Y7779D02*
X12078Y7776D01*
X12081Y7779D01*
X12078Y7782D01*
X12094Y7796D02*
X12123Y7836D01*
X12137Y7796D02*
X12094D01*
X12123Y7776D02*
Y7836D01*
X12153D02*
X12184D01*
X12167Y7813D01*
X12176D01*
X12182Y7810D01*
X12184Y7807D01*
X12187Y7799D01*
Y7793D01*
X12184Y7785D01*
X12179Y7779D01*
X12170Y7776D01*
X12162D01*
X12153Y7779D01*
X12150Y7782D01*
X12147Y7787D01*
X12206Y7836D02*
X12238D01*
X12221Y7813D01*
X12229D01*
X12235Y7810D01*
X12238Y7807D01*
X12241Y7799D01*
Y7793D01*
X12238Y7785D01*
X12232Y7779D01*
X12224Y7776D01*
X12215D01*
X12206Y7779D01*
X12204Y7782D01*
X12201Y7787D01*
X12254Y7776D02*
Y7816D01*
X12263Y7813D02*
X12254Y7805D01*
X12263Y7813D02*
X12268Y7816D01*
X12277D01*
X12283Y7813D01*
X12286Y7805D01*
Y7776D01*
Y7805D02*
X12294Y7813D01*
X12300Y7816D01*
X12308D01*
X12314Y7813D01*
X12317Y7805D01*
Y7776D01*
X12344Y7833D02*
X12342Y7836D01*
X12344Y7833D02*
X12347Y7836D01*
X12344Y7839D01*
X12342Y7836D01*
X12344Y7816D02*
Y7776D01*
X12358D02*
Y7836D01*
X12633Y7833D02*
X12642Y7836D01*
X12633Y7833D02*
X12627Y7825D01*
X12624Y7810D01*
Y7802D01*
X12627Y7787D01*
X12633Y7779D01*
X12642Y7776D01*
X12647D01*
X12656Y7779D01*
X12662Y7787D01*
X12664Y7802D01*
Y7810D01*
X12662Y7825D01*
X12656Y7833D01*
X12647Y7836D01*
X12642D01*
X12681Y7782D02*
X12678Y7779D01*
X12681Y7776D01*
X12684Y7779D01*
X12681Y7782D01*
X12731Y7807D02*
X12734Y7816D01*
X12731Y7807D02*
X12725Y7802D01*
X12717Y7799D01*
X12714D01*
X12705Y7802D01*
X12700Y7807D01*
X12697Y7816D01*
Y7819D01*
X12700Y7827D01*
X12705Y7833D01*
X12714Y7836D01*
X12717D01*
X12725Y7833D01*
X12731Y7827D01*
X12734Y7816D01*
Y7802D01*
X12731Y7787D01*
X12725Y7779D01*
X12717Y7776D01*
X12711D01*
X12702Y7779D01*
X12700Y7785D01*
X12750Y7776D02*
Y7816D01*
X12759Y7813D02*
X12750Y7805D01*
X12759Y7813D02*
X12764Y7816D01*
X12773D01*
X12779Y7813D01*
X12782Y7805D01*
Y7776D01*
Y7805D02*
X12790Y7813D01*
X12796Y7816D01*
X12804D01*
X12810Y7813D01*
X12813Y7805D01*
Y7776D01*
X12832D02*
Y7816D01*
X12840Y7813D02*
X12832Y7805D01*
X12840Y7813D02*
X12846Y7816D01*
X12855D01*
X12860Y7813D01*
X12863Y7805D01*
Y7776D01*
Y7805D02*
X12872Y7813D01*
X12878Y7816D01*
X12886D01*
X12892Y7813D01*
X12895Y7805D01*
Y7776D01*
X11502Y7942D02*
Y7945D01*
X11505Y7950D01*
X11508Y7953D01*
X11514Y7956D01*
X11525D01*
X11531Y7953D01*
X11534Y7950D01*
X11537Y7945D01*
Y7939D01*
X11534Y7933D01*
X11528Y7925D01*
X11500Y7896D01*
X11539D01*
X11974Y7956D02*
X12005D01*
X11988Y7933D01*
X11997D01*
X12003Y7930D01*
X12005Y7927D01*
X12008Y7919D01*
Y7913D01*
X12005Y7905D01*
X12000Y7899D01*
X11991Y7896D01*
X11983D01*
X11974Y7899D01*
X11971Y7902D01*
X11968Y7907D01*
X12056Y7927D02*
X12059Y7936D01*
X12056Y7927D02*
X12050Y7922D01*
X12042Y7919D01*
X12039D01*
X12030Y7922D01*
X12025Y7927D01*
X12022Y7936D01*
Y7939D01*
X12025Y7947D01*
X12030Y7953D01*
X12039Y7956D01*
X12042D01*
X12050Y7953D01*
X12056Y7947D01*
X12059Y7936D01*
Y7922D01*
X12056Y7907D01*
X12050Y7899D01*
X12042Y7896D01*
X12036D01*
X12027Y7899D01*
X12025Y7905D01*
X12075Y7899D02*
X12078Y7902D01*
X12075Y7899D02*
X12078Y7896D01*
X12081Y7899D01*
X12078Y7902D01*
X12100Y7956D02*
X12131D01*
X12114Y7933D01*
X12123D01*
X12128Y7930D01*
X12131Y7927D01*
X12134Y7919D01*
Y7913D01*
X12131Y7905D01*
X12125Y7899D01*
X12117Y7896D01*
X12108D01*
X12100Y7899D01*
X12097Y7902D01*
X12094Y7907D01*
X12159Y7896D02*
X12187Y7956D01*
X12147D01*
X12201Y7936D02*
Y7896D01*
Y7925D02*
X12209Y7933D01*
X12215Y7936D01*
X12224D01*
X12229Y7933D01*
X12232Y7925D01*
Y7896D01*
Y7925D02*
X12241Y7933D01*
X12246Y7936D01*
X12255D01*
X12261Y7933D01*
X12264Y7925D01*
Y7896D01*
X12291Y7953D02*
X12288Y7956D01*
X12291Y7953D02*
X12294Y7956D01*
X12291Y7959D01*
X12288Y7956D01*
X12291Y7936D02*
Y7896D01*
X12304D02*
Y7956D01*
X12624Y7945D02*
X12630Y7947D01*
X12639Y7956D01*
Y7896D01*
X12668D02*
Y7936D01*
X12677Y7933D02*
X12668Y7925D01*
X12677Y7933D02*
X12683Y7936D01*
X12691D01*
X12697Y7933D01*
X12700Y7925D01*
Y7896D01*
Y7925D02*
X12708Y7933D01*
X12714Y7936D01*
X12723D01*
X12728Y7933D01*
X12731Y7925D01*
Y7896D01*
X12750D02*
Y7936D01*
X12759Y7933D02*
X12750Y7925D01*
X12759Y7933D02*
X12764Y7936D01*
X12773D01*
X12779Y7933D01*
X12782Y7925D01*
Y7896D01*
Y7925D02*
X12790Y7933D01*
X12796Y7936D01*
X12804D01*
X12810Y7933D01*
X12813Y7925D01*
Y7896D01*
X11502Y8062D02*
Y8065D01*
X11505Y8070D01*
X11508Y8073D01*
X11514Y8076D01*
X11525D01*
X11531Y8073D01*
X11534Y8070D01*
X11537Y8065D01*
Y8059D01*
X11534Y8053D01*
X11528Y8045D01*
X11500Y8016D01*
X11539D01*
X11968Y8036D02*
X11997Y8076D01*
X12011Y8036D02*
X11968D01*
X11997Y8016D02*
Y8076D01*
X12062D02*
X12033Y8016D01*
X12022Y8076D02*
X12062D01*
X12078Y8022D02*
X12075Y8019D01*
X12078Y8016D01*
X12081Y8019D01*
X12078Y8022D01*
X12097Y8062D02*
Y8065D01*
X12100Y8070D01*
X12103Y8073D01*
X12108Y8076D01*
X12120D01*
X12125Y8073D01*
X12128Y8070D01*
X12131Y8065D01*
Y8059D01*
X12128Y8053D01*
X12123Y8045D01*
X12094Y8016D01*
X12134D01*
X12147Y8036D02*
X12176Y8076D01*
X12190Y8036D02*
X12147D01*
X12176Y8016D02*
Y8076D01*
X12201Y8036D02*
X12229Y8076D01*
X12244Y8036D02*
X12201D01*
X12229Y8016D02*
Y8076D01*
X12254Y8056D02*
Y8016D01*
Y8045D02*
X12263Y8053D01*
X12268Y8056D01*
X12277D01*
X12283Y8053D01*
X12286Y8045D01*
Y8016D01*
Y8045D02*
X12294Y8053D01*
X12300Y8056D01*
X12308D01*
X12314Y8053D01*
X12317Y8045D01*
Y8016D01*
X12344Y8073D02*
X12342Y8076D01*
X12344Y8073D02*
X12347Y8076D01*
X12344Y8079D01*
X12342Y8076D01*
X12344Y8056D02*
Y8016D01*
X12358D02*
Y8076D01*
X12624Y8065D02*
X12630Y8067D01*
X12639Y8076D01*
Y8016D01*
X12668Y8019D02*
X12671Y8022D01*
X12668Y8019D02*
X12671Y8016D01*
X12674Y8019D01*
X12671Y8022D01*
X12690Y8062D02*
Y8065D01*
X12693Y8070D01*
X12696Y8073D01*
X12702Y8076D01*
X12713D01*
X12719Y8073D01*
X12722Y8070D01*
X12724Y8065D01*
Y8059D01*
X12722Y8053D01*
X12716Y8045D01*
X12687Y8016D01*
X12727D01*
X12741D02*
Y8056D01*
X12749Y8053D02*
X12741Y8045D01*
X12749Y8053D02*
X12755Y8056D01*
X12764D01*
X12769Y8053D01*
X12772Y8045D01*
Y8016D01*
Y8045D02*
X12781Y8053D01*
X12786Y8056D01*
X12795D01*
X12801Y8053D01*
X12804Y8045D01*
Y8016D01*
X12822D02*
Y8056D01*
X12831Y8053D02*
X12822Y8045D01*
X12831Y8053D02*
X12837Y8056D01*
X12845D01*
X12851Y8053D01*
X12854Y8045D01*
Y8016D01*
Y8045D02*
X12862Y8053D01*
X12868Y8056D01*
X12877D01*
X12882Y8053D01*
X12885Y8045D01*
Y8016D01*
X11528Y8196D02*
X11500Y8156D01*
X11542D01*
X11528Y8136D02*
Y8196D01*
X11974D02*
X12003D01*
X11974D02*
X11971Y8170D01*
X11974Y8173D01*
X11983Y8176D01*
X11991D01*
X12000Y8173D01*
X12005Y8167D01*
X12008Y8159D01*
Y8153D01*
X12005Y8145D01*
X12000Y8139D01*
X11991Y8136D01*
X11983D01*
X11974Y8139D01*
X11971Y8142D01*
X11968Y8147D01*
X12030Y8193D02*
X12039Y8196D01*
X12030Y8193D02*
X12025Y8185D01*
X12022Y8170D01*
Y8162D01*
X12025Y8147D01*
X12030Y8139D01*
X12039Y8136D01*
X12045D01*
X12053Y8139D01*
X12059Y8147D01*
X12062Y8162D01*
Y8170D01*
X12059Y8185D01*
X12053Y8193D01*
X12045Y8196D01*
X12039D01*
X12075Y8176D02*
Y8136D01*
Y8165D02*
X12084Y8173D01*
X12089Y8176D01*
X12098D01*
X12104Y8173D01*
X12107Y8165D01*
Y8136D01*
Y8165D02*
X12115Y8173D01*
X12121Y8176D01*
X12129D01*
X12135Y8173D01*
X12138Y8165D01*
Y8136D01*
X12165Y8193D02*
X12162Y8196D01*
X12165Y8193D02*
X12168Y8196D01*
X12165Y8199D01*
X12162Y8196D01*
X12165Y8176D02*
Y8136D01*
X12179D02*
Y8196D01*
X12624Y8185D02*
X12630Y8187D01*
X12639Y8196D01*
Y8136D01*
X12668Y8139D02*
X12671Y8142D01*
X12668Y8139D02*
X12671Y8136D01*
X12674Y8139D01*
X12671Y8142D01*
X12690Y8182D02*
Y8185D01*
X12693Y8190D01*
X12696Y8193D01*
X12702Y8196D01*
X12713D01*
X12719Y8193D01*
X12722Y8190D01*
X12724Y8185D01*
Y8179D01*
X12722Y8173D01*
X12716Y8165D01*
X12687Y8136D01*
X12727D01*
X12752D02*
X12781Y8196D01*
X12741D01*
X12794Y8176D02*
Y8136D01*
Y8165D02*
X12803Y8173D01*
X12808Y8176D01*
X12817D01*
X12823Y8173D01*
X12826Y8165D01*
Y8136D01*
Y8165D02*
X12834Y8173D01*
X12840Y8176D01*
X12848D01*
X12854Y8173D01*
X12857Y8165D01*
Y8136D01*
X12876D02*
Y8176D01*
X12884Y8173D02*
X12876Y8165D01*
X12884Y8173D02*
X12890Y8176D01*
X12899D01*
X12904Y8173D01*
X12907Y8165D01*
Y8136D01*
Y8165D02*
X12916Y8173D01*
X12922Y8176D01*
X12930D01*
X12936Y8173D01*
X12939Y8165D01*
Y8136D01*
X11528Y8316D02*
X11500Y8276D01*
X11542D01*
X11528Y8256D02*
Y8316D01*
X11968Y8305D02*
X11974Y8307D01*
X11983Y8316D01*
Y8256D01*
X12012Y8305D02*
X12018Y8307D01*
X12027Y8316D01*
Y8256D01*
X12062Y8316D02*
X12091D01*
X12062D02*
X12059Y8290D01*
X12062Y8293D01*
X12071Y8296D01*
X12079D01*
X12088Y8293D01*
X12093Y8287D01*
X12096Y8279D01*
Y8273D01*
X12093Y8265D01*
X12088Y8259D01*
X12079Y8256D01*
X12071D01*
X12062Y8259D01*
X12059Y8262D01*
X12056Y8267D01*
X12110Y8256D02*
Y8296D01*
X12118Y8293D02*
X12110Y8285D01*
X12118Y8293D02*
X12124Y8296D01*
X12133D01*
X12138Y8293D01*
X12141Y8285D01*
Y8256D01*
Y8285D02*
X12150Y8293D01*
X12155Y8296D01*
X12164D01*
X12170Y8293D01*
X12172Y8285D01*
Y8256D01*
X12200Y8313D02*
X12197Y8316D01*
X12200Y8313D02*
X12203Y8316D01*
X12200Y8319D01*
X12197Y8316D01*
X12200Y8296D02*
Y8256D01*
X12213D02*
Y8316D01*
X12627Y8305D02*
Y8302D01*
Y8305D02*
X12630Y8310D01*
X12633Y8313D01*
X12639Y8316D01*
X12650D01*
X12656Y8313D01*
X12659Y8310D01*
X12662Y8305D01*
Y8299D01*
X12659Y8293D01*
X12653Y8285D01*
X12624Y8256D01*
X12664D01*
X12678Y8259D02*
X12681Y8262D01*
X12678Y8259D02*
X12681Y8256D01*
X12684Y8259D01*
X12681Y8262D01*
X12731Y8287D02*
X12734Y8296D01*
X12731Y8287D02*
X12725Y8282D01*
X12717Y8279D01*
X12714D01*
X12705Y8282D01*
X12700Y8287D01*
X12697Y8296D01*
Y8299D01*
X12700Y8307D01*
X12705Y8313D01*
X12714Y8316D01*
X12717D01*
X12725Y8313D01*
X12731Y8307D01*
X12734Y8296D01*
Y8282D01*
X12731Y8267D01*
X12725Y8259D01*
X12717Y8256D01*
X12711D01*
X12702Y8259D01*
X12700Y8265D01*
X12753Y8302D02*
Y8305D01*
X12756Y8310D01*
X12759Y8313D01*
X12764Y8316D01*
X12776D01*
X12782Y8313D01*
X12784Y8310D01*
X12787Y8305D01*
Y8299D01*
X12784Y8293D01*
X12779Y8285D01*
X12750Y8256D01*
X12790D01*
X12804Y8305D02*
X12809Y8307D01*
X12818Y8316D01*
Y8256D01*
X12848D02*
Y8296D01*
X12856Y8293D02*
X12848Y8285D01*
X12856Y8293D02*
X12862Y8296D01*
X12870D01*
X12876Y8293D01*
X12879Y8285D01*
Y8256D01*
Y8285D02*
X12888Y8293D01*
X12893Y8296D01*
X12902D01*
X12908Y8293D01*
X12910Y8285D01*
Y8256D01*
X12929D02*
Y8296D01*
X12938Y8293D02*
X12929Y8285D01*
X12938Y8293D02*
X12944Y8296D01*
X12952D01*
X12958Y8293D01*
X12961Y8285D01*
Y8256D01*
Y8285D02*
X12969Y8293D01*
X12975Y8296D01*
X12984D01*
X12989Y8293D01*
X12992Y8285D01*
Y8256D01*
X11502Y8422D02*
Y8425D01*
X11505Y8430D01*
X11508Y8433D01*
X11514Y8436D01*
X11525D01*
X11531Y8433D01*
X11534Y8430D01*
X11537Y8425D01*
Y8419D01*
X11534Y8413D01*
X11528Y8405D01*
X11500Y8376D01*
X11539D01*
X11968Y8425D02*
X11974Y8427D01*
X11983Y8436D01*
Y8376D01*
X12018Y8436D02*
X12049D01*
X12032Y8413D01*
X12041D01*
X12047Y8410D01*
X12049Y8407D01*
X12052Y8399D01*
Y8393D01*
X12049Y8385D01*
X12044Y8379D01*
X12035Y8376D01*
X12027D01*
X12018Y8379D01*
X12015Y8382D01*
X12012Y8387D01*
X12077Y8376D02*
X12106Y8436D01*
X12066D01*
X12122Y8382D02*
X12119Y8379D01*
X12122Y8376D01*
X12125Y8379D01*
X12122Y8382D01*
X12149Y8376D02*
X12178Y8436D01*
X12138D01*
X12226Y8407D02*
X12228Y8416D01*
X12226Y8407D02*
X12220Y8402D01*
X12211Y8399D01*
X12208D01*
X12200Y8402D01*
X12194Y8407D01*
X12191Y8416D01*
Y8419D01*
X12194Y8427D01*
X12200Y8433D01*
X12208Y8436D01*
X12211D01*
X12220Y8433D01*
X12226Y8427D01*
X12228Y8416D01*
Y8402D01*
X12226Y8387D01*
X12220Y8379D01*
X12211Y8376D01*
X12206D01*
X12197Y8379D01*
X12194Y8385D01*
X12250Y8436D02*
X12279D01*
X12250D02*
X12248Y8410D01*
X12250Y8413D01*
X12259Y8416D01*
X12268D01*
X12276Y8413D01*
X12282Y8407D01*
X12285Y8399D01*
Y8393D01*
X12282Y8385D01*
X12276Y8379D01*
X12268Y8376D01*
X12259D01*
X12250Y8379D01*
X12248Y8382D01*
X12245Y8387D01*
X12298Y8376D02*
Y8416D01*
X12307Y8413D02*
X12298Y8405D01*
X12307Y8413D02*
X12312Y8416D01*
X12321D01*
X12327Y8413D01*
X12330Y8405D01*
Y8376D01*
Y8405D02*
X12338Y8413D01*
X12344Y8416D01*
X12352D01*
X12358Y8413D01*
X12361Y8405D01*
Y8376D01*
X12388Y8433D02*
X12386Y8436D01*
X12388Y8433D02*
X12391Y8436D01*
X12388Y8439D01*
X12386Y8436D01*
X12388Y8416D02*
Y8376D01*
X12402D02*
Y8436D01*
X12630D02*
X12662D01*
X12644Y8413D01*
X12653D01*
X12659Y8410D01*
X12662Y8407D01*
X12664Y8399D01*
Y8393D01*
X12662Y8385D01*
X12656Y8379D01*
X12647Y8376D01*
X12639D01*
X12630Y8379D01*
X12627Y8382D01*
X12624Y8387D01*
X12678Y8379D02*
X12681Y8382D01*
X12678Y8379D02*
X12681Y8376D01*
X12684Y8379D01*
X12681Y8382D01*
X12702Y8436D02*
X12731D01*
X12702D02*
X12700Y8410D01*
X12702Y8413D01*
X12711Y8416D01*
X12720D01*
X12728Y8413D01*
X12734Y8407D01*
X12737Y8399D01*
Y8393D01*
X12734Y8385D01*
X12728Y8379D01*
X12720Y8376D01*
X12711D01*
X12702Y8379D01*
X12700Y8382D01*
X12697Y8387D01*
X12750Y8376D02*
Y8416D01*
X12759Y8413D02*
X12750Y8405D01*
X12759Y8413D02*
X12764Y8416D01*
X12773D01*
X12779Y8413D01*
X12782Y8405D01*
Y8376D01*
Y8405D02*
X12790Y8413D01*
X12796Y8416D01*
X12804D01*
X12810Y8413D01*
X12813Y8405D01*
Y8376D01*
X12832D02*
Y8416D01*
X12840Y8413D02*
X12832Y8405D01*
X12840Y8413D02*
X12846Y8416D01*
X12855D01*
X12860Y8413D01*
X12863Y8405D01*
Y8376D01*
Y8405D02*
X12872Y8413D01*
X12878Y8416D01*
X12886D01*
X12892Y8413D01*
X12895Y8405D01*
Y8376D01*
X11502Y7345D02*
Y7342D01*
Y7345D02*
X11505Y7350D01*
X11508Y7353D01*
X11514Y7356D01*
X11525D01*
X11531Y7353D01*
X11534Y7350D01*
X11537Y7345D01*
Y7339D01*
X11534Y7333D01*
X11528Y7325D01*
X11500Y7296D01*
X11539D01*
X11561Y7353D02*
X11570Y7356D01*
X11561Y7353D02*
X11556Y7345D01*
X11553Y7330D01*
Y7322D01*
X11556Y7307D01*
X11561Y7299D01*
X11570Y7296D01*
X11576D01*
X11584Y7299D01*
X11590Y7307D01*
X11593Y7322D01*
Y7330D01*
X11590Y7345D01*
X11584Y7353D01*
X11576Y7356D01*
X11570D01*
X11638Y7353D02*
X11641Y7347D01*
X11638Y7353D02*
X11629Y7356D01*
X11623D01*
X11615Y7353D01*
X11609Y7345D01*
X11606Y7330D01*
Y7316D01*
X11609Y7305D01*
X11615Y7299D01*
X11623Y7296D01*
X11626D01*
X11635Y7299D01*
X11641Y7305D01*
X11643Y7313D01*
Y7316D01*
X11641Y7325D01*
X11635Y7330D01*
X11626Y7333D01*
X11623D01*
X11615Y7330D01*
X11609Y7325D01*
X11606Y7316D01*
X11988Y7296D02*
Y7356D01*
X11968D02*
X12008D01*
X12024Y7333D02*
X12030Y7336D01*
X12024Y7333D02*
X12018Y7327D01*
X12015Y7319D01*
Y7313D01*
X12018Y7305D01*
X12024Y7299D01*
X12030Y7296D01*
X12038D01*
X12044Y7299D01*
X12050Y7305D01*
X12053Y7313D01*
Y7319D01*
X12050Y7327D01*
X12044Y7333D01*
X12038Y7336D01*
X12030D01*
X12074Y7356D02*
Y7307D01*
X12077Y7299D01*
X12083Y7296D01*
X12089D01*
X12086Y7336D02*
X12066D01*
X12131D02*
Y7296D01*
Y7327D02*
X12126Y7333D01*
X12120Y7336D01*
X12111D01*
X12106Y7333D01*
X12100Y7327D01*
X12097Y7319D01*
Y7313D01*
X12100Y7305D01*
X12106Y7299D01*
X12111Y7296D01*
X12120D01*
X12126Y7299D01*
X12131Y7305D01*
X12147Y7296D02*
Y7356D01*
D02*
M02*
