*%FSLAX23Y23*%
*%MOIN*%
G01*
%ADD11C,0.000*%
%ADD12C,0.000*%
%ADD13C,0.000*%
%ADD14C,0.001*%
%ADD15C,0.002*%
%ADD16C,0.006*%
%ADD17C,0.007*%
%ADD18C,0.007*%
%ADD19C,0.008*%
%ADD20C,0.010*%
%ADD21C,0.012*%
%ADD22C,0.015*%
%ADD23C,0.015*%
%ADD24C,0.018*%
%ADD25C,0.020*%
%ADD26C,0.022*%
%ADD27C,0.024*%
%ADD28C,0.025*%
%ADD29C,0.028*%
%ADD30C,0.029*%
%ADD31C,0.031*%
%ADD32C,0.031*%
%ADD33C,0.035*%
%ADD34C,0.035*%
%ADD35C,0.039*%
%ADD36C,0.043*%
%ADD37C,0.045*%
%ADD38C,0.047*%
%ADD39C,0.048*%
%ADD40C,0.049*%
%ADD41C,0.050*%
%ADD42C,0.050*%
%ADD43C,0.051*%
%ADD44C,0.051*%
%ADD45C,0.054*%
%ADD46C,0.055*%
%ADD47C,0.055*%
%ADD48C,0.059*%
%ADD49C,0.059*%
%ADD50C,0.062*%
%ADD51C,0.066*%
%ADD52C,0.067*%
%ADD53C,0.070*%
%ADD54C,0.074*%
%ADD55C,0.115*%
%ADD56C,0.135*%
%ADD57C,0.138*%
%ADD58C,0.138*%
%ADD59C,0.158*%
%ADD60C,0.158*%
%ADD61C,0.190*%
%ADD62C,0.194*%
%ADD63C,0.236*%
%ADD64C,0.240*%
%ADD65R,0.011X0.030*%
%ADD66R,0.012X0.030*%
%ADD67R,0.014X0.033*%
%ADD68R,0.014X0.037*%
%ADD69R,0.015X0.034*%
%ADD70R,0.016X0.034*%
%ADD71R,0.018X0.037*%
%ADD72R,0.018X0.041*%
%ADD73R,0.020X0.025*%
%ADD74R,0.021X0.021*%
%ADD75R,0.024X0.029*%
%ADD76R,0.025X0.020*%
%ADD77R,0.029X0.024*%
%ADD78R,0.030X0.011*%
%ADD79R,0.030X0.030*%
%ADD80R,0.030X0.050*%
%ADD81R,0.031X0.031*%
%ADD82R,0.033X0.014*%
%ADD83R,0.034X0.015*%
%ADD84R,0.034X0.034*%
%ADD85R,0.034X0.054*%
%ADD86R,0.035X0.035*%
%ADD87R,0.037X0.014*%
%ADD88R,0.037X0.018*%
%ADD89R,0.039X0.014*%
%ADD90R,0.039X0.041*%
%ADD91R,0.040X0.050*%
%ADD92R,0.040X0.083*%
%ADD93R,0.041X0.018*%
%ADD94R,0.041X0.087*%
%ADD95R,0.043X0.018*%
%ADD96R,0.043X0.045*%
%ADD97R,0.044X0.054*%
%ADD98R,0.044X0.087*%
%ADD99R,0.045X0.091*%
%ADD100R,0.047X0.055*%
%ADD101R,0.048X0.024*%
%ADD102R,0.050X0.023*%
%ADD103R,0.050X0.030*%
%ADD104R,0.050X0.040*%
%ADD105R,0.050X0.060*%
%ADD106R,0.051X0.059*%
%ADD107R,0.052X0.028*%
%ADD108R,0.054X0.027*%
%ADD109R,0.054X0.034*%
%ADD110R,0.054X0.044*%
%ADD111R,0.054X0.064*%
%ADD112R,0.055X0.039*%
%ADD113R,0.057X0.012*%
%ADD114R,0.057X0.067*%
%ADD115R,0.059X0.043*%
%ADD116R,0.060X0.060*%
%ADD117R,0.061X0.024*%
%ADD118R,0.061X0.051*%
%ADD119R,0.061X0.016*%
%ADD120R,0.061X0.071*%
%ADD121R,0.063X0.039*%
%ADD122R,0.064X0.064*%
%ADD123R,0.065X0.028*%
%ADD124R,0.065X0.055*%
%ADD125R,0.067X0.043*%
%ADD126R,0.085X0.030*%
%ADD127R,0.085X0.085*%
%ADD128R,0.089X0.034*%
%ADD129R,0.094X0.030*%
%ADD130R,0.098X0.034*%
%ADD131R,0.104X0.104*%
%ADD132R,0.108X0.108*%
%ADD133R,0.116X0.138*%
%ADD134R,0.120X0.142*%
%ADD135R,0.169X0.169*%
%ADD136R,0.173X0.173*%
D26*
X10789Y8106D02*
D03*
X10824D02*
D03*
Y8141D02*
D03*
X10789D02*
D03*
X10209Y7735D02*
D03*
X10178Y7709D02*
D03*
X10177Y7777D02*
D03*
X10210D02*
D03*
X10144D02*
D03*
Y7709D02*
D03*
D30*
X11164Y8241D02*
D03*
X11204Y8251D02*
D03*
Y8211D02*
D03*
X11144Y8551D02*
D03*
X11164Y7816D02*
D03*
X11194Y7951D02*
D03*
X11094Y8501D02*
D03*
X11064Y8621D02*
D03*
X11032Y8002D02*
D03*
X11022Y7942D02*
D03*
X10804Y8596D02*
D03*
X10752Y8627D02*
D03*
X10804Y8406D02*
D03*
X10837Y8302D02*
D03*
X10937Y8002D02*
D03*
X10857Y8127D02*
D03*
X10869Y8086D02*
D03*
Y8161D02*
D03*
X10844Y7551D02*
D03*
X10874Y7896D02*
D03*
X10937Y7737D02*
D03*
X10604Y8156D02*
D03*
X10732Y8597D02*
D03*
X10642Y8407D02*
D03*
X10672Y8112D02*
D03*
X10587Y8407D02*
D03*
Y8627D02*
D03*
X10746Y8146D02*
D03*
Y8106D02*
D03*
X10709Y8126D02*
D03*
X10627Y7962D02*
D03*
X10562Y7637D02*
D03*
X10592D02*
D03*
X10622D02*
D03*
X10667Y7442D02*
D03*
X10726Y7941D02*
D03*
X10487Y8407D02*
D03*
X10437D02*
D03*
Y8252D02*
D03*
X10534Y8211D02*
D03*
X10392Y8092D02*
D03*
Y8157D02*
D03*
Y8212D02*
D03*
X10384Y7771D02*
D03*
X10397Y7407D02*
D03*
X10192Y8117D02*
D03*
X10237Y8407D02*
D03*
X10287D02*
D03*
X10187Y8627D02*
D03*
X10312Y8007D02*
D03*
X10337Y8627D02*
D03*
X10187Y8407D02*
D03*
X10339Y8241D02*
D03*
X10259Y7836D02*
D03*
X10207Y7617D02*
D03*
X10187Y7867D02*
D03*
X10222D02*
D03*
X10257D02*
D03*
X10264Y7411D02*
D03*
X10022Y8082D02*
D03*
X10057Y8192D02*
D03*
X10082Y8607D02*
D03*
X10137Y8407D02*
D03*
Y8597D02*
D03*
X10024Y7866D02*
D03*
X10054Y7756D02*
D03*
X10042Y7607D02*
D03*
X10127Y7617D02*
D03*
X10162D02*
D03*
X9887Y8405D02*
D03*
X9837Y8391D02*
D03*
X9854Y8596D02*
D03*
X9837Y8257D02*
D03*
X9787Y8407D02*
D03*
X9887Y8627D02*
D03*
X9952Y8007D02*
D03*
X9937Y8542D02*
D03*
X9922Y8212D02*
D03*
X9924Y8121D02*
D03*
X9822Y7782D02*
D03*
X9787Y7417D02*
D03*
X9872Y7852D02*
D03*
X9877Y7587D02*
D03*
X9832Y7417D02*
D03*
X9802Y7897D02*
D03*
X9772Y7917D02*
D03*
X9786Y7850D02*
D03*
X9637Y8517D02*
D03*
X9687Y8407D02*
D03*
X9737Y8257D02*
D03*
X9727Y8212D02*
D03*
X9737Y8407D02*
D03*
Y8032D02*
D03*
X9707Y7901D02*
D03*
X9717Y7587D02*
D03*
X9742Y7901D02*
D03*
X9437Y8567D02*
D03*
X9387Y8032D02*
D03*
X9497Y8212D02*
D03*
X9437Y8282D02*
D03*
X9507Y8407D02*
D03*
X9472D02*
D03*
X9387Y8627D02*
D03*
X9411Y8115D02*
D03*
X9537Y8282D02*
D03*
Y8627D02*
D03*
X9414Y7476D02*
D03*
X9474D02*
D03*
X9384Y7666D02*
D03*
X9407Y7697D02*
D03*
X9467Y7847D02*
D03*
Y7937D02*
D03*
X9522Y7637D02*
D03*
X9517Y7847D02*
D03*
X9567D02*
D03*
Y7937D02*
D03*
X9517D02*
D03*
X9564Y7686D02*
D03*
X9276Y8121D02*
D03*
X9277Y8212D02*
D03*
X9227Y8177D02*
D03*
X9197Y8152D02*
D03*
X9237Y8517D02*
D03*
X9187Y8627D02*
D03*
X9186Y7981D02*
D03*
X9337Y8542D02*
D03*
X9352Y8007D02*
D03*
X9337Y8282D02*
D03*
X9309Y7806D02*
D03*
X9299Y7621D02*
D03*
Y7476D02*
D03*
Y7556D02*
D03*
X9212Y7492D02*
D03*
X9302Y7742D02*
D03*
X9187Y7862D02*
D03*
X9364Y7821D02*
D03*
X9359Y7476D02*
D03*
Y7636D02*
D03*
X8992Y8092D02*
D03*
X9002Y8412D02*
D03*
X9077Y8177D02*
D03*
X9112Y8152D02*
D03*
X9087Y8412D02*
D03*
X9037Y8492D02*
D03*
X8992Y8172D02*
D03*
X9137Y8597D02*
D03*
Y8452D02*
D03*
X9151Y8016D02*
D03*
X9052Y7422D02*
D03*
Y7487D02*
D03*
X9047Y7907D02*
D03*
X9101Y7691D02*
D03*
X9051Y7716D02*
D03*
X9021Y7846D02*
D03*
X9051Y7771D02*
D03*
X9004Y7411D02*
D03*
X9127Y7927D02*
D03*
X9126Y7746D02*
D03*
X8879Y8406D02*
D03*
X8917Y8212D02*
D03*
X8884Y8656D02*
D03*
X8896Y7876D02*
D03*
X8952Y7547D02*
D03*
X8822Y8257D02*
D03*
X8811Y8136D02*
D03*
X8821Y8041D02*
D03*
X8834Y7646D02*
D03*
X8839Y7411D02*
D03*
X8631Y8161D02*
D03*
X8701Y8196D02*
D03*
X8746Y8161D02*
D03*
X8594Y8256D02*
D03*
Y8086D02*
D03*
Y7646D02*
D03*
Y7886D02*
D03*
D36*
X8671Y8586D02*
D03*
X11177Y8617D02*
D03*
X11142Y7462D02*
D03*
D40*
X10937Y8102D02*
D03*
Y8181D02*
D03*
D45*
X10036Y8616D02*
D03*
X9957D02*
D03*
X11071Y7920D02*
D03*
X11071Y7652D02*
D03*
D48*
X8819Y8089D02*
D03*
Y7939D02*
D03*
D51*
X8937Y8407D02*
D03*
X10737Y8407D02*
D03*
D54*
X9946Y7488D02*
D03*
X10046D02*
D03*
X10146D02*
D03*
X10246D02*
D03*
D62*
X10561Y7500D02*
D03*
X9624Y7499D02*
D03*
D64*
X10978Y8406D02*
D03*
Y7501D02*
D03*
X8695Y8406D02*
D03*
Y7501D02*
D03*
D70*
X10776Y8180D02*
D03*
X10796D02*
D03*
X10815D02*
D03*
X10835D02*
D03*
Y8066D02*
D03*
X10815D02*
D03*
X10796D02*
D03*
X10776Y8066D02*
D03*
D71*
X10216Y7664D02*
D03*
X10190D02*
D03*
X10164D02*
D03*
X10139D02*
D03*
X10139Y7819D02*
D03*
X10164Y7819D02*
D03*
X10190D02*
D03*
X10216D02*
D03*
D72*
X10337Y7967D02*
D03*
Y8047D02*
D03*
X10387D02*
D03*
Y7967D02*
D03*
X10362D02*
D03*
D77*
X10102Y7417D02*
D03*
X10052D02*
D03*
X9897D02*
D03*
X9947D02*
D03*
X9277Y7832D02*
D03*
X9227D02*
D03*
X9277Y7772D02*
D03*
X9227D02*
D03*
D84*
X11014Y8586D02*
D03*
Y8641D02*
D03*
X11104D02*
D03*
Y8586D02*
D03*
X10572Y8022D02*
D03*
X10627D02*
D03*
X9789Y7526D02*
D03*
Y7581D02*
D03*
X10232Y8647D02*
D03*
X10287D02*
D03*
X10387D02*
D03*
X10442D02*
D03*
X10727Y7467D02*
D03*
X10782D02*
D03*
X10820Y7801D02*
D03*
X10875D02*
D03*
X10907Y7872D02*
D03*
Y7927D02*
D03*
X10836Y7926D02*
D03*
Y7871D02*
D03*
X10766Y7926D02*
D03*
Y7871D02*
D03*
X10716Y8011D02*
D03*
Y8066D02*
D03*
X10662Y8182D02*
D03*
X10717D02*
D03*
X10462Y8122D02*
D03*
Y8177D02*
D03*
X10347Y8122D02*
D03*
Y8177D02*
D03*
X9939Y7801D02*
D03*
X9994D02*
D03*
X9912Y7727D02*
D03*
Y7672D02*
D03*
X9997D02*
D03*
Y7727D02*
D03*
X9932Y7587D02*
D03*
X9987D02*
D03*
X10272Y7932D02*
D03*
Y7987D02*
D03*
X10186Y8026D02*
D03*
Y7971D02*
D03*
X10151Y8121D02*
D03*
X10096D02*
D03*
X10151Y8191D02*
D03*
X10096D02*
D03*
X10021D02*
D03*
X9966D02*
D03*
Y8121D02*
D03*
X10021D02*
D03*
X9881D02*
D03*
Y8176D02*
D03*
X9733Y7671D02*
D03*
X9788D02*
D03*
X9002Y7622D02*
D03*
X9057D02*
D03*
X9162Y7602D02*
D03*
Y7657D02*
D03*
X9321Y8066D02*
D03*
Y8121D02*
D03*
X9226Y8066D02*
D03*
Y8121D02*
D03*
X8916Y8071D02*
D03*
Y8126D02*
D03*
X8756Y8196D02*
D03*
X8811D02*
D03*
X8731Y8046D02*
D03*
Y8101D02*
D03*
D88*
X10099Y7703D02*
D03*
Y7729D02*
D03*
Y7754D02*
D03*
Y7780D02*
D03*
X10255D02*
D03*
Y7754D02*
D03*
Y7729D02*
D03*
X10255Y7703D02*
D03*
D93*
X9167Y7467D02*
D03*
X9087D02*
D03*
Y7517D02*
D03*
X9167D02*
D03*
Y7492D02*
D03*
D98*
X10787Y8530D02*
D03*
X10687D02*
D03*
X10587D02*
D03*
X10487D02*
D03*
X10387D02*
D03*
X10287D02*
D03*
X10187D02*
D03*
X10087D02*
D03*
X9987D02*
D03*
X9887D02*
D03*
X9787D02*
D03*
X9686D02*
D03*
X9587D02*
D03*
X9487D02*
D03*
X9386D02*
D03*
X9287D02*
D03*
X9186D02*
D03*
X9087D02*
D03*
X8987D02*
D03*
X8886D02*
D03*
X10787Y8285D02*
D03*
X10687D02*
D03*
X10587D02*
D03*
X10487D02*
D03*
X10387D02*
D03*
X10287D02*
D03*
X10187D02*
D03*
X10087D02*
D03*
X9987D02*
D03*
X9887D02*
D03*
X9787D02*
D03*
X9687D02*
D03*
X9587D02*
D03*
X9487D02*
D03*
X9387D02*
D03*
X9287D02*
D03*
X9187D02*
D03*
X9087D02*
D03*
X8987D02*
D03*
X8887D02*
D03*
D107*
X10885Y7737D02*
D03*
Y7662D02*
D03*
X10782Y7700D02*
D03*
Y7662D02*
D03*
Y7737D02*
D03*
D108*
X8902Y7547D02*
D03*
Y7472D02*
D03*
X9002Y7509D02*
D03*
Y7547D02*
D03*
Y7472D02*
D03*
D111*
X11157Y8367D02*
D03*
Y8457D02*
D03*
X10267Y8072D02*
D03*
Y8162D02*
D03*
D115*
X10874Y8646D02*
D03*
Y8571D02*
D03*
X10961Y8609D02*
D03*
X10695Y7574D02*
D03*
X10782Y7612D02*
D03*
Y7537D02*
D03*
X10624Y8115D02*
D03*
X10537Y8077D02*
D03*
Y8152D02*
D03*
D120*
X10806Y8123D02*
D03*
D122*
X10332Y7692D02*
D03*
Y7827D02*
D03*
X9769Y8636D02*
D03*
X9634D02*
D03*
X10662Y8637D02*
D03*
X10527D02*
D03*
X10397Y7592D02*
D03*
Y7457D02*
D03*
D123*
X10098Y7890D02*
D03*
Y7940D02*
D03*
Y7990D02*
D03*
Y8040D02*
D03*
X9886Y7890D02*
D03*
Y7940D02*
D03*
Y7990D02*
D03*
Y8040D02*
D03*
D125*
X11117Y7884D02*
D03*
X11070D02*
D03*
X11023D02*
D03*
X11117Y7786D02*
D03*
X11066D02*
D03*
X11023D02*
D03*
X11117Y7687D02*
D03*
X11071D02*
D03*
X11023D02*
D03*
D132*
X10177Y7742D02*
D03*
D134*
X10667Y7815D02*
D03*
X10453D02*
D03*
M02*
